M48
; DRILL file {KiCad (6.0.1)} date Tue Jul 12 15:17:11 2022
; FORMAT={-:-/ absolute / metric / decimal}
; #@! TF.CreationDate,2022-07-12T15:17:11+02:00
; #@! TF.GenerationSoftware,Kicad,Pcbnew,(6.0.1)
; #@! TF.FileFunction,Plated,1,4,PTH
FMAT,2
METRIC
; #@! TA.AperFunction,Plated,PTH,ViaDrill
T1C0.200
; #@! TA.AperFunction,Plated,PTH,ComponentDrill
T2C0.850
; #@! TA.AperFunction,Plated,PTH,ComponentDrill
T3C1.000
; #@! TA.AperFunction,Plated,PTH,ComponentDrill
T4C3.200
%
G90
G05
T1
X70.552Y-82.75
X70.552Y-86.25
X70.552Y-125.25
X70.7Y-118.97
X70.7Y-124.17
X70.725Y-112.6
X70.75Y-100.025
X70.75Y-106.85
X70.775Y-118.1
X70.802Y-130.0
X72.052Y-79.25
X73.552Y-133.0
X73.75Y-95.12
X75.802Y-77.5
X76.25Y-121.52
X76.35Y-123.125
X77.302Y-133.5
X77.975Y-85.85
X78.65Y-97.52
X79.375Y-124.275
X79.7Y-93.8
X79.802Y-77.5
X80.2Y-115.8
X80.405Y-87.845
X80.828Y-93.025
X80.828Y-98.225
X81.1Y-123.5
X81.192Y-85.54
X81.252Y-89.6
X81.47Y-122.75
X81.602Y-133.35
X82.375Y-92.35
X82.377Y-100.75
X82.703Y-100.0
X82.749Y-90.446
X82.95Y-84.225
X82.953Y-107.8
X82.975Y-118.095
X83.4Y-101.02
X83.4Y-102.22
X83.4Y-103.42
X83.4Y-104.63
X83.4Y-105.88
X83.4Y-107.02
X83.406Y-90.154
X83.427Y-96.375
X83.75Y-83.415
X84.1Y-107.68
X84.15Y-109.3
X84.65Y-128.07
X84.65Y-128.62
X84.799Y-87.83
X85.03Y-94.825
X85.11Y-109.47
X85.13Y-108.51
X85.15Y-107.7
X85.2Y-99.95
X85.21Y-97.775
X85.3Y-128.07
X85.3Y-128.62
X85.432Y-96.888
X85.75Y-83.415
X85.8Y-125.4
X85.95Y-128.07
X85.95Y-128.625
X86.325Y-85.65
X86.453Y-93.8
X86.602Y-91.25
X86.602Y-91.85
X86.73Y-106.58
X86.8Y-121.45
X87.025Y-89.825
X87.075Y-124.395
X87.075Y-124.97
X87.075Y-125.55
X87.125Y-89.025
X87.35Y-120.9
X87.35Y-121.45
X87.375Y-85.65
X87.4Y-101.02
X87.4Y-102.22
X87.41Y-103.28
X87.43Y-91.24
X87.51Y-105.88
X87.55Y-100.195
X87.6Y-86.45
X87.675Y-124.395
X87.675Y-124.97
X87.675Y-125.545
X87.703Y-107.258
X87.875Y-83.42
X87.9Y-120.35
X87.9Y-120.9
X87.9Y-121.45
X88.19Y-99.7
X88.34Y-133.54
X88.402Y-113.31
X88.41Y-111.064
X88.86Y-99.71
X89.25Y-115.175
X89.252Y-113.6
X89.277Y-96.7
X89.375Y-90.025
X89.4Y-107.06
X89.75Y-83.415
X89.846Y-102.468
X90.0Y-103.22
X90.175Y-107.475
X90.185Y-101.282
X90.2Y-88.2
X90.35Y-96.19
X90.35Y-96.74
X90.35Y-97.315
X90.35Y-97.865
X90.39Y-103.88
X90.4Y-110.38
X90.9Y-122.05
X90.91Y-123.09
X90.95Y-86.3
X90.95Y-87.0
X90.95Y-87.65
X91.1Y-112.62
X91.1Y-115.17
X91.34Y-124.56
X91.6Y-87.65
X91.625Y-128.575
X91.65Y-112.62
X91.65Y-115.17
X92.05Y-117.732
X92.05Y-125.2
X92.525Y-99.45
X92.57Y-112.8
X92.605Y-91.655
X92.625Y-108.445
X92.7Y-102.1
X92.775Y-107.1
X92.78Y-111.32
X92.88Y-96.55
X92.9Y-95.75
X93.05Y-120.8
X93.078Y-91.1
X93.125Y-114.27
X93.15Y-123.65
X93.197Y-116.33
X93.615Y-133.515
X93.65Y-96.605
X94.2Y-98.92
X94.433Y-90.419
X94.65Y-100.2
X94.665Y-121.615
X95.075Y-99.595
X95.625Y-87.05
X95.8Y-125.2
X96.0Y-90.9
X96.0Y-91.49
X96.052Y-77.5
X96.25Y-122.15
X96.41Y-128.55
X96.425Y-82.95
X96.61Y-92.38
X96.61Y-123.92
X96.635Y-102.635
X96.65Y-115.32
X96.68Y-125.37
X96.89Y-103.34
X97.07Y-121.825
X97.125Y-104.125
X97.515Y-85.4
X97.685Y-103.51
X97.91Y-104.27
X98.27Y-125.2
X98.55Y-89.9
X98.7Y-104.45
X98.715Y-133.515
X98.75Y-105.35
X98.8Y-119.9
X99.01Y-111.675
X99.3Y-89.25
X99.47Y-94.912
X99.7Y-123.7
X99.9Y-92.62
X100.388Y-122.843
X100.55Y-105.35
X100.617Y-94.881
X100.725Y-90.945
X100.75Y-91.895
X100.787Y-122.062
X101.0Y-92.595
X101.24Y-86.69
X101.24Y-87.25
X101.375Y-81.365
X101.375Y-83.415
X101.45Y-100.9
X101.47Y-128.55
X101.66Y-95.925
X101.672Y-94.88
X101.83Y-86.69
X101.83Y-87.25
X102.0Y-90.54
X102.0Y-91.15
X102.175Y-122.075
X102.375Y-81.365
X102.375Y-83.415
X102.42Y-86.69
X102.42Y-87.25
X102.45Y-96.295
X102.59Y-90.54
X102.59Y-91.15
X102.707Y-111.869
X102.725Y-111.125
X102.8Y-99.945
X103.1Y-114.33
X103.165Y-85.325
X103.2Y-90.54
X103.2Y-91.15
X103.43Y-125.36
X103.475Y-122.075
X103.625Y-99.145
X103.65Y-99.925
X103.7Y-96.17
X103.734Y-114.599
X103.865Y-133.515
X104.401Y-90.241
X104.5Y-120.66
X104.546Y-116.749
X104.65Y-112.07
X104.777Y-122.073
X105.096Y-117.275
X105.125Y-109.175
X105.17Y-96.001
X105.33Y-86.8
X105.45Y-101.825
X105.65Y-113.85
X105.7Y-98.9
X105.7Y-99.93
X105.7Y-100.92
X105.75Y-109.425
X106.0Y-125.33
X106.18Y-118.26
X106.25Y-94.1
X106.35Y-128.55
X106.505Y-119.485
X106.8Y-88.15
X106.8Y-88.775
X106.8Y-89.4
X106.8Y-90.025
X106.8Y-90.675
X106.8Y-91.325
X106.96Y-125.32
X107.155Y-120.71
X107.36Y-112.64
X107.4Y-98.9
X107.86Y-113.04
X107.86Y-113.59
X107.86Y-114.14
X107.86Y-114.69
X108.015Y-77.485
X108.23Y-102.98
X108.303Y-108.407
X108.35Y-96.55
X108.43Y-120.71
X108.54Y-125.29
X108.65Y-89.65
X108.652Y-113.8
X108.9Y-96.55
X108.9Y-97.1
X108.9Y-97.65
X108.915Y-78.175
X108.93Y-115.48
X108.93Y-116.385
X108.93Y-117.435
X109.0Y-95.25
X109.0Y-109.3
X109.005Y-119.635
X109.055Y-118.935
X109.4Y-88.0
X109.4Y-123.3
X109.66Y-122.43
X109.745Y-97.095
X110.11Y-98.51
X110.252Y-125.125
X110.42Y-95.11
X110.45Y-88.0
X110.45Y-90.364
X110.58Y-105.26
X110.58Y-107.32
X110.6Y-104.23
X110.6Y-106.36
X110.65Y-126.0
X110.675Y-121.57
X110.814Y-102.987
X110.95Y-98.8
X110.95Y-108.445
X111.025Y-81.7
X111.24Y-116.1
X111.35Y-121.02
X111.36Y-120.13
X111.475Y-113.42
X111.485Y-78.175
X111.5Y-88.0
X112.002Y-108.5
X112.15Y-118.57
X112.55Y-88.0
X112.55Y-90.364
X112.6Y-127.65
X112.735Y-78.175
X112.85Y-108.67
X112.9Y-129.95
X113.0Y-116.7
X113.45Y-118.57
X113.55Y-127.82
X113.57Y-91.87
X113.575Y-113.42
X113.6Y-88.0
X113.6Y-90.355
X113.6Y-129.87
X113.85Y-95.85
X113.95Y-116.7
X113.985Y-78.175
X114.266Y-125.52
X114.45Y-89.9
X114.6Y-86.4
X114.6Y-87.0
X114.6Y-87.575
X114.65Y-129.82
X114.75Y-118.57
X115.2Y-86.4
X115.35Y-105.25
X115.35Y-108.7
X115.4Y-113.4
X115.6Y-125.51
X115.6Y-129.82
X115.8Y-86.4
X116.25Y-91.5
X116.45Y-90.42
X116.5Y-127.7
X116.55Y-104.77
X116.65Y-113.75
X116.667Y-77.485
X116.7Y-122.57
X116.95Y-86.865
X116.95Y-88.39
X116.95Y-95.675
X116.95Y-97.2
X117.01Y-101.245
X117.01Y-102.77
X118.3Y-114.5
X118.975Y-86.865
X118.975Y-88.39
X118.975Y-95.675
X118.975Y-97.2
X119.005Y-110.045
X119.035Y-101.245
X119.035Y-102.77
X119.1Y-123.17
X119.2Y-113.75
X119.4Y-90.53
X119.55Y-104.82
X119.65Y-133.4
X119.75Y-114.25
X119.975Y-118.4
X120.05Y-113.05
X120.65Y-123.17
X120.796Y-121.476
X120.8Y-122.17
X121.525Y-100.47
X121.552Y-77.5
X121.7Y-114.85
X122.45Y-86.865
X122.45Y-88.39
X122.45Y-95.665
X122.45Y-97.19
X122.51Y-101.245
X122.51Y-102.77
X122.51Y-110.035
X122.51Y-111.56
X122.552Y-124.25
X122.725Y-121.17
X122.775Y-122.17
X122.8Y-119.17
X122.8Y-120.17
X124.475Y-86.865
X124.475Y-88.39
X124.475Y-95.665
X124.475Y-97.19
X124.535Y-101.245
X124.535Y-102.77
X124.535Y-110.035
X124.535Y-111.56
X125.052Y-79.25
X126.55Y-85.65
X126.552Y-82.75
T2
X77.2Y-100.93
X77.2Y-103.43
X77.2Y-105.93
X77.2Y-108.43
X77.2Y-110.93
X77.2Y-113.43
X77.2Y-115.93
T3
X90.055Y-127.6
X90.065Y-130.11
X90.065Y-132.65
X92.595Y-127.6
X92.605Y-130.11
X92.605Y-132.65
X95.135Y-127.6
X95.145Y-130.11
X95.145Y-132.65
X97.675Y-127.6
X97.685Y-130.11
X97.685Y-132.65
X98.3Y-82.93
X100.215Y-127.6
X100.225Y-130.11
X100.225Y-132.65
X102.755Y-127.6
X102.765Y-130.11
X102.765Y-132.65
X105.295Y-127.6
X105.305Y-130.11
X105.305Y-132.65
X106.3Y-82.93
X107.835Y-127.6
X107.845Y-130.11
X107.845Y-132.65
T4
X76.0Y-83.02
X76.0Y-128.02
X121.0Y-83.02
X121.0Y-128.02
T0
M30
