G04 #@! TF.GenerationSoftware,KiCad,Pcbnew,(6.0.1)*
G04 #@! TF.CreationDate,2022-07-12T15:15:51+02:00*
G04 #@! TF.ProjectId,flightController,666c6967-6874-4436-9f6e-74726f6c6c65,1.0*
G04 #@! TF.SameCoordinates,Original*
G04 #@! TF.FileFunction,Soldermask,Bot*
G04 #@! TF.FilePolarity,Negative*
%FSLAX46Y46*%
G04 Gerber Fmt 4.6, Leading zero omitted, Abs format (unit mm)*
G04 Created by KiCad (PCBNEW (6.0.1)) date 2022-07-12 15:15:51*
%MOMM*%
%LPD*%
G01*
G04 APERTURE LIST*
G04 Aperture macros list*
%AMRoundRect*
0 Rectangle with rounded corners*
0 $1 Rounding radius*
0 $2 $3 $4 $5 $6 $7 $8 $9 X,Y pos of 4 corners*
0 Add a 4 corners polygon primitive as box body*
4,1,4,$2,$3,$4,$5,$6,$7,$8,$9,$2,$3,0*
0 Add four circle primitives for the rounded corners*
1,1,$1+$1,$2,$3*
1,1,$1+$1,$4,$5*
1,1,$1+$1,$6,$7*
1,1,$1+$1,$8,$9*
0 Add four rect primitives between the rounded corners*
20,1,$1+$1,$2,$3,$4,$5,0*
20,1,$1+$1,$4,$5,$6,$7,0*
20,1,$1+$1,$6,$7,$8,$9,0*
20,1,$1+$1,$8,$9,$2,$3,0*%
G04 Aperture macros list end*
%ADD10C,5.500000*%
%ADD11RoundRect,0.250000X-0.675000X0.600000X-0.675000X-0.600000X0.675000X-0.600000X0.675000X0.600000X0*%
%ADD12O,1.850000X1.700000*%
%ADD13R,1.700000X1.700000*%
%ADD14O,1.700000X1.700000*%
%ADD15C,0.900000*%
%ADD16C,1.700000*%
%ADD17C,1.000000*%
%ADD18R,0.700000X1.300000*%
%ADD19R,1.200000X1.400000*%
%ADD20R,1.200000X2.000000*%
%ADD21C,1.100000*%
%ADD22R,2.000000X1.500000*%
%ADD23R,2.000000X3.800000*%
G04 APERTURE END LIST*
D10*
X76000000Y-128020000D03*
D11*
X77200000Y-100930000D03*
D12*
X77200000Y-103430000D03*
X77200000Y-105930000D03*
X77200000Y-108430000D03*
X77200000Y-110930000D03*
X77200000Y-113430000D03*
X77200000Y-115930000D03*
D10*
X121000000Y-128020000D03*
D13*
X107835000Y-127600000D03*
D14*
X105295000Y-127600000D03*
X102755000Y-127600000D03*
X100215000Y-127600000D03*
X97675000Y-127600000D03*
X95135000Y-127600000D03*
X92595000Y-127600000D03*
X90055000Y-127600000D03*
D15*
X120625000Y-104200000D03*
X120625000Y-108600000D03*
D16*
X107845000Y-130110000D03*
D14*
X107845000Y-132650000D03*
X105305000Y-130110000D03*
X105305000Y-132650000D03*
X102765000Y-130110000D03*
X102765000Y-132650000D03*
X100225000Y-130110000D03*
X100225000Y-132650000D03*
X97685000Y-130110000D03*
X97685000Y-132650000D03*
X95145000Y-130110000D03*
X95145000Y-132650000D03*
X92605000Y-130110000D03*
X92605000Y-132650000D03*
X90065000Y-130110000D03*
X90065000Y-132650000D03*
D15*
X120565000Y-89830000D03*
X120565000Y-94230000D03*
X73070000Y-94190000D03*
X73070000Y-91190000D03*
D10*
X76000000Y-83020000D03*
X121000000Y-83020000D03*
D17*
X121802500Y-118150000D03*
X118790000Y-132880000D03*
X84002500Y-97370000D03*
X89100000Y-87600000D03*
X77375000Y-122400000D03*
X88000000Y-89620000D03*
X108530000Y-121820000D03*
X117050000Y-128820000D03*
X121810000Y-116100000D03*
X108530000Y-123830000D03*
X121777500Y-120200000D03*
X86202500Y-97400000D03*
X115027500Y-128795000D03*
D18*
X105390000Y-93480000D03*
X104290000Y-93480000D03*
X103190000Y-93480000D03*
X102090000Y-93480000D03*
X100990000Y-93480000D03*
X99890000Y-93480000D03*
X98790000Y-93480000D03*
X97690000Y-93480000D03*
X96590000Y-93480000D03*
D19*
X95390000Y-92630000D03*
D20*
X95390000Y-82930000D03*
X111010000Y-82930000D03*
D19*
X110170000Y-92630000D03*
D21*
X98300000Y-82930000D03*
X106300000Y-82930000D03*
D17*
X86150000Y-100020000D03*
X90250000Y-89670000D03*
X84100000Y-100020000D03*
D22*
X89200000Y-120420000D03*
X89200000Y-122720000D03*
D23*
X82900000Y-122720000D03*
D22*
X89200000Y-125020000D03*
D17*
X77425000Y-118225000D03*
X77400000Y-120320000D03*
M02*
