%FSLAX45Y45*%
G04 Gerber Fmt 4.5, Leading zero omitted, Abs format (unit mm)*
G04 Created by KiCad (PCBNEW (6.0.1)) date 2022-07-12 15:17:18*
%MOMM*%
%LPD*%
G01*
G04 APERTURE LIST*
%TA.AperFunction,Profile*%
%ADD10C,0.100000*%
%TD*%
%ADD11C,0.200000*%
%ADD12C,0.020000*%
%ADD13C,0.085000*%
%ADD14C,0.100000*%
%ADD15C,0.320000*%
G04 APERTURE END LIST*
D10*
X7600000Y-13402000D02*
X12100000Y-13402000D01*
X7000000Y-8302000D02*
X7000000Y-8802000D01*
X7070614Y-9603381D02*
G75*
G03*
X7000000Y-9702000I40743J-103763D01*
G01*
X12700000Y-8302000D02*
G75*
G03*
X12100000Y-7702000I-600000J0D01*
G01*
X12700000Y-12802000D02*
X12700000Y-8302000D01*
X7130000Y-8992000D02*
G75*
G03*
X7065000Y-8897000I-99352J1759D01*
G01*
X12437600Y-8042400D02*
G75*
G03*
X12437600Y-8042400I-57600J0D01*
G01*
X7000000Y-9702000D02*
X7000000Y-12802000D01*
X7600000Y-7702000D02*
G75*
G03*
X7000000Y-8302000I0J-600000D01*
G01*
X12100000Y-7702000D02*
X7600000Y-7702000D01*
X7000000Y-12802000D02*
G75*
G03*
X7600000Y-13402000I600000J0D01*
G01*
X12100000Y-13402000D02*
G75*
G03*
X12700000Y-12802000I0J600000D01*
G01*
X7070614Y-9603381D02*
G75*
G03*
X7130000Y-9512000I-40614J91381D01*
G01*
X7380000Y-13062000D02*
G75*
G03*
X7380000Y-13062000I-57600J0D01*
G01*
X7000000Y-8802000D02*
G75*
G03*
X7065000Y-8897000I99352J-1759D01*
G01*
X7130000Y-9512000D02*
X7130000Y-8992000D01*
D11*
D12*
X7045250Y-8265000D02*
X7065250Y-8285000D01*
X7065250Y-8265000D02*
X7045250Y-8285000D01*
X7045250Y-8615000D02*
X7065250Y-8635000D01*
X7065250Y-8615000D02*
X7045250Y-8635000D01*
X7045250Y-12515000D02*
X7065250Y-12535000D01*
X7065250Y-12515000D02*
X7045250Y-12535000D01*
X7060000Y-11887000D02*
X7080000Y-11907000D01*
X7080000Y-11887000D02*
X7060000Y-11907000D01*
X7060000Y-12407000D02*
X7080000Y-12427000D01*
X7080000Y-12407000D02*
X7060000Y-12427000D01*
X7062500Y-11250000D02*
X7082500Y-11270000D01*
X7082500Y-11250000D02*
X7062500Y-11270000D01*
X7065000Y-9992500D02*
X7085000Y-10012500D01*
X7085000Y-9992500D02*
X7065000Y-10012500D01*
X7065000Y-10675000D02*
X7085000Y-10695000D01*
X7085000Y-10675000D02*
X7065000Y-10695000D01*
X7067500Y-11800000D02*
X7087500Y-11820000D01*
X7087500Y-11800000D02*
X7067500Y-11820000D01*
X7070250Y-12990000D02*
X7090250Y-13010000D01*
X7090250Y-12990000D02*
X7070250Y-13010000D01*
X7195250Y-7915000D02*
X7215250Y-7935000D01*
X7215250Y-7915000D02*
X7195250Y-7935000D01*
X7345250Y-13290000D02*
X7365250Y-13310000D01*
X7365250Y-13290000D02*
X7345250Y-13310000D01*
X7365000Y-9502000D02*
X7385000Y-9522000D01*
X7385000Y-9502000D02*
X7365000Y-9522000D01*
X7570250Y-7740000D02*
X7590250Y-7760000D01*
X7590250Y-7740000D02*
X7570250Y-7760000D01*
X7615000Y-12142000D02*
X7635000Y-12162000D01*
X7635000Y-12142000D02*
X7615000Y-12162000D01*
X7625000Y-12302500D02*
X7645000Y-12322500D01*
X7645000Y-12302500D02*
X7625000Y-12322500D01*
X7720250Y-13340000D02*
X7740250Y-13360000D01*
X7740250Y-13340000D02*
X7720250Y-13360000D01*
X7787500Y-8575000D02*
X7807500Y-8595000D01*
X7807500Y-8575000D02*
X7787500Y-8595000D01*
X7855000Y-9742000D02*
X7875000Y-9762000D01*
X7875000Y-9742000D02*
X7855000Y-9762000D01*
X7927500Y-12417500D02*
X7947500Y-12437500D01*
X7947500Y-12417500D02*
X7927500Y-12437500D01*
X7960000Y-9370000D02*
X7980000Y-9390000D01*
X7980000Y-9370000D02*
X7960000Y-9390000D01*
X7970250Y-7740000D02*
X7990250Y-7760000D01*
X7990250Y-7740000D02*
X7970250Y-7760000D01*
X8010000Y-11570000D02*
X8030000Y-11590000D01*
X8030000Y-11570000D02*
X8010000Y-11590000D01*
X8030509Y-8774452D02*
X8050509Y-8794452D01*
X8050509Y-8774452D02*
X8030509Y-8794452D01*
X8072750Y-9292500D02*
X8092750Y-9312500D01*
X8092750Y-9292500D02*
X8072750Y-9312500D01*
X8072750Y-9812500D02*
X8092750Y-9832500D01*
X8092750Y-9812500D02*
X8072750Y-9832500D01*
X8100000Y-12340000D02*
X8120000Y-12360000D01*
X8120000Y-12340000D02*
X8100000Y-12360000D01*
X8109250Y-8544000D02*
X8129250Y-8564000D01*
X8129250Y-8544000D02*
X8109250Y-8564000D01*
X8115250Y-8950000D02*
X8135250Y-8970000D01*
X8135250Y-8950000D02*
X8115250Y-8970000D01*
X8137000Y-12265000D02*
X8157000Y-12285000D01*
X8157000Y-12265000D02*
X8137000Y-12285000D01*
X8150250Y-13325000D02*
X8170250Y-13345000D01*
X8170250Y-13325000D02*
X8150250Y-13345000D01*
X8227500Y-9225000D02*
X8247500Y-9245000D01*
X8247500Y-9225000D02*
X8227500Y-9245000D01*
X8227750Y-10065000D02*
X8247750Y-10085000D01*
X8247750Y-10065000D02*
X8227750Y-10085000D01*
X8260250Y-9990000D02*
X8280250Y-10010000D01*
X8280250Y-9990000D02*
X8260250Y-10010000D01*
X8264912Y-9034588D02*
X8284912Y-9054588D01*
X8284912Y-9034588D02*
X8264912Y-9054588D01*
X8285000Y-8412500D02*
X8305000Y-8432500D01*
X8305000Y-8412500D02*
X8285000Y-8432500D01*
X8285250Y-10770000D02*
X8305250Y-10790000D01*
X8305250Y-10770000D02*
X8285250Y-10790000D01*
X8287500Y-11799500D02*
X8307500Y-11819500D01*
X8307500Y-11799500D02*
X8287500Y-11819500D01*
X8330000Y-10092000D02*
X8350000Y-10112000D01*
X8350000Y-10092000D02*
X8330000Y-10112000D01*
X8330000Y-10212000D02*
X8350000Y-10232000D01*
X8350000Y-10212000D02*
X8330000Y-10232000D01*
X8330000Y-10332000D02*
X8350000Y-10352000D01*
X8350000Y-10332000D02*
X8330000Y-10352000D01*
X8330000Y-10453000D02*
X8350000Y-10473000D01*
X8350000Y-10453000D02*
X8330000Y-10473000D01*
X8330000Y-10578000D02*
X8350000Y-10598000D01*
X8350000Y-10578000D02*
X8330000Y-10598000D01*
X8330000Y-10692000D02*
X8350000Y-10712000D01*
X8350000Y-10692000D02*
X8330000Y-10712000D01*
X8330625Y-9005375D02*
X8350625Y-9025375D01*
X8350625Y-9005375D02*
X8330625Y-9025375D01*
X8332750Y-9627500D02*
X8352750Y-9647500D01*
X8352750Y-9627500D02*
X8332750Y-9647500D01*
X8365000Y-8331500D02*
X8385000Y-8351500D01*
X8385000Y-8331500D02*
X8365000Y-8351500D01*
X8400000Y-10758000D02*
X8420000Y-10778000D01*
X8420000Y-10758000D02*
X8400000Y-10778000D01*
X8405000Y-10920000D02*
X8425000Y-10940000D01*
X8425000Y-10920000D02*
X8405000Y-10940000D01*
X8455000Y-12797000D02*
X8475000Y-12817000D01*
X8475000Y-12797000D02*
X8455000Y-12817000D01*
X8455000Y-12852000D02*
X8475000Y-12872000D01*
X8475000Y-12852000D02*
X8455000Y-12872000D01*
X8469902Y-8773000D02*
X8489902Y-8793000D01*
X8489902Y-8773000D02*
X8469902Y-8793000D01*
X8492986Y-9472531D02*
X8512986Y-9492531D01*
X8512986Y-9472531D02*
X8492986Y-9492531D01*
X8501000Y-10937000D02*
X8521000Y-10957000D01*
X8521000Y-10937000D02*
X8501000Y-10957000D01*
X8503000Y-10841000D02*
X8523000Y-10861000D01*
X8523000Y-10841000D02*
X8503000Y-10861000D01*
X8505000Y-10760000D02*
X8525000Y-10780000D01*
X8525000Y-10760000D02*
X8505000Y-10780000D01*
X8510000Y-9985000D02*
X8530000Y-10005000D01*
X8530000Y-9985000D02*
X8510000Y-10005000D01*
X8511024Y-9767451D02*
X8531024Y-9787451D01*
X8531024Y-9767451D02*
X8511024Y-9787451D01*
X8520000Y-12797000D02*
X8540000Y-12817000D01*
X8540000Y-12797000D02*
X8520000Y-12817000D01*
X8520000Y-12852000D02*
X8540000Y-12872000D01*
X8540000Y-12852000D02*
X8520000Y-12872000D01*
X8533245Y-9678841D02*
X8553245Y-9698841D01*
X8553245Y-9678841D02*
X8533245Y-9698841D01*
X8565000Y-8331500D02*
X8585000Y-8351500D01*
X8585000Y-8331500D02*
X8565000Y-8351500D01*
X8570000Y-12530000D02*
X8590000Y-12550000D01*
X8590000Y-12530000D02*
X8570000Y-12550000D01*
X8585000Y-12797000D02*
X8605000Y-12817000D01*
X8605000Y-12797000D02*
X8585000Y-12817000D01*
X8585000Y-12852500D02*
X8605000Y-12872500D01*
X8605000Y-12852500D02*
X8585000Y-12872500D01*
X8622500Y-8555000D02*
X8642500Y-8575000D01*
X8642500Y-8555000D02*
X8622500Y-8575000D01*
X8635250Y-9370000D02*
X8655250Y-9390000D01*
X8655250Y-9370000D02*
X8635250Y-9390000D01*
X8650250Y-9115000D02*
X8670250Y-9135000D01*
X8670250Y-9115000D02*
X8650250Y-9135000D01*
X8650250Y-9175000D02*
X8670250Y-9195000D01*
X8670250Y-9175000D02*
X8650250Y-9195000D01*
X8663000Y-10648000D02*
X8683000Y-10668000D01*
X8683000Y-10648000D02*
X8663000Y-10668000D01*
X8670000Y-12135000D02*
X8690000Y-12155000D01*
X8690000Y-12135000D02*
X8670000Y-12155000D01*
X8692500Y-8972500D02*
X8712500Y-8992500D01*
X8712500Y-8972500D02*
X8692500Y-8992500D01*
X8697500Y-12429500D02*
X8717500Y-12449500D01*
X8717500Y-12429500D02*
X8697500Y-12449500D01*
X8697500Y-12487000D02*
X8717500Y-12507000D01*
X8717500Y-12487000D02*
X8697500Y-12507000D01*
X8697500Y-12545000D02*
X8717500Y-12565000D01*
X8717500Y-12545000D02*
X8697500Y-12565000D01*
X8702500Y-8892500D02*
X8722500Y-8912500D01*
X8722500Y-8892500D02*
X8702500Y-8912500D01*
X8725000Y-12080000D02*
X8745000Y-12100000D01*
X8745000Y-12080000D02*
X8725000Y-12100000D01*
X8725000Y-12135000D02*
X8745000Y-12155000D01*
X8745000Y-12135000D02*
X8725000Y-12155000D01*
X8727500Y-8555000D02*
X8747500Y-8575000D01*
X8747500Y-8555000D02*
X8727500Y-8575000D01*
X8730000Y-10092000D02*
X8750000Y-10112000D01*
X8750000Y-10092000D02*
X8730000Y-10112000D01*
X8730000Y-10212000D02*
X8750000Y-10232000D01*
X8750000Y-10212000D02*
X8730000Y-10232000D01*
X8731000Y-10318000D02*
X8751000Y-10338000D01*
X8751000Y-10318000D02*
X8731000Y-10338000D01*
X8733000Y-9114000D02*
X8753000Y-9134000D01*
X8753000Y-9114000D02*
X8733000Y-9134000D01*
X8741000Y-10578000D02*
X8761000Y-10598000D01*
X8761000Y-10578000D02*
X8741000Y-10598000D01*
X8745000Y-10009500D02*
X8765000Y-10029500D01*
X8765000Y-10009500D02*
X8745000Y-10029500D01*
X8750000Y-8635000D02*
X8770000Y-8655000D01*
X8770000Y-8635000D02*
X8750000Y-8655000D01*
X8757500Y-12429500D02*
X8777500Y-12449500D01*
X8777500Y-12429500D02*
X8757500Y-12449500D01*
X8757500Y-12487000D02*
X8777500Y-12507000D01*
X8777500Y-12487000D02*
X8757500Y-12507000D01*
X8757500Y-12544500D02*
X8777500Y-12564500D01*
X8777500Y-12544500D02*
X8757500Y-12564500D01*
X8760250Y-10715811D02*
X8780250Y-10735811D01*
X8780250Y-10715811D02*
X8760250Y-10735811D01*
X8777500Y-8332000D02*
X8797500Y-8352000D01*
X8797500Y-8332000D02*
X8777500Y-8352000D01*
X8780000Y-12025000D02*
X8800000Y-12045000D01*
X8800000Y-12025000D02*
X8780000Y-12045000D01*
X8780000Y-12080000D02*
X8800000Y-12100000D01*
X8800000Y-12080000D02*
X8780000Y-12100000D01*
X8780000Y-12135000D02*
X8800000Y-12155000D01*
X8800000Y-12135000D02*
X8780000Y-12155000D01*
X8809000Y-9960000D02*
X8829000Y-9980000D01*
X8829000Y-9960000D02*
X8809000Y-9980000D01*
X8824000Y-13344000D02*
X8844000Y-13364000D01*
X8844000Y-13344000D02*
X8824000Y-13364000D01*
X8830250Y-11321000D02*
X8850250Y-11341000D01*
X8850250Y-11321000D02*
X8830250Y-11341000D01*
X8831000Y-11096402D02*
X8851000Y-11116402D01*
X8851000Y-11096402D02*
X8831000Y-11116402D01*
X8876000Y-9961000D02*
X8896000Y-9981000D01*
X8896000Y-9961000D02*
X8876000Y-9981000D01*
X8915000Y-11507500D02*
X8935000Y-11527500D01*
X8935000Y-11507500D02*
X8915000Y-11527500D01*
X8915250Y-11350000D02*
X8935250Y-11370000D01*
X8935250Y-11350000D02*
X8915250Y-11370000D01*
X8917750Y-9660000D02*
X8937750Y-9680000D01*
X8937750Y-9660000D02*
X8917750Y-9680000D01*
X8927500Y-8992500D02*
X8947500Y-9012500D01*
X8947500Y-8992500D02*
X8927500Y-9012500D01*
X8930000Y-10696000D02*
X8950000Y-10716000D01*
X8950000Y-10696000D02*
X8930000Y-10716000D01*
X8965000Y-8331500D02*
X8985000Y-8351500D01*
X8985000Y-8331500D02*
X8965000Y-8351500D01*
X8974628Y-10236760D02*
X8994628Y-10256760D01*
X8994628Y-10236760D02*
X8974628Y-10256760D01*
X8990000Y-10312000D02*
X9010000Y-10332000D01*
X9010000Y-10312000D02*
X8990000Y-10332000D01*
X9007500Y-10737500D02*
X9027500Y-10757500D01*
X9027500Y-10737500D02*
X9007500Y-10757500D01*
X9008533Y-10118245D02*
X9028533Y-10138245D01*
X9028533Y-10118245D02*
X9008533Y-10138245D01*
X9010000Y-8810000D02*
X9030000Y-8830000D01*
X9030000Y-8810000D02*
X9010000Y-8830000D01*
X9025000Y-9609000D02*
X9045000Y-9629000D01*
X9045000Y-9609000D02*
X9025000Y-9629000D01*
X9025000Y-9664000D02*
X9045000Y-9684000D01*
X9045000Y-9664000D02*
X9025000Y-9684000D01*
X9025000Y-9721500D02*
X9045000Y-9741500D01*
X9045000Y-9721500D02*
X9025000Y-9741500D01*
X9025000Y-9776500D02*
X9045000Y-9796500D01*
X9045000Y-9776500D02*
X9025000Y-9796500D01*
X9029000Y-10378050D02*
X9049000Y-10398050D01*
X9049000Y-10378050D02*
X9029000Y-10398050D01*
X9030000Y-11028050D02*
X9050000Y-11048050D01*
X9050000Y-11028050D02*
X9030000Y-11048050D01*
X9080000Y-12195000D02*
X9100000Y-12215000D01*
X9100000Y-12195000D02*
X9080000Y-12215000D01*
X9081000Y-12299000D02*
X9101000Y-12319000D01*
X9101000Y-12299000D02*
X9081000Y-12319000D01*
X9085000Y-8620000D02*
X9105000Y-8640000D01*
X9105000Y-8620000D02*
X9085000Y-8640000D01*
X9085000Y-8690000D02*
X9105000Y-8710000D01*
X9105000Y-8690000D02*
X9085000Y-8710000D01*
X9085000Y-8755000D02*
X9105000Y-8775000D01*
X9105000Y-8755000D02*
X9085000Y-8775000D01*
X9100000Y-11252000D02*
X9120000Y-11272000D01*
X9120000Y-11252000D02*
X9100000Y-11272000D01*
X9100000Y-11507000D02*
X9120000Y-11527000D01*
X9120000Y-11507000D02*
X9100000Y-11527000D01*
X9124000Y-12446000D02*
X9144000Y-12466000D01*
X9144000Y-12446000D02*
X9124000Y-12466000D01*
X9150000Y-8755000D02*
X9170000Y-8775000D01*
X9170000Y-8755000D02*
X9150000Y-8775000D01*
X9152500Y-12847500D02*
X9172500Y-12867500D01*
X9172500Y-12847500D02*
X9152500Y-12867500D01*
X9155000Y-11252000D02*
X9175000Y-11272000D01*
X9175000Y-11252000D02*
X9155000Y-11272000D01*
X9155000Y-11507000D02*
X9175000Y-11527000D01*
X9175000Y-11507000D02*
X9155000Y-11527000D01*
X9195000Y-11763236D02*
X9215000Y-11783236D01*
X9215000Y-11763236D02*
X9195000Y-11783236D01*
X9195000Y-12510000D02*
X9215000Y-12530000D01*
X9215000Y-12510000D02*
X9195000Y-12530000D01*
X9242500Y-9935000D02*
X9262500Y-9955000D01*
X9262500Y-9935000D02*
X9242500Y-9955000D01*
X9247000Y-11270000D02*
X9267000Y-11290000D01*
X9267000Y-11270000D02*
X9247000Y-11290000D01*
X9250500Y-9155500D02*
X9270500Y-9175500D01*
X9270500Y-9155500D02*
X9250500Y-9175500D01*
X9252500Y-10834500D02*
X9272500Y-10854500D01*
X9272500Y-10834500D02*
X9252500Y-10854500D01*
X9260000Y-10200000D02*
X9280000Y-10220000D01*
X9280000Y-10200000D02*
X9260000Y-10220000D01*
X9267500Y-10700000D02*
X9287500Y-10720000D01*
X9287500Y-10700000D02*
X9267500Y-10720000D01*
X9268000Y-11122000D02*
X9288000Y-11142000D01*
X9288000Y-11122000D02*
X9268000Y-11142000D01*
X9278000Y-9645000D02*
X9298000Y-9665000D01*
X9298000Y-9645000D02*
X9278000Y-9665000D01*
X9280000Y-9565000D02*
X9300000Y-9585000D01*
X9300000Y-9565000D02*
X9280000Y-9585000D01*
X9295000Y-12070000D02*
X9315000Y-12090000D01*
X9315000Y-12070000D02*
X9295000Y-12090000D01*
X9297750Y-9100000D02*
X9317750Y-9120000D01*
X9317750Y-9100000D02*
X9297750Y-9120000D01*
X9302501Y-11417000D02*
X9322501Y-11437000D01*
X9322501Y-11417000D02*
X9302501Y-11437000D01*
X9305000Y-12355000D02*
X9325000Y-12375000D01*
X9325000Y-12355000D02*
X9305000Y-12375000D01*
X9309750Y-11623000D02*
X9329750Y-11643000D01*
X9329750Y-11623000D02*
X9309750Y-11643000D01*
X9351500Y-13341500D02*
X9371500Y-13361500D01*
X9371500Y-13341500D02*
X9351500Y-13361500D01*
X9355050Y-9650517D02*
X9375050Y-9670517D01*
X9375050Y-9650517D02*
X9355050Y-9670517D01*
X9410000Y-9882000D02*
X9430000Y-9902000D01*
X9430000Y-9882000D02*
X9410000Y-9902000D01*
X9433299Y-9031912D02*
X9453299Y-9051912D01*
X9453299Y-9031912D02*
X9433299Y-9051912D01*
X9455000Y-10010000D02*
X9475000Y-10030000D01*
X9475000Y-10010000D02*
X9455000Y-10030000D01*
X9456500Y-12151500D02*
X9476500Y-12171500D01*
X9476500Y-12151500D02*
X9456500Y-12171500D01*
X9497500Y-9949500D02*
X9517500Y-9969500D01*
X9517500Y-9949500D02*
X9497500Y-9969500D01*
X9552500Y-8695000D02*
X9572500Y-8715000D01*
X9572500Y-8695000D02*
X9552500Y-8715000D01*
X9570000Y-12510000D02*
X9590000Y-12530000D01*
X9590000Y-12510000D02*
X9570000Y-12530000D01*
X9590000Y-9080000D02*
X9610000Y-9100000D01*
X9610000Y-9080000D02*
X9590000Y-9100000D01*
X9590000Y-9139000D02*
X9610000Y-9159000D01*
X9610000Y-9139000D02*
X9590000Y-9159000D01*
X9595250Y-7740000D02*
X9615250Y-7760000D01*
X9615250Y-7740000D02*
X9595250Y-7760000D01*
X9615000Y-12205000D02*
X9635000Y-12225000D01*
X9635000Y-12205000D02*
X9615000Y-12225000D01*
X9631000Y-12845000D02*
X9651000Y-12865000D01*
X9651000Y-12845000D02*
X9631000Y-12865000D01*
X9632500Y-8285000D02*
X9652500Y-8305000D01*
X9652500Y-8285000D02*
X9632500Y-8305000D01*
X9651000Y-9228000D02*
X9671000Y-9248000D01*
X9671000Y-9228000D02*
X9651000Y-9248000D01*
X9651000Y-12382000D02*
X9671000Y-12402000D01*
X9671000Y-12382000D02*
X9651000Y-12402000D01*
X9653500Y-10253500D02*
X9673500Y-10273500D01*
X9673500Y-10253500D02*
X9653500Y-10273500D01*
X9655000Y-11522000D02*
X9675000Y-11542000D01*
X9675000Y-11522000D02*
X9655000Y-11542000D01*
X9658000Y-12527000D02*
X9678000Y-12547000D01*
X9678000Y-12527000D02*
X9658000Y-12547000D01*
X9679000Y-10324000D02*
X9699000Y-10344000D01*
X9699000Y-10324000D02*
X9679000Y-10344000D01*
X9697000Y-12172500D02*
X9717000Y-12192500D01*
X9717000Y-12172500D02*
X9697000Y-12192500D01*
X9702500Y-10402500D02*
X9722500Y-10422500D01*
X9722500Y-10402500D02*
X9702500Y-10422500D01*
X9741500Y-8530000D02*
X9761500Y-8550000D01*
X9761500Y-8530000D02*
X9741500Y-8550000D01*
X9758500Y-10341000D02*
X9778500Y-10361000D01*
X9778500Y-10341000D02*
X9758500Y-10361000D01*
X9781000Y-10417000D02*
X9801000Y-10437000D01*
X9801000Y-10417000D02*
X9781000Y-10437000D01*
X9817000Y-12510000D02*
X9837000Y-12530000D01*
X9837000Y-12510000D02*
X9817000Y-12530000D01*
X9845000Y-8980000D02*
X9865000Y-9000000D01*
X9865000Y-8980000D02*
X9845000Y-9000000D01*
X9860000Y-10435000D02*
X9880000Y-10455000D01*
X9880000Y-10435000D02*
X9860000Y-10455000D01*
X9861500Y-13341500D02*
X9881500Y-13361500D01*
X9881500Y-13341500D02*
X9861500Y-13361500D01*
X9865000Y-10525000D02*
X9885000Y-10545000D01*
X9885000Y-10525000D02*
X9865000Y-10545000D01*
X9870000Y-11980000D02*
X9890000Y-12000000D01*
X9890000Y-11980000D02*
X9870000Y-12000000D01*
X9891000Y-11157500D02*
X9911000Y-11177500D01*
X9911000Y-11157500D02*
X9891000Y-11177500D01*
X9920000Y-8915000D02*
X9940000Y-8935000D01*
X9940000Y-8915000D02*
X9920000Y-8935000D01*
X9937036Y-9481204D02*
X9957036Y-9501204D01*
X9957036Y-9481204D02*
X9937036Y-9501204D01*
X9960000Y-12360000D02*
X9980000Y-12380000D01*
X9980000Y-12360000D02*
X9960000Y-12380000D01*
X9980000Y-9252000D02*
X10000000Y-9272000D01*
X10000000Y-9252000D02*
X9980000Y-9272000D01*
X10028771Y-12274271D02*
X10048771Y-12294271D01*
X10048771Y-12274271D02*
X10028771Y-12294271D01*
X10045000Y-10525000D02*
X10065000Y-10545000D01*
X10065000Y-10525000D02*
X10045000Y-10545000D01*
X10051725Y-9478124D02*
X10071725Y-9498124D01*
X10071725Y-9478124D02*
X10051725Y-9498124D01*
X10062500Y-9084500D02*
X10082500Y-9104500D01*
X10082500Y-9084500D02*
X10062500Y-9104500D01*
X10065000Y-9179500D02*
X10085000Y-9199500D01*
X10085000Y-9179500D02*
X10065000Y-9199500D01*
X10068750Y-12196250D02*
X10088750Y-12216250D01*
X10088750Y-12196250D02*
X10068750Y-12216250D01*
X10090000Y-9249500D02*
X10110000Y-9269500D01*
X10110000Y-9249500D02*
X10090000Y-9269500D01*
X10114000Y-8659000D02*
X10134000Y-8679000D01*
X10134000Y-8659000D02*
X10114000Y-8679000D01*
X10114000Y-8715000D02*
X10134000Y-8735000D01*
X10134000Y-8715000D02*
X10114000Y-8735000D01*
X10127500Y-8126500D02*
X10147500Y-8146500D01*
X10147500Y-8126500D02*
X10127500Y-8146500D01*
X10127500Y-8331500D02*
X10147500Y-8351500D01*
X10147500Y-8331500D02*
X10127500Y-8351500D01*
X10135000Y-10080000D02*
X10155000Y-10100000D01*
X10155000Y-10080000D02*
X10135000Y-10100000D01*
X10137000Y-12845000D02*
X10157000Y-12865000D01*
X10157000Y-12845000D02*
X10137000Y-12865000D01*
X10156043Y-9582495D02*
X10176043Y-9602495D01*
X10176043Y-9582495D02*
X10156043Y-9602495D01*
X10157163Y-9477978D02*
X10177163Y-9497978D01*
X10177163Y-9477978D02*
X10157163Y-9497978D01*
X10173000Y-8659000D02*
X10193000Y-8679000D01*
X10193000Y-8659000D02*
X10173000Y-8679000D01*
X10173000Y-8715000D02*
X10193000Y-8735000D01*
X10193000Y-8715000D02*
X10173000Y-8735000D01*
X10190000Y-9044000D02*
X10210000Y-9064000D01*
X10210000Y-9044000D02*
X10190000Y-9064000D01*
X10190000Y-9105000D02*
X10210000Y-9125000D01*
X10210000Y-9105000D02*
X10190000Y-9125000D01*
X10207500Y-12197500D02*
X10227500Y-12217500D01*
X10227500Y-12197500D02*
X10207500Y-12217500D01*
X10227500Y-8126500D02*
X10247500Y-8146500D01*
X10247500Y-8126500D02*
X10227500Y-8146500D01*
X10227500Y-8331500D02*
X10247500Y-8351500D01*
X10247500Y-8331500D02*
X10227500Y-8351500D01*
X10232000Y-8659000D02*
X10252000Y-8679000D01*
X10252000Y-8659000D02*
X10232000Y-8679000D01*
X10232000Y-8715000D02*
X10252000Y-8735000D01*
X10252000Y-8715000D02*
X10232000Y-8735000D01*
X10235000Y-9619500D02*
X10255000Y-9639500D01*
X10255000Y-9619500D02*
X10235000Y-9639500D01*
X10249000Y-9044000D02*
X10269000Y-9064000D01*
X10269000Y-9044000D02*
X10249000Y-9064000D01*
X10249000Y-9105000D02*
X10269000Y-9125000D01*
X10269000Y-9105000D02*
X10249000Y-9125000D01*
X10260669Y-11176870D02*
X10280669Y-11196870D01*
X10280669Y-11176870D02*
X10260669Y-11196870D01*
X10262500Y-11102500D02*
X10282500Y-11122500D01*
X10282500Y-11102500D02*
X10262500Y-11122500D01*
X10270000Y-9984500D02*
X10290000Y-10004500D01*
X10290000Y-9984500D02*
X10270000Y-10004500D01*
X10300050Y-11423000D02*
X10320050Y-11443000D01*
X10320050Y-11423000D02*
X10300050Y-11443000D01*
X10306500Y-8522500D02*
X10326500Y-8542500D01*
X10326500Y-8522500D02*
X10306500Y-8542500D01*
X10310000Y-9044000D02*
X10330000Y-9064000D01*
X10330000Y-9044000D02*
X10310000Y-9064000D01*
X10310000Y-9105000D02*
X10330000Y-9125000D01*
X10330000Y-9105000D02*
X10310000Y-9125000D01*
X10333000Y-12526000D02*
X10353000Y-12546000D01*
X10353000Y-12526000D02*
X10333000Y-12546000D01*
X10337500Y-12197500D02*
X10357500Y-12217500D01*
X10357500Y-12197500D02*
X10337500Y-12217500D01*
X10352500Y-9904500D02*
X10372500Y-9924500D01*
X10372500Y-9904500D02*
X10352500Y-9924500D01*
X10355000Y-9982500D02*
X10375000Y-10002500D01*
X10375000Y-9982500D02*
X10355000Y-10002500D01*
X10359950Y-9607000D02*
X10379950Y-9627000D01*
X10379950Y-9607000D02*
X10359950Y-9627000D01*
X10363361Y-11449856D02*
X10383361Y-11469856D01*
X10383361Y-11449856D02*
X10363361Y-11469856D01*
X10376500Y-13341500D02*
X10396500Y-13361500D01*
X10396500Y-13341500D02*
X10376500Y-13361500D01*
X10430053Y-9014053D02*
X10450053Y-9034053D01*
X10450053Y-9014053D02*
X10430053Y-9034053D01*
X10440000Y-12056000D02*
X10460000Y-12076000D01*
X10460000Y-12056000D02*
X10440000Y-12076000D01*
X10444600Y-11664937D02*
X10464600Y-11684937D01*
X10464600Y-11664937D02*
X10444600Y-11684937D01*
X10455000Y-11197000D02*
X10475000Y-11217000D01*
X10475000Y-11197000D02*
X10455000Y-11217000D01*
X10467662Y-12197338D02*
X10487662Y-12217338D01*
X10487662Y-12197338D02*
X10467662Y-12217338D01*
X10499550Y-11717500D02*
X10519550Y-11737500D01*
X10519550Y-11717500D02*
X10499550Y-11737500D01*
X10502500Y-10907500D02*
X10522500Y-10927500D01*
X10522500Y-10907500D02*
X10502500Y-10927500D01*
X10507000Y-9590050D02*
X10527000Y-9610050D01*
X10527000Y-9590050D02*
X10507000Y-9610050D01*
X10523000Y-8670000D02*
X10543000Y-8690000D01*
X10543000Y-8670000D02*
X10523000Y-8690000D01*
X10535000Y-10172500D02*
X10555000Y-10192500D01*
X10555000Y-10172500D02*
X10535000Y-10192500D01*
X10555000Y-11375000D02*
X10575000Y-11395000D01*
X10575000Y-11375000D02*
X10555000Y-11395000D01*
X10560000Y-9880000D02*
X10580000Y-9900000D01*
X10580000Y-9880000D02*
X10560000Y-9900000D01*
X10560000Y-9983000D02*
X10580000Y-10003000D01*
X10580000Y-9983000D02*
X10560000Y-10003000D01*
X10560000Y-10082000D02*
X10580000Y-10102000D01*
X10580000Y-10082000D02*
X10560000Y-10102000D01*
X10565000Y-10932500D02*
X10585000Y-10952500D01*
X10585000Y-10932500D02*
X10565000Y-10952500D01*
X10590000Y-12523000D02*
X10610000Y-12543000D01*
X10610000Y-12523000D02*
X10590000Y-12543000D01*
X10608000Y-11816000D02*
X10628000Y-11836000D01*
X10628000Y-11816000D02*
X10608000Y-11836000D01*
X10615000Y-9400000D02*
X10635000Y-9420000D01*
X10635000Y-9400000D02*
X10615000Y-9420000D01*
X10625000Y-12845000D02*
X10645000Y-12865000D01*
X10645000Y-12845000D02*
X10625000Y-12865000D01*
X10640500Y-11938548D02*
X10660500Y-11958548D01*
X10660500Y-11938548D02*
X10640500Y-11958548D01*
X10670000Y-8805000D02*
X10690000Y-8825000D01*
X10690000Y-8805000D02*
X10670000Y-8825000D01*
X10670000Y-8867500D02*
X10690000Y-8887500D01*
X10690000Y-8867500D02*
X10670000Y-8887500D01*
X10670000Y-8930000D02*
X10690000Y-8950000D01*
X10690000Y-8930000D02*
X10670000Y-8950000D01*
X10670000Y-8992500D02*
X10690000Y-9012500D01*
X10690000Y-8992500D02*
X10670000Y-9012500D01*
X10670000Y-9057500D02*
X10690000Y-9077500D01*
X10690000Y-9057500D02*
X10670000Y-9077500D01*
X10670000Y-9122500D02*
X10690000Y-9142500D01*
X10690000Y-9122500D02*
X10670000Y-9142500D01*
X10686000Y-12522000D02*
X10706000Y-12542000D01*
X10706000Y-12522000D02*
X10686000Y-12542000D01*
X10705500Y-12061048D02*
X10725500Y-12081048D01*
X10725500Y-12061048D02*
X10705500Y-12081048D01*
X10726000Y-11254000D02*
X10746000Y-11274000D01*
X10746000Y-11254000D02*
X10726000Y-11274000D01*
X10730000Y-9880000D02*
X10750000Y-9900000D01*
X10750000Y-9880000D02*
X10730000Y-9900000D01*
X10776000Y-11294000D02*
X10796000Y-11314000D01*
X10796000Y-11294000D02*
X10776000Y-11314000D01*
X10776000Y-11349000D02*
X10796000Y-11369000D01*
X10796000Y-11349000D02*
X10776000Y-11369000D01*
X10776000Y-11404000D02*
X10796000Y-11424000D01*
X10796000Y-11404000D02*
X10776000Y-11424000D01*
X10776000Y-11459000D02*
X10796000Y-11479000D01*
X10796000Y-11459000D02*
X10776000Y-11479000D01*
X10791500Y-7738500D02*
X10811500Y-7758500D01*
X10811500Y-7738500D02*
X10791500Y-7758500D01*
X10813000Y-10288000D02*
X10833000Y-10308000D01*
X10833000Y-10288000D02*
X10813000Y-10308000D01*
X10820274Y-10830685D02*
X10840274Y-10850685D01*
X10840274Y-10830685D02*
X10820274Y-10850685D01*
X10825000Y-9645000D02*
X10845000Y-9665000D01*
X10845000Y-9645000D02*
X10825000Y-9665000D01*
X10833000Y-12061048D02*
X10853000Y-12081048D01*
X10853000Y-12061048D02*
X10833000Y-12081048D01*
X10844000Y-12519000D02*
X10864000Y-12539000D01*
X10864000Y-12519000D02*
X10844000Y-12539000D01*
X10855000Y-8955000D02*
X10875000Y-8975000D01*
X10875000Y-8955000D02*
X10855000Y-8975000D01*
X10855250Y-11370000D02*
X10875250Y-11390000D01*
X10875250Y-11370000D02*
X10855250Y-11390000D01*
X10880000Y-9645000D02*
X10900000Y-9665000D01*
X10900000Y-9645000D02*
X10880000Y-9665000D01*
X10880000Y-9700000D02*
X10900000Y-9720000D01*
X10900000Y-9700000D02*
X10880000Y-9720000D01*
X10880000Y-9755000D02*
X10900000Y-9775000D01*
X10900000Y-9755000D02*
X10880000Y-9775000D01*
X10881500Y-7807500D02*
X10901500Y-7827500D01*
X10901500Y-7807500D02*
X10881500Y-7827500D01*
X10883000Y-11538000D02*
X10903000Y-11558000D01*
X10903000Y-11538000D02*
X10883000Y-11558000D01*
X10883000Y-11628548D02*
X10903000Y-11648548D01*
X10903000Y-11628548D02*
X10883000Y-11648548D01*
X10883000Y-11733548D02*
X10903000Y-11753548D01*
X10903000Y-11733548D02*
X10883000Y-11753548D01*
X10890000Y-9515000D02*
X10910000Y-9535000D01*
X10910000Y-9515000D02*
X10890000Y-9535000D01*
X10890000Y-10920000D02*
X10910000Y-10940000D01*
X10910000Y-10920000D02*
X10890000Y-10940000D01*
X10890500Y-11953548D02*
X10910500Y-11973548D01*
X10910500Y-11953548D02*
X10890500Y-11973548D01*
X10895550Y-11883548D02*
X10915550Y-11903548D01*
X10915550Y-11883548D02*
X10895550Y-11903548D01*
X10930000Y-8790000D02*
X10950000Y-8810000D01*
X10950000Y-8790000D02*
X10930000Y-8810000D01*
X10930000Y-12320000D02*
X10950000Y-12340000D01*
X10950000Y-12320000D02*
X10930000Y-12340000D01*
X10956000Y-12233000D02*
X10976000Y-12253000D01*
X10976000Y-12233000D02*
X10956000Y-12253000D01*
X10964500Y-9699500D02*
X10984500Y-9719500D01*
X10984500Y-9699500D02*
X10964500Y-9719500D01*
X11001000Y-9841000D02*
X11021000Y-9861000D01*
X11021000Y-9841000D02*
X11001000Y-9861000D01*
X11015250Y-12502500D02*
X11035250Y-12522500D01*
X11035250Y-12502500D02*
X11015250Y-12522500D01*
X11032000Y-9501000D02*
X11052000Y-9521000D01*
X11052000Y-9501000D02*
X11032000Y-9521000D01*
X11035000Y-8790000D02*
X11055000Y-8810000D01*
X11055000Y-8790000D02*
X11035000Y-8810000D01*
X11035000Y-9026450D02*
X11055000Y-9046450D01*
X11055000Y-9026450D02*
X11035000Y-9046450D01*
X11048000Y-10516000D02*
X11068000Y-10536000D01*
X11068000Y-10516000D02*
X11048000Y-10536000D01*
X11048000Y-10722000D02*
X11068000Y-10742000D01*
X11068000Y-10722000D02*
X11048000Y-10742000D01*
X11050000Y-10413000D02*
X11070000Y-10433000D01*
X11070000Y-10413000D02*
X11050000Y-10433000D01*
X11050000Y-10626000D02*
X11070000Y-10646000D01*
X11070000Y-10626000D02*
X11050000Y-10646000D01*
X11055000Y-12590000D02*
X11075000Y-12610000D01*
X11075000Y-12590000D02*
X11055000Y-12610000D01*
X11057500Y-12147000D02*
X11077500Y-12167000D01*
X11077500Y-12147000D02*
X11057500Y-12167000D01*
X11071405Y-10288741D02*
X11091405Y-10308741D01*
X11091405Y-10288741D02*
X11071405Y-10308741D01*
X11085000Y-9870000D02*
X11105000Y-9890000D01*
X11105000Y-9870000D02*
X11085000Y-9890000D01*
X11085000Y-10834500D02*
X11105000Y-10854500D01*
X11105000Y-10834500D02*
X11085000Y-10854500D01*
X11092500Y-8160000D02*
X11112500Y-8180000D01*
X11112500Y-8160000D02*
X11092500Y-8180000D01*
X11114000Y-11600000D02*
X11134000Y-11620000D01*
X11134000Y-11600000D02*
X11114000Y-11620000D01*
X11125000Y-12092000D02*
X11145000Y-12112000D01*
X11145000Y-12092000D02*
X11125000Y-12112000D01*
X11126000Y-12003000D02*
X11146000Y-12023000D01*
X11146000Y-12003000D02*
X11126000Y-12023000D01*
X11137500Y-11332000D02*
X11157500Y-11352000D01*
X11157500Y-11332000D02*
X11137500Y-11352000D01*
X11138500Y-7807500D02*
X11158500Y-7827500D01*
X11158500Y-7807500D02*
X11138500Y-7827500D01*
X11140000Y-8790000D02*
X11160000Y-8810000D01*
X11160000Y-8790000D02*
X11140000Y-8810000D01*
X11190250Y-10840000D02*
X11210250Y-10860000D01*
X11210250Y-10840000D02*
X11190250Y-10860000D01*
X11205000Y-11847000D02*
X11225000Y-11867000D01*
X11225000Y-11847000D02*
X11205000Y-11867000D01*
X11245000Y-8790000D02*
X11265000Y-8810000D01*
X11265000Y-8790000D02*
X11245000Y-8810000D01*
X11245000Y-9026450D02*
X11265000Y-9046450D01*
X11265000Y-9026450D02*
X11245000Y-9046450D01*
X11250000Y-12755000D02*
X11270000Y-12775000D01*
X11270000Y-12755000D02*
X11250000Y-12775000D01*
X11263500Y-7807500D02*
X11283500Y-7827500D01*
X11283500Y-7807500D02*
X11263500Y-7827500D01*
X11275000Y-10857000D02*
X11295000Y-10877000D01*
X11295000Y-10857000D02*
X11275000Y-10877000D01*
X11280000Y-12985000D02*
X11300000Y-13005000D01*
X11300000Y-12985000D02*
X11280000Y-13005000D01*
X11290000Y-11660000D02*
X11310000Y-11680000D01*
X11310000Y-11660000D02*
X11290000Y-11680000D01*
X11335000Y-11847000D02*
X11355000Y-11867000D01*
X11355000Y-11847000D02*
X11335000Y-11867000D01*
X11345000Y-12772000D02*
X11365000Y-12792000D01*
X11365000Y-12772000D02*
X11345000Y-12792000D01*
X11347000Y-9177000D02*
X11367000Y-9197000D01*
X11367000Y-9177000D02*
X11347000Y-9197000D01*
X11347500Y-11332000D02*
X11367500Y-11352000D01*
X11367500Y-11332000D02*
X11347500Y-11352000D01*
X11350000Y-8790000D02*
X11370000Y-8810000D01*
X11370000Y-8790000D02*
X11350000Y-8810000D01*
X11350000Y-9025450D02*
X11370000Y-9045450D01*
X11370000Y-9025450D02*
X11350000Y-9045450D01*
X11350000Y-12977000D02*
X11370000Y-12997000D01*
X11370000Y-12977000D02*
X11350000Y-12997000D01*
X11375000Y-9575000D02*
X11395000Y-9595000D01*
X11395000Y-9575000D02*
X11375000Y-9595000D01*
X11385000Y-11660000D02*
X11405000Y-11680000D01*
X11405000Y-11660000D02*
X11385000Y-11680000D01*
X11388500Y-7807500D02*
X11408500Y-7827500D01*
X11408500Y-7807500D02*
X11388500Y-7827500D01*
X11416644Y-12541981D02*
X11436644Y-12561981D01*
X11436644Y-12541981D02*
X11416644Y-12561981D01*
X11435000Y-8980000D02*
X11455000Y-9000000D01*
X11455000Y-8980000D02*
X11435000Y-9000000D01*
X11450000Y-8630000D02*
X11470000Y-8650000D01*
X11470000Y-8630000D02*
X11450000Y-8650000D01*
X11450000Y-8690000D02*
X11470000Y-8710000D01*
X11470000Y-8690000D02*
X11450000Y-8710000D01*
X11450000Y-8747500D02*
X11470000Y-8767500D01*
X11470000Y-8747500D02*
X11450000Y-8767500D01*
X11455000Y-12972000D02*
X11475000Y-12992000D01*
X11475000Y-12972000D02*
X11455000Y-12992000D01*
X11465000Y-11847000D02*
X11485000Y-11867000D01*
X11485000Y-11847000D02*
X11465000Y-11867000D01*
X11510000Y-8630000D02*
X11530000Y-8650000D01*
X11530000Y-8630000D02*
X11510000Y-8650000D01*
X11525000Y-10515000D02*
X11545000Y-10535000D01*
X11545000Y-10515000D02*
X11525000Y-10535000D01*
X11525000Y-10860000D02*
X11545000Y-10880000D01*
X11545000Y-10860000D02*
X11525000Y-10880000D01*
X11530000Y-11330000D02*
X11550000Y-11350000D01*
X11550000Y-11330000D02*
X11530000Y-11350000D01*
X11550000Y-12541000D02*
X11570000Y-12561000D01*
X11570000Y-12541000D02*
X11550000Y-12561000D01*
X11550000Y-12972000D02*
X11570000Y-12992000D01*
X11570000Y-12972000D02*
X11550000Y-12992000D01*
X11570000Y-8630000D02*
X11590000Y-8650000D01*
X11590000Y-8630000D02*
X11570000Y-8650000D01*
X11615000Y-9140000D02*
X11635000Y-9160000D01*
X11635000Y-9140000D02*
X11615000Y-9160000D01*
X11635000Y-9032000D02*
X11655000Y-9052000D01*
X11655000Y-9032000D02*
X11635000Y-9052000D01*
X11640000Y-12760000D02*
X11660000Y-12780000D01*
X11660000Y-12760000D02*
X11640000Y-12780000D01*
X11645000Y-10467000D02*
X11665000Y-10487000D01*
X11665000Y-10467000D02*
X11645000Y-10487000D01*
X11655000Y-11365000D02*
X11675000Y-11385000D01*
X11675000Y-11365000D02*
X11655000Y-11385000D01*
X11656750Y-7738500D02*
X11676750Y-7758500D01*
X11676750Y-7738500D02*
X11656750Y-7758500D01*
X11660000Y-12247000D02*
X11680000Y-12267000D01*
X11680000Y-12247000D02*
X11660000Y-12267000D01*
X11685000Y-8676500D02*
X11705000Y-8696500D01*
X11705000Y-8676500D02*
X11685000Y-8696500D01*
X11685000Y-8829000D02*
X11705000Y-8849000D01*
X11705000Y-8829000D02*
X11685000Y-8849000D01*
X11685000Y-9557500D02*
X11705000Y-9577500D01*
X11705000Y-9557500D02*
X11685000Y-9577500D01*
X11685000Y-9710000D02*
X11705000Y-9730000D01*
X11705000Y-9710000D02*
X11685000Y-9730000D01*
X11691000Y-10114500D02*
X11711000Y-10134500D01*
X11711000Y-10114500D02*
X11691000Y-10134500D01*
X11691000Y-10267000D02*
X11711000Y-10287000D01*
X11711000Y-10267000D02*
X11691000Y-10287000D01*
X11820000Y-11440000D02*
X11840000Y-11460000D01*
X11840000Y-11440000D02*
X11820000Y-11460000D01*
X11887500Y-8676500D02*
X11907500Y-8696500D01*
X11907500Y-8676500D02*
X11887500Y-8696500D01*
X11887500Y-8829000D02*
X11907500Y-8849000D01*
X11907500Y-8829000D02*
X11887500Y-8849000D01*
X11887500Y-9557500D02*
X11907500Y-9577500D01*
X11907500Y-9557500D02*
X11887500Y-9577500D01*
X11887500Y-9710000D02*
X11907500Y-9730000D01*
X11907500Y-9710000D02*
X11887500Y-9730000D01*
X11890500Y-10994500D02*
X11910500Y-11014500D01*
X11910500Y-10994500D02*
X11890500Y-11014500D01*
X11893500Y-10114500D02*
X11913500Y-10134500D01*
X11913500Y-10114500D02*
X11893500Y-10134500D01*
X11893500Y-10267000D02*
X11913500Y-10287000D01*
X11913500Y-10267000D02*
X11893500Y-10287000D01*
X11900000Y-12307000D02*
X11920000Y-12327000D01*
X11920000Y-12307000D02*
X11900000Y-12327000D01*
X11910000Y-11365000D02*
X11930000Y-11385000D01*
X11930000Y-11365000D02*
X11910000Y-11385000D01*
X11930000Y-9043049D02*
X11950000Y-9063049D01*
X11950000Y-9043049D02*
X11930000Y-9063049D01*
X11945000Y-10472000D02*
X11965000Y-10492000D01*
X11965000Y-10472000D02*
X11945000Y-10492000D01*
X11955000Y-13330000D02*
X11975000Y-13350000D01*
X11975000Y-13330000D02*
X11955000Y-13350000D01*
X11965000Y-11415000D02*
X11985000Y-11435000D01*
X11985000Y-11415000D02*
X11965000Y-11435000D01*
X11987500Y-11830000D02*
X12007500Y-11850000D01*
X12007500Y-11830000D02*
X11987500Y-11850000D01*
X11995000Y-11295000D02*
X12015000Y-11315000D01*
X12015000Y-11295000D02*
X11995000Y-11315000D01*
X12055000Y-12307000D02*
X12075000Y-12327000D01*
X12075000Y-12307000D02*
X12055000Y-12327000D01*
X12069552Y-12137552D02*
X12089552Y-12157552D01*
X12089552Y-12137552D02*
X12069552Y-12157552D01*
X12070000Y-12207000D02*
X12090000Y-12227000D01*
X12090000Y-12207000D02*
X12070000Y-12227000D01*
X12142500Y-10037000D02*
X12162500Y-10057000D01*
X12162500Y-10037000D02*
X12142500Y-10057000D01*
X12145250Y-7740000D02*
X12165250Y-7760000D01*
X12165250Y-7740000D02*
X12145250Y-7760000D01*
X12160000Y-11475000D02*
X12180000Y-11495000D01*
X12180000Y-11475000D02*
X12160000Y-11495000D01*
X12235000Y-8676500D02*
X12255000Y-8696500D01*
X12255000Y-8676500D02*
X12235000Y-8696500D01*
X12235000Y-8829000D02*
X12255000Y-8849000D01*
X12255000Y-8829000D02*
X12235000Y-8849000D01*
X12235000Y-9556500D02*
X12255000Y-9576500D01*
X12255000Y-9556500D02*
X12235000Y-9576500D01*
X12235000Y-9709000D02*
X12255000Y-9729000D01*
X12255000Y-9709000D02*
X12235000Y-9729000D01*
X12241000Y-10114500D02*
X12261000Y-10134500D01*
X12261000Y-10114500D02*
X12241000Y-10134500D01*
X12241000Y-10267000D02*
X12261000Y-10287000D01*
X12261000Y-10267000D02*
X12241000Y-10287000D01*
X12241000Y-10993500D02*
X12261000Y-11013500D01*
X12261000Y-10993500D02*
X12241000Y-11013500D01*
X12241000Y-11146000D02*
X12261000Y-11166000D01*
X12261000Y-11146000D02*
X12241000Y-11166000D01*
X12245250Y-12415000D02*
X12265250Y-12435000D01*
X12265250Y-12415000D02*
X12245250Y-12435000D01*
X12262500Y-12107000D02*
X12282500Y-12127000D01*
X12282500Y-12107000D02*
X12262500Y-12127000D01*
X12267548Y-12207000D02*
X12287548Y-12227000D01*
X12287548Y-12207000D02*
X12267548Y-12227000D01*
X12270000Y-11907000D02*
X12290000Y-11927000D01*
X12290000Y-11907000D02*
X12270000Y-11927000D01*
X12270000Y-12007000D02*
X12290000Y-12027000D01*
X12290000Y-12007000D02*
X12270000Y-12027000D01*
X12437500Y-8676500D02*
X12457500Y-8696500D01*
X12457500Y-8676500D02*
X12437500Y-8696500D01*
X12437500Y-8829000D02*
X12457500Y-8849000D01*
X12457500Y-8829000D02*
X12437500Y-8849000D01*
X12437500Y-9556500D02*
X12457500Y-9576500D01*
X12457500Y-9556500D02*
X12437500Y-9576500D01*
X12437500Y-9709000D02*
X12457500Y-9729000D01*
X12457500Y-9709000D02*
X12437500Y-9729000D01*
X12443500Y-10114500D02*
X12463500Y-10134500D01*
X12463500Y-10114500D02*
X12443500Y-10134500D01*
X12443500Y-10267000D02*
X12463500Y-10287000D01*
X12463500Y-10267000D02*
X12443500Y-10287000D01*
X12443500Y-10993500D02*
X12463500Y-11013500D01*
X12463500Y-10993500D02*
X12443500Y-11013500D01*
X12443500Y-11146000D02*
X12463500Y-11166000D01*
X12463500Y-11146000D02*
X12443500Y-11166000D01*
X12495250Y-7915000D02*
X12515250Y-7935000D01*
X12515250Y-7915000D02*
X12495250Y-7935000D01*
X12645000Y-8555000D02*
X12665000Y-8575000D01*
X12665000Y-8555000D02*
X12645000Y-8575000D01*
X12645250Y-8265000D02*
X12665250Y-8285000D01*
X12665250Y-8265000D02*
X12645250Y-8285000D01*
D13*
X7762500Y-10093000D02*
G75*
G03*
X7762500Y-10093000I-42500J0D01*
G01*
X7762500Y-10343000D02*
G75*
G03*
X7762500Y-10343000I-42500J0D01*
G01*
X7762500Y-10593000D02*
G75*
G03*
X7762500Y-10593000I-42500J0D01*
G01*
X7762500Y-10843000D02*
G75*
G03*
X7762500Y-10843000I-42500J0D01*
G01*
X7762500Y-11093000D02*
G75*
G03*
X7762500Y-11093000I-42500J0D01*
G01*
X7762500Y-11343000D02*
G75*
G03*
X7762500Y-11343000I-42500J0D01*
G01*
X7762500Y-11593000D02*
G75*
G03*
X7762500Y-11593000I-42500J0D01*
G01*
D14*
X9005500Y-12710000D02*
X9005500Y-12810000D01*
X8955500Y-12760000D02*
X9055500Y-12760000D01*
X9006500Y-12961000D02*
X9006500Y-13061000D01*
X8956500Y-13011000D02*
X9056500Y-13011000D01*
X9006500Y-13215000D02*
X9006500Y-13315000D01*
X8956500Y-13265000D02*
X9056500Y-13265000D01*
X9259500Y-12710000D02*
X9259500Y-12810000D01*
X9209500Y-12760000D02*
X9309500Y-12760000D01*
X9260500Y-12961000D02*
X9260500Y-13061000D01*
X9210500Y-13011000D02*
X9310500Y-13011000D01*
X9260500Y-13215000D02*
X9260500Y-13315000D01*
X9210500Y-13265000D02*
X9310500Y-13265000D01*
X9513500Y-12710000D02*
X9513500Y-12810000D01*
X9463500Y-12760000D02*
X9563500Y-12760000D01*
X9514500Y-12961000D02*
X9514500Y-13061000D01*
X9464500Y-13011000D02*
X9564500Y-13011000D01*
X9514500Y-13215000D02*
X9514500Y-13315000D01*
X9464500Y-13265000D02*
X9564500Y-13265000D01*
X9767500Y-12710000D02*
X9767500Y-12810000D01*
X9717500Y-12760000D02*
X9817500Y-12760000D01*
X9768500Y-12961000D02*
X9768500Y-13061000D01*
X9718500Y-13011000D02*
X9818500Y-13011000D01*
X9768500Y-13215000D02*
X9768500Y-13315000D01*
X9718500Y-13265000D02*
X9818500Y-13265000D01*
X9830000Y-8243000D02*
X9830000Y-8343000D01*
X9780000Y-8293000D02*
X9880000Y-8293000D01*
X10021500Y-12710000D02*
X10021500Y-12810000D01*
X9971500Y-12760000D02*
X10071500Y-12760000D01*
X10022500Y-12961000D02*
X10022500Y-13061000D01*
X9972500Y-13011000D02*
X10072500Y-13011000D01*
X10022500Y-13215000D02*
X10022500Y-13315000D01*
X9972500Y-13265000D02*
X10072500Y-13265000D01*
X10275500Y-12710000D02*
X10275500Y-12810000D01*
X10225500Y-12760000D02*
X10325500Y-12760000D01*
X10276500Y-12961000D02*
X10276500Y-13061000D01*
X10226500Y-13011000D02*
X10326500Y-13011000D01*
X10276500Y-13215000D02*
X10276500Y-13315000D01*
X10226500Y-13265000D02*
X10326500Y-13265000D01*
X10529500Y-12710000D02*
X10529500Y-12810000D01*
X10479500Y-12760000D02*
X10579500Y-12760000D01*
X10530500Y-12961000D02*
X10530500Y-13061000D01*
X10480500Y-13011000D02*
X10580500Y-13011000D01*
X10530500Y-13215000D02*
X10530500Y-13315000D01*
X10480500Y-13265000D02*
X10580500Y-13265000D01*
X10630000Y-8243000D02*
X10630000Y-8343000D01*
X10580000Y-8293000D02*
X10680000Y-8293000D01*
X10783500Y-12710000D02*
X10783500Y-12810000D01*
X10733500Y-12760000D02*
X10833500Y-12760000D01*
X10784500Y-12961000D02*
X10784500Y-13061000D01*
X10734500Y-13011000D02*
X10834500Y-13011000D01*
X10784500Y-13215000D02*
X10784500Y-13315000D01*
X10734500Y-13265000D02*
X10834500Y-13265000D01*
D15*
X7713138Y-8415138D02*
X7713138Y-8188862D01*
X7486862Y-8188862D01*
X7486862Y-8415138D01*
X7713138Y-8415138D01*
X7713138Y-12915138D02*
X7713138Y-12688862D01*
X7486862Y-12688862D01*
X7486862Y-12915138D01*
X7713138Y-12915138D01*
X12213138Y-8415138D02*
X12213138Y-8188862D01*
X11986862Y-8188862D01*
X11986862Y-8415138D01*
X12213138Y-8415138D01*
X12213138Y-12915138D02*
X12213138Y-12688862D01*
X11986862Y-12688862D01*
X11986862Y-12915138D01*
X12213138Y-12915138D01*
D11*
X7252603Y-13717476D02*
X7252603Y-13517476D01*
X7300222Y-13517476D01*
X7328794Y-13527000D01*
X7347841Y-13546048D01*
X7357365Y-13565095D01*
X7366889Y-13603190D01*
X7366889Y-13631762D01*
X7357365Y-13669857D01*
X7347841Y-13688905D01*
X7328794Y-13707952D01*
X7300222Y-13717476D01*
X7252603Y-13717476D01*
X7452603Y-13717476D02*
X7452603Y-13584143D01*
X7452603Y-13622238D02*
X7462127Y-13603190D01*
X7471651Y-13593667D01*
X7490699Y-13584143D01*
X7509746Y-13584143D01*
X7576413Y-13717476D02*
X7576413Y-13584143D01*
X7576413Y-13517476D02*
X7566889Y-13527000D01*
X7576413Y-13536524D01*
X7585937Y-13527000D01*
X7576413Y-13517476D01*
X7576413Y-13536524D01*
X7700222Y-13717476D02*
X7681175Y-13707952D01*
X7671651Y-13688905D01*
X7671651Y-13517476D01*
X7804984Y-13717476D02*
X7785937Y-13707952D01*
X7776413Y-13688905D01*
X7776413Y-13517476D01*
X8033556Y-13717476D02*
X8033556Y-13517476D01*
X8100222Y-13660333D01*
X8166889Y-13517476D01*
X8166889Y-13717476D01*
X8347841Y-13717476D02*
X8347841Y-13612714D01*
X8338318Y-13593667D01*
X8319270Y-13584143D01*
X8281175Y-13584143D01*
X8262127Y-13593667D01*
X8347841Y-13707952D02*
X8328794Y-13717476D01*
X8281175Y-13717476D01*
X8262127Y-13707952D01*
X8252603Y-13688905D01*
X8252603Y-13669857D01*
X8262127Y-13650809D01*
X8281175Y-13641286D01*
X8328794Y-13641286D01*
X8347841Y-13631762D01*
X8443080Y-13584143D02*
X8443080Y-13784143D01*
X8443080Y-13593667D02*
X8462127Y-13584143D01*
X8500222Y-13584143D01*
X8519270Y-13593667D01*
X8528794Y-13603190D01*
X8538318Y-13622238D01*
X8538318Y-13679381D01*
X8528794Y-13698428D01*
X8519270Y-13707952D01*
X8500222Y-13717476D01*
X8462127Y-13717476D01*
X8443080Y-13707952D01*
X8624032Y-13698428D02*
X8633556Y-13707952D01*
X8624032Y-13717476D01*
X8614508Y-13707952D01*
X8624032Y-13698428D01*
X8624032Y-13717476D01*
X8624032Y-13593667D02*
X8633556Y-13603190D01*
X8624032Y-13612714D01*
X8614508Y-13603190D01*
X8624032Y-13593667D01*
X8624032Y-13612714D01*
D12*
X6974984Y-14037000D02*
X6994984Y-14057000D01*
X6994984Y-14037000D02*
X6974984Y-14057000D01*
D11*
X7290699Y-13937476D02*
X7309746Y-13937476D01*
X7328794Y-13947000D01*
X7338318Y-13956524D01*
X7347841Y-13975571D01*
X7357365Y-14013667D01*
X7357365Y-14061286D01*
X7347841Y-14099381D01*
X7338318Y-14118428D01*
X7328794Y-14127952D01*
X7309746Y-14137476D01*
X7290699Y-14137476D01*
X7271651Y-14127952D01*
X7262127Y-14118428D01*
X7252603Y-14099381D01*
X7243080Y-14061286D01*
X7243080Y-14013667D01*
X7252603Y-13975571D01*
X7262127Y-13956524D01*
X7271651Y-13947000D01*
X7290699Y-13937476D01*
X7443080Y-14118428D02*
X7452603Y-14127952D01*
X7443080Y-14137476D01*
X7433556Y-14127952D01*
X7443080Y-14118428D01*
X7443080Y-14137476D01*
X7528794Y-13956524D02*
X7538318Y-13947000D01*
X7557365Y-13937476D01*
X7604984Y-13937476D01*
X7624032Y-13947000D01*
X7633556Y-13956524D01*
X7643080Y-13975571D01*
X7643080Y-13994619D01*
X7633556Y-14023190D01*
X7519270Y-14137476D01*
X7643080Y-14137476D01*
X7766889Y-13937476D02*
X7785937Y-13937476D01*
X7804984Y-13947000D01*
X7814508Y-13956524D01*
X7824032Y-13975571D01*
X7833556Y-14013667D01*
X7833556Y-14061286D01*
X7824032Y-14099381D01*
X7814508Y-14118428D01*
X7804984Y-14127952D01*
X7785937Y-14137476D01*
X7766889Y-14137476D01*
X7747841Y-14127952D01*
X7738318Y-14118428D01*
X7728794Y-14099381D01*
X7719270Y-14061286D01*
X7719270Y-14013667D01*
X7728794Y-13975571D01*
X7738318Y-13956524D01*
X7747841Y-13947000D01*
X7766889Y-13937476D01*
X7957365Y-13937476D02*
X7976413Y-13937476D01*
X7995460Y-13947000D01*
X8004984Y-13956524D01*
X8014508Y-13975571D01*
X8024032Y-14013667D01*
X8024032Y-14061286D01*
X8014508Y-14099381D01*
X8004984Y-14118428D01*
X7995460Y-14127952D01*
X7976413Y-14137476D01*
X7957365Y-14137476D01*
X7938318Y-14127952D01*
X7928794Y-14118428D01*
X7919270Y-14099381D01*
X7909746Y-14061286D01*
X7909746Y-14013667D01*
X7919270Y-13975571D01*
X7928794Y-13956524D01*
X7938318Y-13947000D01*
X7957365Y-13937476D01*
X8109746Y-14137476D02*
X8109746Y-14004143D01*
X8109746Y-14023190D02*
X8119270Y-14013667D01*
X8138318Y-14004143D01*
X8166889Y-14004143D01*
X8185937Y-14013667D01*
X8195460Y-14032714D01*
X8195460Y-14137476D01*
X8195460Y-14032714D02*
X8204984Y-14013667D01*
X8224032Y-14004143D01*
X8252603Y-14004143D01*
X8271651Y-14013667D01*
X8281175Y-14032714D01*
X8281175Y-14137476D01*
X8376413Y-14137476D02*
X8376413Y-14004143D01*
X8376413Y-14023190D02*
X8385937Y-14013667D01*
X8404984Y-14004143D01*
X8433556Y-14004143D01*
X8452603Y-14013667D01*
X8462127Y-14032714D01*
X8462127Y-14137476D01*
X8462127Y-14032714D02*
X8471651Y-14013667D01*
X8490699Y-14004143D01*
X8519270Y-14004143D01*
X8538318Y-14013667D01*
X8547842Y-14032714D01*
X8547842Y-14137476D01*
X8938318Y-13927952D02*
X8766889Y-14185095D01*
X9195461Y-13937476D02*
X9214508Y-13937476D01*
X9233556Y-13947000D01*
X9243080Y-13956524D01*
X9252603Y-13975571D01*
X9262127Y-14013667D01*
X9262127Y-14061286D01*
X9252603Y-14099381D01*
X9243080Y-14118428D01*
X9233556Y-14127952D01*
X9214508Y-14137476D01*
X9195461Y-14137476D01*
X9176413Y-14127952D01*
X9166889Y-14118428D01*
X9157365Y-14099381D01*
X9147842Y-14061286D01*
X9147842Y-14013667D01*
X9157365Y-13975571D01*
X9166889Y-13956524D01*
X9176413Y-13947000D01*
X9195461Y-13937476D01*
X9347842Y-14118428D02*
X9357365Y-14127952D01*
X9347842Y-14137476D01*
X9338318Y-14127952D01*
X9347842Y-14118428D01*
X9347842Y-14137476D01*
X9481175Y-13937476D02*
X9500222Y-13937476D01*
X9519270Y-13947000D01*
X9528794Y-13956524D01*
X9538318Y-13975571D01*
X9547842Y-14013667D01*
X9547842Y-14061286D01*
X9538318Y-14099381D01*
X9528794Y-14118428D01*
X9519270Y-14127952D01*
X9500222Y-14137476D01*
X9481175Y-14137476D01*
X9462127Y-14127952D01*
X9452603Y-14118428D01*
X9443080Y-14099381D01*
X9433556Y-14061286D01*
X9433556Y-14013667D01*
X9443080Y-13975571D01*
X9452603Y-13956524D01*
X9462127Y-13947000D01*
X9481175Y-13937476D01*
X9671651Y-13937476D02*
X9690699Y-13937476D01*
X9709746Y-13947000D01*
X9719270Y-13956524D01*
X9728794Y-13975571D01*
X9738318Y-14013667D01*
X9738318Y-14061286D01*
X9728794Y-14099381D01*
X9719270Y-14118428D01*
X9709746Y-14127952D01*
X9690699Y-14137476D01*
X9671651Y-14137476D01*
X9652603Y-14127952D01*
X9643080Y-14118428D01*
X9633556Y-14099381D01*
X9624032Y-14061286D01*
X9624032Y-14013667D01*
X9633556Y-13975571D01*
X9643080Y-13956524D01*
X9652603Y-13947000D01*
X9671651Y-13937476D01*
X9804984Y-13937476D02*
X9938318Y-13937476D01*
X9852603Y-14137476D01*
X10024032Y-14137476D02*
X10062127Y-14137476D01*
X10081175Y-14127952D01*
X10090699Y-14118428D01*
X10109746Y-14089857D01*
X10119270Y-14051762D01*
X10119270Y-13975571D01*
X10109746Y-13956524D01*
X10100222Y-13947000D01*
X10081175Y-13937476D01*
X10043080Y-13937476D01*
X10024032Y-13947000D01*
X10014508Y-13956524D01*
X10004984Y-13975571D01*
X10004984Y-14023190D01*
X10014508Y-14042238D01*
X10024032Y-14051762D01*
X10043080Y-14061286D01*
X10081175Y-14061286D01*
X10100222Y-14051762D01*
X10109746Y-14042238D01*
X10119270Y-14023190D01*
X10195461Y-13937476D02*
X10195461Y-13975571D01*
X10271651Y-13937476D02*
X10271651Y-13975571D01*
X10566889Y-14213667D02*
X10557365Y-14204143D01*
X10538318Y-14175571D01*
X10528794Y-14156524D01*
X10519270Y-14127952D01*
X10509746Y-14080333D01*
X10509746Y-14042238D01*
X10519270Y-13994619D01*
X10528794Y-13966048D01*
X10538318Y-13947000D01*
X10557365Y-13918428D01*
X10566889Y-13908905D01*
X10624032Y-13937476D02*
X10747842Y-13937476D01*
X10681175Y-14013667D01*
X10709746Y-14013667D01*
X10728794Y-14023190D01*
X10738318Y-14032714D01*
X10747842Y-14051762D01*
X10747842Y-14099381D01*
X10738318Y-14118428D01*
X10728794Y-14127952D01*
X10709746Y-14137476D01*
X10652603Y-14137476D01*
X10633556Y-14127952D01*
X10624032Y-14118428D01*
X10843080Y-14137476D02*
X10881175Y-14137476D01*
X10900222Y-14127952D01*
X10909746Y-14118428D01*
X10928794Y-14089857D01*
X10938318Y-14051762D01*
X10938318Y-13975571D01*
X10928794Y-13956524D01*
X10919270Y-13947000D01*
X10900222Y-13937476D01*
X10862127Y-13937476D01*
X10843080Y-13947000D01*
X10833556Y-13956524D01*
X10824032Y-13975571D01*
X10824032Y-14023190D01*
X10833556Y-14042238D01*
X10843080Y-14051762D01*
X10862127Y-14061286D01*
X10900222Y-14061286D01*
X10919270Y-14051762D01*
X10928794Y-14042238D01*
X10938318Y-14023190D01*
X11014508Y-13956524D02*
X11024032Y-13947000D01*
X11043080Y-13937476D01*
X11090699Y-13937476D01*
X11109746Y-13947000D01*
X11119270Y-13956524D01*
X11128794Y-13975571D01*
X11128794Y-13994619D01*
X11119270Y-14023190D01*
X11004984Y-14137476D01*
X11128794Y-14137476D01*
X11366889Y-14137476D02*
X11366889Y-13937476D01*
X11452603Y-14137476D02*
X11452603Y-14032714D01*
X11443080Y-14013667D01*
X11424032Y-14004143D01*
X11395460Y-14004143D01*
X11376413Y-14013667D01*
X11366889Y-14023190D01*
X11576413Y-14137476D02*
X11557365Y-14127952D01*
X11547841Y-14118428D01*
X11538318Y-14099381D01*
X11538318Y-14042238D01*
X11547841Y-14023190D01*
X11557365Y-14013667D01*
X11576413Y-14004143D01*
X11604984Y-14004143D01*
X11624032Y-14013667D01*
X11633556Y-14023190D01*
X11643080Y-14042238D01*
X11643080Y-14099381D01*
X11633556Y-14118428D01*
X11624032Y-14127952D01*
X11604984Y-14137476D01*
X11576413Y-14137476D01*
X11757365Y-14137476D02*
X11738318Y-14127952D01*
X11728794Y-14108905D01*
X11728794Y-13937476D01*
X11909746Y-14127952D02*
X11890699Y-14137476D01*
X11852603Y-14137476D01*
X11833556Y-14127952D01*
X11824032Y-14108905D01*
X11824032Y-14032714D01*
X11833556Y-14013667D01*
X11852603Y-14004143D01*
X11890699Y-14004143D01*
X11909746Y-14013667D01*
X11919270Y-14032714D01*
X11919270Y-14051762D01*
X11824032Y-14070809D01*
X11995460Y-14127952D02*
X12014508Y-14137476D01*
X12052603Y-14137476D01*
X12071651Y-14127952D01*
X12081175Y-14108905D01*
X12081175Y-14099381D01*
X12071651Y-14080333D01*
X12052603Y-14070809D01*
X12024032Y-14070809D01*
X12004984Y-14061286D01*
X11995460Y-14042238D01*
X11995460Y-14032714D01*
X12004984Y-14013667D01*
X12024032Y-14004143D01*
X12052603Y-14004143D01*
X12071651Y-14013667D01*
X12147841Y-14213667D02*
X12157365Y-14204143D01*
X12176413Y-14175571D01*
X12185937Y-14156524D01*
X12195460Y-14127952D01*
X12204984Y-14080333D01*
X12204984Y-14042238D01*
X12195460Y-13994619D01*
X12185937Y-13966048D01*
X12176413Y-13947000D01*
X12157365Y-13918428D01*
X12147841Y-13908905D01*
D13*
X6994984Y-14311000D02*
G75*
G03*
X6994984Y-14311000I-42500J0D01*
G01*
D11*
X7290699Y-14201476D02*
X7309746Y-14201476D01*
X7328794Y-14211000D01*
X7338318Y-14220524D01*
X7347841Y-14239571D01*
X7357365Y-14277667D01*
X7357365Y-14325286D01*
X7347841Y-14363381D01*
X7338318Y-14382428D01*
X7328794Y-14391952D01*
X7309746Y-14401476D01*
X7290699Y-14401476D01*
X7271651Y-14391952D01*
X7262127Y-14382428D01*
X7252603Y-14363381D01*
X7243080Y-14325286D01*
X7243080Y-14277667D01*
X7252603Y-14239571D01*
X7262127Y-14220524D01*
X7271651Y-14211000D01*
X7290699Y-14201476D01*
X7443080Y-14382428D02*
X7452603Y-14391952D01*
X7443080Y-14401476D01*
X7433556Y-14391952D01*
X7443080Y-14382428D01*
X7443080Y-14401476D01*
X7566889Y-14287190D02*
X7547841Y-14277667D01*
X7538318Y-14268143D01*
X7528794Y-14249095D01*
X7528794Y-14239571D01*
X7538318Y-14220524D01*
X7547841Y-14211000D01*
X7566889Y-14201476D01*
X7604984Y-14201476D01*
X7624032Y-14211000D01*
X7633556Y-14220524D01*
X7643080Y-14239571D01*
X7643080Y-14249095D01*
X7633556Y-14268143D01*
X7624032Y-14277667D01*
X7604984Y-14287190D01*
X7566889Y-14287190D01*
X7547841Y-14296714D01*
X7538318Y-14306238D01*
X7528794Y-14325286D01*
X7528794Y-14363381D01*
X7538318Y-14382428D01*
X7547841Y-14391952D01*
X7566889Y-14401476D01*
X7604984Y-14401476D01*
X7624032Y-14391952D01*
X7633556Y-14382428D01*
X7643080Y-14363381D01*
X7643080Y-14325286D01*
X7633556Y-14306238D01*
X7624032Y-14296714D01*
X7604984Y-14287190D01*
X7824032Y-14201476D02*
X7728794Y-14201476D01*
X7719270Y-14296714D01*
X7728794Y-14287190D01*
X7747841Y-14277667D01*
X7795460Y-14277667D01*
X7814508Y-14287190D01*
X7824032Y-14296714D01*
X7833556Y-14315762D01*
X7833556Y-14363381D01*
X7824032Y-14382428D01*
X7814508Y-14391952D01*
X7795460Y-14401476D01*
X7747841Y-14401476D01*
X7728794Y-14391952D01*
X7719270Y-14382428D01*
X7957365Y-14201476D02*
X7976413Y-14201476D01*
X7995460Y-14211000D01*
X8004984Y-14220524D01*
X8014508Y-14239571D01*
X8024032Y-14277667D01*
X8024032Y-14325286D01*
X8014508Y-14363381D01*
X8004984Y-14382428D01*
X7995460Y-14391952D01*
X7976413Y-14401476D01*
X7957365Y-14401476D01*
X7938318Y-14391952D01*
X7928794Y-14382428D01*
X7919270Y-14363381D01*
X7909746Y-14325286D01*
X7909746Y-14277667D01*
X7919270Y-14239571D01*
X7928794Y-14220524D01*
X7938318Y-14211000D01*
X7957365Y-14201476D01*
X8109746Y-14401476D02*
X8109746Y-14268143D01*
X8109746Y-14287190D02*
X8119270Y-14277667D01*
X8138318Y-14268143D01*
X8166889Y-14268143D01*
X8185937Y-14277667D01*
X8195460Y-14296714D01*
X8195460Y-14401476D01*
X8195460Y-14296714D02*
X8204984Y-14277667D01*
X8224032Y-14268143D01*
X8252603Y-14268143D01*
X8271651Y-14277667D01*
X8281175Y-14296714D01*
X8281175Y-14401476D01*
X8376413Y-14401476D02*
X8376413Y-14268143D01*
X8376413Y-14287190D02*
X8385937Y-14277667D01*
X8404984Y-14268143D01*
X8433556Y-14268143D01*
X8452603Y-14277667D01*
X8462127Y-14296714D01*
X8462127Y-14401476D01*
X8462127Y-14296714D02*
X8471651Y-14277667D01*
X8490699Y-14268143D01*
X8519270Y-14268143D01*
X8538318Y-14277667D01*
X8547842Y-14296714D01*
X8547842Y-14401476D01*
X8938318Y-14191952D02*
X8766889Y-14449095D01*
X9195461Y-14201476D02*
X9214508Y-14201476D01*
X9233556Y-14211000D01*
X9243080Y-14220524D01*
X9252603Y-14239571D01*
X9262127Y-14277667D01*
X9262127Y-14325286D01*
X9252603Y-14363381D01*
X9243080Y-14382428D01*
X9233556Y-14391952D01*
X9214508Y-14401476D01*
X9195461Y-14401476D01*
X9176413Y-14391952D01*
X9166889Y-14382428D01*
X9157365Y-14363381D01*
X9147842Y-14325286D01*
X9147842Y-14277667D01*
X9157365Y-14239571D01*
X9166889Y-14220524D01*
X9176413Y-14211000D01*
X9195461Y-14201476D01*
X9347842Y-14382428D02*
X9357365Y-14391952D01*
X9347842Y-14401476D01*
X9338318Y-14391952D01*
X9347842Y-14382428D01*
X9347842Y-14401476D01*
X9481175Y-14201476D02*
X9500222Y-14201476D01*
X9519270Y-14211000D01*
X9528794Y-14220524D01*
X9538318Y-14239571D01*
X9547842Y-14277667D01*
X9547842Y-14325286D01*
X9538318Y-14363381D01*
X9528794Y-14382428D01*
X9519270Y-14391952D01*
X9500222Y-14401476D01*
X9481175Y-14401476D01*
X9462127Y-14391952D01*
X9452603Y-14382428D01*
X9443080Y-14363381D01*
X9433556Y-14325286D01*
X9433556Y-14277667D01*
X9443080Y-14239571D01*
X9452603Y-14220524D01*
X9462127Y-14211000D01*
X9481175Y-14201476D01*
X9614508Y-14201476D02*
X9738318Y-14201476D01*
X9671651Y-14277667D01*
X9700222Y-14277667D01*
X9719270Y-14287190D01*
X9728794Y-14296714D01*
X9738318Y-14315762D01*
X9738318Y-14363381D01*
X9728794Y-14382428D01*
X9719270Y-14391952D01*
X9700222Y-14401476D01*
X9643080Y-14401476D01*
X9624032Y-14391952D01*
X9614508Y-14382428D01*
X9804984Y-14201476D02*
X9928794Y-14201476D01*
X9862127Y-14277667D01*
X9890699Y-14277667D01*
X9909746Y-14287190D01*
X9919270Y-14296714D01*
X9928794Y-14315762D01*
X9928794Y-14363381D01*
X9919270Y-14382428D01*
X9909746Y-14391952D01*
X9890699Y-14401476D01*
X9833556Y-14401476D01*
X9814508Y-14391952D01*
X9804984Y-14382428D01*
X10109746Y-14201476D02*
X10014508Y-14201476D01*
X10004984Y-14296714D01*
X10014508Y-14287190D01*
X10033556Y-14277667D01*
X10081175Y-14277667D01*
X10100222Y-14287190D01*
X10109746Y-14296714D01*
X10119270Y-14315762D01*
X10119270Y-14363381D01*
X10109746Y-14382428D01*
X10100222Y-14391952D01*
X10081175Y-14401476D01*
X10033556Y-14401476D01*
X10014508Y-14391952D01*
X10004984Y-14382428D01*
X10195461Y-14201476D02*
X10195461Y-14239571D01*
X10271651Y-14201476D02*
X10271651Y-14239571D01*
X10566889Y-14477667D02*
X10557365Y-14468143D01*
X10538318Y-14439571D01*
X10528794Y-14420524D01*
X10519270Y-14391952D01*
X10509746Y-14344333D01*
X10509746Y-14306238D01*
X10519270Y-14258619D01*
X10528794Y-14230048D01*
X10538318Y-14211000D01*
X10557365Y-14182428D01*
X10566889Y-14172905D01*
X10624032Y-14201476D02*
X10757365Y-14201476D01*
X10671651Y-14401476D01*
X10985937Y-14401476D02*
X10985937Y-14201476D01*
X11071651Y-14401476D02*
X11071651Y-14296714D01*
X11062127Y-14277667D01*
X11043080Y-14268143D01*
X11014508Y-14268143D01*
X10995461Y-14277667D01*
X10985937Y-14287190D01*
X11195460Y-14401476D02*
X11176413Y-14391952D01*
X11166889Y-14382428D01*
X11157365Y-14363381D01*
X11157365Y-14306238D01*
X11166889Y-14287190D01*
X11176413Y-14277667D01*
X11195460Y-14268143D01*
X11224032Y-14268143D01*
X11243080Y-14277667D01*
X11252603Y-14287190D01*
X11262127Y-14306238D01*
X11262127Y-14363381D01*
X11252603Y-14382428D01*
X11243080Y-14391952D01*
X11224032Y-14401476D01*
X11195460Y-14401476D01*
X11376413Y-14401476D02*
X11357365Y-14391952D01*
X11347841Y-14372905D01*
X11347841Y-14201476D01*
X11528794Y-14391952D02*
X11509746Y-14401476D01*
X11471651Y-14401476D01*
X11452603Y-14391952D01*
X11443080Y-14372905D01*
X11443080Y-14296714D01*
X11452603Y-14277667D01*
X11471651Y-14268143D01*
X11509746Y-14268143D01*
X11528794Y-14277667D01*
X11538318Y-14296714D01*
X11538318Y-14315762D01*
X11443080Y-14334809D01*
X11614508Y-14391952D02*
X11633556Y-14401476D01*
X11671651Y-14401476D01*
X11690699Y-14391952D01*
X11700222Y-14372905D01*
X11700222Y-14363381D01*
X11690699Y-14344333D01*
X11671651Y-14334809D01*
X11643080Y-14334809D01*
X11624032Y-14325286D01*
X11614508Y-14306238D01*
X11614508Y-14296714D01*
X11624032Y-14277667D01*
X11643080Y-14268143D01*
X11671651Y-14268143D01*
X11690699Y-14277667D01*
X11766889Y-14477667D02*
X11776413Y-14468143D01*
X11795460Y-14439571D01*
X11804984Y-14420524D01*
X11814508Y-14391952D01*
X11824032Y-14344333D01*
X11824032Y-14306238D01*
X11814508Y-14258619D01*
X11804984Y-14230048D01*
X11795460Y-14211000D01*
X11776413Y-14182428D01*
X11766889Y-14172905D01*
D14*
X6944984Y-14525000D02*
X6944984Y-14625000D01*
X6894984Y-14575000D02*
X6994984Y-14575000D01*
D11*
X7357365Y-14665476D02*
X7243080Y-14665476D01*
X7300222Y-14665476D02*
X7300222Y-14465476D01*
X7281175Y-14494048D01*
X7262127Y-14513095D01*
X7243080Y-14522619D01*
X7443080Y-14646428D02*
X7452603Y-14655952D01*
X7443080Y-14665476D01*
X7433556Y-14655952D01*
X7443080Y-14646428D01*
X7443080Y-14665476D01*
X7576413Y-14465476D02*
X7595460Y-14465476D01*
X7614508Y-14475000D01*
X7624032Y-14484524D01*
X7633556Y-14503571D01*
X7643080Y-14541667D01*
X7643080Y-14589286D01*
X7633556Y-14627381D01*
X7624032Y-14646428D01*
X7614508Y-14655952D01*
X7595460Y-14665476D01*
X7576413Y-14665476D01*
X7557365Y-14655952D01*
X7547841Y-14646428D01*
X7538318Y-14627381D01*
X7528794Y-14589286D01*
X7528794Y-14541667D01*
X7538318Y-14503571D01*
X7547841Y-14484524D01*
X7557365Y-14475000D01*
X7576413Y-14465476D01*
X7766889Y-14465476D02*
X7785937Y-14465476D01*
X7804984Y-14475000D01*
X7814508Y-14484524D01*
X7824032Y-14503571D01*
X7833556Y-14541667D01*
X7833556Y-14589286D01*
X7824032Y-14627381D01*
X7814508Y-14646428D01*
X7804984Y-14655952D01*
X7785937Y-14665476D01*
X7766889Y-14665476D01*
X7747841Y-14655952D01*
X7738318Y-14646428D01*
X7728794Y-14627381D01*
X7719270Y-14589286D01*
X7719270Y-14541667D01*
X7728794Y-14503571D01*
X7738318Y-14484524D01*
X7747841Y-14475000D01*
X7766889Y-14465476D01*
X7957365Y-14465476D02*
X7976413Y-14465476D01*
X7995460Y-14475000D01*
X8004984Y-14484524D01*
X8014508Y-14503571D01*
X8024032Y-14541667D01*
X8024032Y-14589286D01*
X8014508Y-14627381D01*
X8004984Y-14646428D01*
X7995460Y-14655952D01*
X7976413Y-14665476D01*
X7957365Y-14665476D01*
X7938318Y-14655952D01*
X7928794Y-14646428D01*
X7919270Y-14627381D01*
X7909746Y-14589286D01*
X7909746Y-14541667D01*
X7919270Y-14503571D01*
X7928794Y-14484524D01*
X7938318Y-14475000D01*
X7957365Y-14465476D01*
X8109746Y-14665476D02*
X8109746Y-14532143D01*
X8109746Y-14551190D02*
X8119270Y-14541667D01*
X8138318Y-14532143D01*
X8166889Y-14532143D01*
X8185937Y-14541667D01*
X8195460Y-14560714D01*
X8195460Y-14665476D01*
X8195460Y-14560714D02*
X8204984Y-14541667D01*
X8224032Y-14532143D01*
X8252603Y-14532143D01*
X8271651Y-14541667D01*
X8281175Y-14560714D01*
X8281175Y-14665476D01*
X8376413Y-14665476D02*
X8376413Y-14532143D01*
X8376413Y-14551190D02*
X8385937Y-14541667D01*
X8404984Y-14532143D01*
X8433556Y-14532143D01*
X8452603Y-14541667D01*
X8462127Y-14560714D01*
X8462127Y-14665476D01*
X8462127Y-14560714D02*
X8471651Y-14541667D01*
X8490699Y-14532143D01*
X8519270Y-14532143D01*
X8538318Y-14541667D01*
X8547842Y-14560714D01*
X8547842Y-14665476D01*
X8938318Y-14455952D02*
X8766889Y-14713095D01*
X9195461Y-14465476D02*
X9214508Y-14465476D01*
X9233556Y-14475000D01*
X9243080Y-14484524D01*
X9252603Y-14503571D01*
X9262127Y-14541667D01*
X9262127Y-14589286D01*
X9252603Y-14627381D01*
X9243080Y-14646428D01*
X9233556Y-14655952D01*
X9214508Y-14665476D01*
X9195461Y-14665476D01*
X9176413Y-14655952D01*
X9166889Y-14646428D01*
X9157365Y-14627381D01*
X9147842Y-14589286D01*
X9147842Y-14541667D01*
X9157365Y-14503571D01*
X9166889Y-14484524D01*
X9176413Y-14475000D01*
X9195461Y-14465476D01*
X9347842Y-14646428D02*
X9357365Y-14655952D01*
X9347842Y-14665476D01*
X9338318Y-14655952D01*
X9347842Y-14646428D01*
X9347842Y-14665476D01*
X9481175Y-14465476D02*
X9500222Y-14465476D01*
X9519270Y-14475000D01*
X9528794Y-14484524D01*
X9538318Y-14503571D01*
X9547842Y-14541667D01*
X9547842Y-14589286D01*
X9538318Y-14627381D01*
X9528794Y-14646428D01*
X9519270Y-14655952D01*
X9500222Y-14665476D01*
X9481175Y-14665476D01*
X9462127Y-14655952D01*
X9452603Y-14646428D01*
X9443080Y-14627381D01*
X9433556Y-14589286D01*
X9433556Y-14541667D01*
X9443080Y-14503571D01*
X9452603Y-14484524D01*
X9462127Y-14475000D01*
X9481175Y-14465476D01*
X9614508Y-14465476D02*
X9738318Y-14465476D01*
X9671651Y-14541667D01*
X9700222Y-14541667D01*
X9719270Y-14551190D01*
X9728794Y-14560714D01*
X9738318Y-14579762D01*
X9738318Y-14627381D01*
X9728794Y-14646428D01*
X9719270Y-14655952D01*
X9700222Y-14665476D01*
X9643080Y-14665476D01*
X9624032Y-14655952D01*
X9614508Y-14646428D01*
X9833556Y-14665476D02*
X9871651Y-14665476D01*
X9890699Y-14655952D01*
X9900222Y-14646428D01*
X9919270Y-14617857D01*
X9928794Y-14579762D01*
X9928794Y-14503571D01*
X9919270Y-14484524D01*
X9909746Y-14475000D01*
X9890699Y-14465476D01*
X9852603Y-14465476D01*
X9833556Y-14475000D01*
X9824032Y-14484524D01*
X9814508Y-14503571D01*
X9814508Y-14551190D01*
X9824032Y-14570238D01*
X9833556Y-14579762D01*
X9852603Y-14589286D01*
X9890699Y-14589286D01*
X9909746Y-14579762D01*
X9919270Y-14570238D01*
X9928794Y-14551190D01*
X10100222Y-14532143D02*
X10100222Y-14665476D01*
X10052603Y-14455952D02*
X10004984Y-14598809D01*
X10128794Y-14598809D01*
X10195461Y-14465476D02*
X10195461Y-14503571D01*
X10271651Y-14465476D02*
X10271651Y-14503571D01*
X10566889Y-14741667D02*
X10557365Y-14732143D01*
X10538318Y-14703571D01*
X10528794Y-14684524D01*
X10519270Y-14655952D01*
X10509746Y-14608333D01*
X10509746Y-14570238D01*
X10519270Y-14522619D01*
X10528794Y-14494048D01*
X10538318Y-14475000D01*
X10557365Y-14446428D01*
X10566889Y-14436905D01*
X10633556Y-14484524D02*
X10643080Y-14475000D01*
X10662127Y-14465476D01*
X10709746Y-14465476D01*
X10728794Y-14475000D01*
X10738318Y-14484524D01*
X10747842Y-14503571D01*
X10747842Y-14522619D01*
X10738318Y-14551190D01*
X10624032Y-14665476D01*
X10747842Y-14665476D01*
X10919270Y-14465476D02*
X10881175Y-14465476D01*
X10862127Y-14475000D01*
X10852603Y-14484524D01*
X10833556Y-14513095D01*
X10824032Y-14551190D01*
X10824032Y-14627381D01*
X10833556Y-14646428D01*
X10843080Y-14655952D01*
X10862127Y-14665476D01*
X10900222Y-14665476D01*
X10919270Y-14655952D01*
X10928794Y-14646428D01*
X10938318Y-14627381D01*
X10938318Y-14579762D01*
X10928794Y-14560714D01*
X10919270Y-14551190D01*
X10900222Y-14541667D01*
X10862127Y-14541667D01*
X10843080Y-14551190D01*
X10833556Y-14560714D01*
X10824032Y-14579762D01*
X11176413Y-14665476D02*
X11176413Y-14465476D01*
X11262127Y-14665476D02*
X11262127Y-14560714D01*
X11252603Y-14541667D01*
X11233556Y-14532143D01*
X11204984Y-14532143D01*
X11185937Y-14541667D01*
X11176413Y-14551190D01*
X11385937Y-14665476D02*
X11366889Y-14655952D01*
X11357365Y-14646428D01*
X11347841Y-14627381D01*
X11347841Y-14570238D01*
X11357365Y-14551190D01*
X11366889Y-14541667D01*
X11385937Y-14532143D01*
X11414508Y-14532143D01*
X11433556Y-14541667D01*
X11443080Y-14551190D01*
X11452603Y-14570238D01*
X11452603Y-14627381D01*
X11443080Y-14646428D01*
X11433556Y-14655952D01*
X11414508Y-14665476D01*
X11385937Y-14665476D01*
X11566889Y-14665476D02*
X11547841Y-14655952D01*
X11538318Y-14636905D01*
X11538318Y-14465476D01*
X11719270Y-14655952D02*
X11700222Y-14665476D01*
X11662127Y-14665476D01*
X11643080Y-14655952D01*
X11633556Y-14636905D01*
X11633556Y-14560714D01*
X11643080Y-14541667D01*
X11662127Y-14532143D01*
X11700222Y-14532143D01*
X11719270Y-14541667D01*
X11728794Y-14560714D01*
X11728794Y-14579762D01*
X11633556Y-14598809D01*
X11804984Y-14655952D02*
X11824032Y-14665476D01*
X11862127Y-14665476D01*
X11881175Y-14655952D01*
X11890699Y-14636905D01*
X11890699Y-14627381D01*
X11881175Y-14608333D01*
X11862127Y-14598809D01*
X11833556Y-14598809D01*
X11814508Y-14589286D01*
X11804984Y-14570238D01*
X11804984Y-14560714D01*
X11814508Y-14541667D01*
X11833556Y-14532143D01*
X11862127Y-14532143D01*
X11881175Y-14541667D01*
X11957365Y-14741667D02*
X11966889Y-14732143D01*
X11985937Y-14703571D01*
X11995460Y-14684524D01*
X12004984Y-14655952D01*
X12014508Y-14608333D01*
X12014508Y-14570238D01*
X12004984Y-14522619D01*
X11995460Y-14494048D01*
X11985937Y-14475000D01*
X11966889Y-14446428D01*
X11957365Y-14436905D01*
X6965696Y-14909711D02*
X6965696Y-14768289D01*
X6824273Y-14768289D01*
X6824273Y-14909711D01*
X6965696Y-14909711D01*
X7233556Y-14729476D02*
X7357365Y-14729476D01*
X7290699Y-14805667D01*
X7319270Y-14805667D01*
X7338318Y-14815190D01*
X7347841Y-14824714D01*
X7357365Y-14843762D01*
X7357365Y-14891381D01*
X7347841Y-14910428D01*
X7338318Y-14919952D01*
X7319270Y-14929476D01*
X7262127Y-14929476D01*
X7243080Y-14919952D01*
X7233556Y-14910428D01*
X7443080Y-14910428D02*
X7452603Y-14919952D01*
X7443080Y-14929476D01*
X7433556Y-14919952D01*
X7443080Y-14910428D01*
X7443080Y-14929476D01*
X7528794Y-14748524D02*
X7538318Y-14739000D01*
X7557365Y-14729476D01*
X7604984Y-14729476D01*
X7624032Y-14739000D01*
X7633556Y-14748524D01*
X7643080Y-14767571D01*
X7643080Y-14786619D01*
X7633556Y-14815190D01*
X7519270Y-14929476D01*
X7643080Y-14929476D01*
X7766889Y-14729476D02*
X7785937Y-14729476D01*
X7804984Y-14739000D01*
X7814508Y-14748524D01*
X7824032Y-14767571D01*
X7833556Y-14805667D01*
X7833556Y-14853286D01*
X7824032Y-14891381D01*
X7814508Y-14910428D01*
X7804984Y-14919952D01*
X7785937Y-14929476D01*
X7766889Y-14929476D01*
X7747841Y-14919952D01*
X7738318Y-14910428D01*
X7728794Y-14891381D01*
X7719270Y-14853286D01*
X7719270Y-14805667D01*
X7728794Y-14767571D01*
X7738318Y-14748524D01*
X7747841Y-14739000D01*
X7766889Y-14729476D01*
X7957365Y-14729476D02*
X7976413Y-14729476D01*
X7995460Y-14739000D01*
X8004984Y-14748524D01*
X8014508Y-14767571D01*
X8024032Y-14805667D01*
X8024032Y-14853286D01*
X8014508Y-14891381D01*
X8004984Y-14910428D01*
X7995460Y-14919952D01*
X7976413Y-14929476D01*
X7957365Y-14929476D01*
X7938318Y-14919952D01*
X7928794Y-14910428D01*
X7919270Y-14891381D01*
X7909746Y-14853286D01*
X7909746Y-14805667D01*
X7919270Y-14767571D01*
X7928794Y-14748524D01*
X7938318Y-14739000D01*
X7957365Y-14729476D01*
X8109746Y-14929476D02*
X8109746Y-14796143D01*
X8109746Y-14815190D02*
X8119270Y-14805667D01*
X8138318Y-14796143D01*
X8166889Y-14796143D01*
X8185937Y-14805667D01*
X8195460Y-14824714D01*
X8195460Y-14929476D01*
X8195460Y-14824714D02*
X8204984Y-14805667D01*
X8224032Y-14796143D01*
X8252603Y-14796143D01*
X8271651Y-14805667D01*
X8281175Y-14824714D01*
X8281175Y-14929476D01*
X8376413Y-14929476D02*
X8376413Y-14796143D01*
X8376413Y-14815190D02*
X8385937Y-14805667D01*
X8404984Y-14796143D01*
X8433556Y-14796143D01*
X8452603Y-14805667D01*
X8462127Y-14824714D01*
X8462127Y-14929476D01*
X8462127Y-14824714D02*
X8471651Y-14805667D01*
X8490699Y-14796143D01*
X8519270Y-14796143D01*
X8538318Y-14805667D01*
X8547842Y-14824714D01*
X8547842Y-14929476D01*
X8938318Y-14719952D02*
X8766889Y-14977095D01*
X9195461Y-14729476D02*
X9214508Y-14729476D01*
X9233556Y-14739000D01*
X9243080Y-14748524D01*
X9252603Y-14767571D01*
X9262127Y-14805667D01*
X9262127Y-14853286D01*
X9252603Y-14891381D01*
X9243080Y-14910428D01*
X9233556Y-14919952D01*
X9214508Y-14929476D01*
X9195461Y-14929476D01*
X9176413Y-14919952D01*
X9166889Y-14910428D01*
X9157365Y-14891381D01*
X9147842Y-14853286D01*
X9147842Y-14805667D01*
X9157365Y-14767571D01*
X9166889Y-14748524D01*
X9176413Y-14739000D01*
X9195461Y-14729476D01*
X9347842Y-14910428D02*
X9357365Y-14919952D01*
X9347842Y-14929476D01*
X9338318Y-14919952D01*
X9347842Y-14910428D01*
X9347842Y-14929476D01*
X9547842Y-14929476D02*
X9433556Y-14929476D01*
X9490699Y-14929476D02*
X9490699Y-14729476D01*
X9471651Y-14758048D01*
X9452603Y-14777095D01*
X9433556Y-14786619D01*
X9624032Y-14748524D02*
X9633556Y-14739000D01*
X9652603Y-14729476D01*
X9700222Y-14729476D01*
X9719270Y-14739000D01*
X9728794Y-14748524D01*
X9738318Y-14767571D01*
X9738318Y-14786619D01*
X9728794Y-14815190D01*
X9614508Y-14929476D01*
X9738318Y-14929476D01*
X9909746Y-14729476D02*
X9871651Y-14729476D01*
X9852603Y-14739000D01*
X9843080Y-14748524D01*
X9824032Y-14777095D01*
X9814508Y-14815190D01*
X9814508Y-14891381D01*
X9824032Y-14910428D01*
X9833556Y-14919952D01*
X9852603Y-14929476D01*
X9890699Y-14929476D01*
X9909746Y-14919952D01*
X9919270Y-14910428D01*
X9928794Y-14891381D01*
X9928794Y-14843762D01*
X9919270Y-14824714D01*
X9909746Y-14815190D01*
X9890699Y-14805667D01*
X9852603Y-14805667D01*
X9833556Y-14815190D01*
X9824032Y-14824714D01*
X9814508Y-14843762D01*
X10052603Y-14729476D02*
X10071651Y-14729476D01*
X10090699Y-14739000D01*
X10100222Y-14748524D01*
X10109746Y-14767571D01*
X10119270Y-14805667D01*
X10119270Y-14853286D01*
X10109746Y-14891381D01*
X10100222Y-14910428D01*
X10090699Y-14919952D01*
X10071651Y-14929476D01*
X10052603Y-14929476D01*
X10033556Y-14919952D01*
X10024032Y-14910428D01*
X10014508Y-14891381D01*
X10004984Y-14853286D01*
X10004984Y-14805667D01*
X10014508Y-14767571D01*
X10024032Y-14748524D01*
X10033556Y-14739000D01*
X10052603Y-14729476D01*
X10195461Y-14729476D02*
X10195461Y-14767571D01*
X10271651Y-14729476D02*
X10271651Y-14767571D01*
X10566889Y-15005667D02*
X10557365Y-14996143D01*
X10538318Y-14967571D01*
X10528794Y-14948524D01*
X10519270Y-14919952D01*
X10509746Y-14872333D01*
X10509746Y-14834238D01*
X10519270Y-14786619D01*
X10528794Y-14758048D01*
X10538318Y-14739000D01*
X10557365Y-14710428D01*
X10566889Y-14700905D01*
X10728794Y-14796143D02*
X10728794Y-14929476D01*
X10681175Y-14719952D02*
X10633556Y-14862809D01*
X10757365Y-14862809D01*
X10985937Y-14929476D02*
X10985937Y-14729476D01*
X11071651Y-14929476D02*
X11071651Y-14824714D01*
X11062127Y-14805667D01*
X11043080Y-14796143D01*
X11014508Y-14796143D01*
X10995461Y-14805667D01*
X10985937Y-14815190D01*
X11195460Y-14929476D02*
X11176413Y-14919952D01*
X11166889Y-14910428D01*
X11157365Y-14891381D01*
X11157365Y-14834238D01*
X11166889Y-14815190D01*
X11176413Y-14805667D01*
X11195460Y-14796143D01*
X11224032Y-14796143D01*
X11243080Y-14805667D01*
X11252603Y-14815190D01*
X11262127Y-14834238D01*
X11262127Y-14891381D01*
X11252603Y-14910428D01*
X11243080Y-14919952D01*
X11224032Y-14929476D01*
X11195460Y-14929476D01*
X11376413Y-14929476D02*
X11357365Y-14919952D01*
X11347841Y-14900905D01*
X11347841Y-14729476D01*
X11528794Y-14919952D02*
X11509746Y-14929476D01*
X11471651Y-14929476D01*
X11452603Y-14919952D01*
X11443080Y-14900905D01*
X11443080Y-14824714D01*
X11452603Y-14805667D01*
X11471651Y-14796143D01*
X11509746Y-14796143D01*
X11528794Y-14805667D01*
X11538318Y-14824714D01*
X11538318Y-14843762D01*
X11443080Y-14862809D01*
X11614508Y-14919952D02*
X11633556Y-14929476D01*
X11671651Y-14929476D01*
X11690699Y-14919952D01*
X11700222Y-14900905D01*
X11700222Y-14891381D01*
X11690699Y-14872333D01*
X11671651Y-14862809D01*
X11643080Y-14862809D01*
X11624032Y-14853286D01*
X11614508Y-14834238D01*
X11614508Y-14824714D01*
X11624032Y-14805667D01*
X11643080Y-14796143D01*
X11671651Y-14796143D01*
X11690699Y-14805667D01*
X11766889Y-15005667D02*
X11776413Y-14996143D01*
X11795460Y-14967571D01*
X11804984Y-14948524D01*
X11814508Y-14919952D01*
X11824032Y-14872333D01*
X11824032Y-14834238D01*
X11814508Y-14786619D01*
X11804984Y-14758048D01*
X11795460Y-14739000D01*
X11776413Y-14710428D01*
X11766889Y-14700905D01*
M02*
