%FSLAX45Y45*%
G04 Gerber Fmt 4.5, Leading zero omitted, Abs format (unit mm)*
G04 Created by KiCad (PCBNEW (6.0.1)) date 2022-07-12 15:17:18*
%MOMM*%
%LPD*%
G01*
G04 APERTURE LIST*
%TA.AperFunction,Profile*%
%ADD10C,0.100000*%
%TD*%
%ADD11C,0.200000*%
%ADD12C,0.090000*%
G04 APERTURE END LIST*
D10*
X7600000Y-13402000D02*
X12100000Y-13402000D01*
X7000000Y-8302000D02*
X7000000Y-8802000D01*
X7070614Y-9603381D02*
G75*
G03*
X7000000Y-9702000I40743J-103763D01*
G01*
X12700000Y-8302000D02*
G75*
G03*
X12100000Y-7702000I-600000J0D01*
G01*
X12700000Y-12802000D02*
X12700000Y-8302000D01*
X7130000Y-8992000D02*
G75*
G03*
X7065000Y-8897000I-99352J1759D01*
G01*
X12437600Y-8042400D02*
G75*
G03*
X12437600Y-8042400I-57600J0D01*
G01*
X7000000Y-9702000D02*
X7000000Y-12802000D01*
X7600000Y-7702000D02*
G75*
G03*
X7000000Y-8302000I0J-600000D01*
G01*
X12100000Y-7702000D02*
X7600000Y-7702000D01*
X7000000Y-12802000D02*
G75*
G03*
X7600000Y-13402000I600000J0D01*
G01*
X12100000Y-13402000D02*
G75*
G03*
X12700000Y-12802000I0J600000D01*
G01*
X7070614Y-9603381D02*
G75*
G03*
X7130000Y-9512000I-40614J91381D01*
G01*
X7380000Y-13062000D02*
G75*
G03*
X7380000Y-13062000I-57600J0D01*
G01*
X7000000Y-8802000D02*
G75*
G03*
X7065000Y-8897000I99352J-1759D01*
G01*
X7130000Y-9512000D02*
X7130000Y-8992000D01*
D11*
D12*
X7262000Y-9074000D02*
X7352000Y-9164000D01*
X7352000Y-9074000D02*
X7262000Y-9164000D01*
X7262000Y-9374000D02*
X7352000Y-9464000D01*
X7352000Y-9374000D02*
X7262000Y-9464000D01*
X12011500Y-8938000D02*
X12101500Y-9028000D01*
X12101500Y-8938000D02*
X12011500Y-9028000D01*
X12011500Y-9378000D02*
X12101500Y-9468000D01*
X12101500Y-9378000D02*
X12011500Y-9468000D01*
X12017500Y-10375000D02*
X12107500Y-10465000D01*
X12107500Y-10375000D02*
X12017500Y-10465000D01*
X12017500Y-10815000D02*
X12107500Y-10905000D01*
X12107500Y-10815000D02*
X12017500Y-10905000D01*
D11*
X7252603Y-13717476D02*
X7252603Y-13517476D01*
X7300222Y-13517476D01*
X7328794Y-13527000D01*
X7347841Y-13546048D01*
X7357365Y-13565095D01*
X7366889Y-13603190D01*
X7366889Y-13631762D01*
X7357365Y-13669857D01*
X7347841Y-13688905D01*
X7328794Y-13707952D01*
X7300222Y-13717476D01*
X7252603Y-13717476D01*
X7452603Y-13717476D02*
X7452603Y-13584143D01*
X7452603Y-13622238D02*
X7462127Y-13603190D01*
X7471651Y-13593667D01*
X7490699Y-13584143D01*
X7509746Y-13584143D01*
X7576413Y-13717476D02*
X7576413Y-13584143D01*
X7576413Y-13517476D02*
X7566889Y-13527000D01*
X7576413Y-13536524D01*
X7585937Y-13527000D01*
X7576413Y-13517476D01*
X7576413Y-13536524D01*
X7700222Y-13717476D02*
X7681175Y-13707952D01*
X7671651Y-13688905D01*
X7671651Y-13517476D01*
X7804984Y-13717476D02*
X7785937Y-13707952D01*
X7776413Y-13688905D01*
X7776413Y-13517476D01*
X8033556Y-13717476D02*
X8033556Y-13517476D01*
X8100222Y-13660333D01*
X8166889Y-13517476D01*
X8166889Y-13717476D01*
X8347841Y-13717476D02*
X8347841Y-13612714D01*
X8338318Y-13593667D01*
X8319270Y-13584143D01*
X8281175Y-13584143D01*
X8262127Y-13593667D01*
X8347841Y-13707952D02*
X8328794Y-13717476D01*
X8281175Y-13717476D01*
X8262127Y-13707952D01*
X8252603Y-13688905D01*
X8252603Y-13669857D01*
X8262127Y-13650809D01*
X8281175Y-13641286D01*
X8328794Y-13641286D01*
X8347841Y-13631762D01*
X8443080Y-13584143D02*
X8443080Y-13784143D01*
X8443080Y-13593667D02*
X8462127Y-13584143D01*
X8500222Y-13584143D01*
X8519270Y-13593667D01*
X8528794Y-13603190D01*
X8538318Y-13622238D01*
X8538318Y-13679381D01*
X8528794Y-13698428D01*
X8519270Y-13707952D01*
X8500222Y-13717476D01*
X8462127Y-13717476D01*
X8443080Y-13707952D01*
X8624032Y-13698428D02*
X8633556Y-13707952D01*
X8624032Y-13717476D01*
X8614508Y-13707952D01*
X8624032Y-13698428D01*
X8624032Y-13717476D01*
X8624032Y-13593667D02*
X8633556Y-13603190D01*
X8624032Y-13612714D01*
X8614508Y-13603190D01*
X8624032Y-13593667D01*
X8624032Y-13612714D01*
D12*
X6904984Y-14002000D02*
X6994984Y-14092000D01*
X6994984Y-14002000D02*
X6904984Y-14092000D01*
D11*
X7290699Y-13937476D02*
X7309746Y-13937476D01*
X7328794Y-13947000D01*
X7338318Y-13956524D01*
X7347841Y-13975571D01*
X7357365Y-14013667D01*
X7357365Y-14061286D01*
X7347841Y-14099381D01*
X7338318Y-14118428D01*
X7328794Y-14127952D01*
X7309746Y-14137476D01*
X7290699Y-14137476D01*
X7271651Y-14127952D01*
X7262127Y-14118428D01*
X7252603Y-14099381D01*
X7243080Y-14061286D01*
X7243080Y-14013667D01*
X7252603Y-13975571D01*
X7262127Y-13956524D01*
X7271651Y-13947000D01*
X7290699Y-13937476D01*
X7443080Y-14118428D02*
X7452603Y-14127952D01*
X7443080Y-14137476D01*
X7433556Y-14127952D01*
X7443080Y-14118428D01*
X7443080Y-14137476D01*
X7547841Y-14137476D02*
X7585937Y-14137476D01*
X7604984Y-14127952D01*
X7614508Y-14118428D01*
X7633556Y-14089857D01*
X7643080Y-14051762D01*
X7643080Y-13975571D01*
X7633556Y-13956524D01*
X7624032Y-13947000D01*
X7604984Y-13937476D01*
X7566889Y-13937476D01*
X7547841Y-13947000D01*
X7538318Y-13956524D01*
X7528794Y-13975571D01*
X7528794Y-14023190D01*
X7538318Y-14042238D01*
X7547841Y-14051762D01*
X7566889Y-14061286D01*
X7604984Y-14061286D01*
X7624032Y-14051762D01*
X7633556Y-14042238D01*
X7643080Y-14023190D01*
X7766889Y-13937476D02*
X7785937Y-13937476D01*
X7804984Y-13947000D01*
X7814508Y-13956524D01*
X7824032Y-13975571D01*
X7833556Y-14013667D01*
X7833556Y-14061286D01*
X7824032Y-14099381D01*
X7814508Y-14118428D01*
X7804984Y-14127952D01*
X7785937Y-14137476D01*
X7766889Y-14137476D01*
X7747841Y-14127952D01*
X7738318Y-14118428D01*
X7728794Y-14099381D01*
X7719270Y-14061286D01*
X7719270Y-14013667D01*
X7728794Y-13975571D01*
X7738318Y-13956524D01*
X7747841Y-13947000D01*
X7766889Y-13937476D01*
X7957365Y-13937476D02*
X7976413Y-13937476D01*
X7995460Y-13947000D01*
X8004984Y-13956524D01*
X8014508Y-13975571D01*
X8024032Y-14013667D01*
X8024032Y-14061286D01*
X8014508Y-14099381D01*
X8004984Y-14118428D01*
X7995460Y-14127952D01*
X7976413Y-14137476D01*
X7957365Y-14137476D01*
X7938318Y-14127952D01*
X7928794Y-14118428D01*
X7919270Y-14099381D01*
X7909746Y-14061286D01*
X7909746Y-14013667D01*
X7919270Y-13975571D01*
X7928794Y-13956524D01*
X7938318Y-13947000D01*
X7957365Y-13937476D01*
X8109746Y-14137476D02*
X8109746Y-14004143D01*
X8109746Y-14023190D02*
X8119270Y-14013667D01*
X8138318Y-14004143D01*
X8166889Y-14004143D01*
X8185937Y-14013667D01*
X8195460Y-14032714D01*
X8195460Y-14137476D01*
X8195460Y-14032714D02*
X8204984Y-14013667D01*
X8224032Y-14004143D01*
X8252603Y-14004143D01*
X8271651Y-14013667D01*
X8281175Y-14032714D01*
X8281175Y-14137476D01*
X8376413Y-14137476D02*
X8376413Y-14004143D01*
X8376413Y-14023190D02*
X8385937Y-14013667D01*
X8404984Y-14004143D01*
X8433556Y-14004143D01*
X8452603Y-14013667D01*
X8462127Y-14032714D01*
X8462127Y-14137476D01*
X8462127Y-14032714D02*
X8471651Y-14013667D01*
X8490699Y-14004143D01*
X8519270Y-14004143D01*
X8538318Y-14013667D01*
X8547842Y-14032714D01*
X8547842Y-14137476D01*
X8938318Y-13927952D02*
X8766889Y-14185095D01*
X9195461Y-13937476D02*
X9214508Y-13937476D01*
X9233556Y-13947000D01*
X9243080Y-13956524D01*
X9252603Y-13975571D01*
X9262127Y-14013667D01*
X9262127Y-14061286D01*
X9252603Y-14099381D01*
X9243080Y-14118428D01*
X9233556Y-14127952D01*
X9214508Y-14137476D01*
X9195461Y-14137476D01*
X9176413Y-14127952D01*
X9166889Y-14118428D01*
X9157365Y-14099381D01*
X9147842Y-14061286D01*
X9147842Y-14013667D01*
X9157365Y-13975571D01*
X9166889Y-13956524D01*
X9176413Y-13947000D01*
X9195461Y-13937476D01*
X9347842Y-14118428D02*
X9357365Y-14127952D01*
X9347842Y-14137476D01*
X9338318Y-14127952D01*
X9347842Y-14118428D01*
X9347842Y-14137476D01*
X9481175Y-13937476D02*
X9500222Y-13937476D01*
X9519270Y-13947000D01*
X9528794Y-13956524D01*
X9538318Y-13975571D01*
X9547842Y-14013667D01*
X9547842Y-14061286D01*
X9538318Y-14099381D01*
X9528794Y-14118428D01*
X9519270Y-14127952D01*
X9500222Y-14137476D01*
X9481175Y-14137476D01*
X9462127Y-14127952D01*
X9452603Y-14118428D01*
X9443080Y-14099381D01*
X9433556Y-14061286D01*
X9433556Y-14013667D01*
X9443080Y-13975571D01*
X9452603Y-13956524D01*
X9462127Y-13947000D01*
X9481175Y-13937476D01*
X9614508Y-13937476D02*
X9738318Y-13937476D01*
X9671651Y-14013667D01*
X9700222Y-14013667D01*
X9719270Y-14023190D01*
X9728794Y-14032714D01*
X9738318Y-14051762D01*
X9738318Y-14099381D01*
X9728794Y-14118428D01*
X9719270Y-14127952D01*
X9700222Y-14137476D01*
X9643080Y-14137476D01*
X9624032Y-14127952D01*
X9614508Y-14118428D01*
X9919270Y-13937476D02*
X9824032Y-13937476D01*
X9814508Y-14032714D01*
X9824032Y-14023190D01*
X9843080Y-14013667D01*
X9890699Y-14013667D01*
X9909746Y-14023190D01*
X9919270Y-14032714D01*
X9928794Y-14051762D01*
X9928794Y-14099381D01*
X9919270Y-14118428D01*
X9909746Y-14127952D01*
X9890699Y-14137476D01*
X9843080Y-14137476D01*
X9824032Y-14127952D01*
X9814508Y-14118428D01*
X10100222Y-14004143D02*
X10100222Y-14137476D01*
X10052603Y-13927952D02*
X10004984Y-14070809D01*
X10128794Y-14070809D01*
X10195461Y-13937476D02*
X10195461Y-13975571D01*
X10271651Y-13937476D02*
X10271651Y-13975571D01*
X10566889Y-14213667D02*
X10557365Y-14204143D01*
X10538318Y-14175571D01*
X10528794Y-14156524D01*
X10519270Y-14127952D01*
X10509746Y-14080333D01*
X10509746Y-14042238D01*
X10519270Y-13994619D01*
X10528794Y-13966048D01*
X10538318Y-13947000D01*
X10557365Y-13918428D01*
X10566889Y-13908905D01*
X10728794Y-13937476D02*
X10690699Y-13937476D01*
X10671651Y-13947000D01*
X10662127Y-13956524D01*
X10643080Y-13985095D01*
X10633556Y-14023190D01*
X10633556Y-14099381D01*
X10643080Y-14118428D01*
X10652603Y-14127952D01*
X10671651Y-14137476D01*
X10709746Y-14137476D01*
X10728794Y-14127952D01*
X10738318Y-14118428D01*
X10747842Y-14099381D01*
X10747842Y-14051762D01*
X10738318Y-14032714D01*
X10728794Y-14023190D01*
X10709746Y-14013667D01*
X10671651Y-14013667D01*
X10652603Y-14023190D01*
X10643080Y-14032714D01*
X10633556Y-14051762D01*
X10985937Y-14137476D02*
X10985937Y-13937476D01*
X11071651Y-14137476D02*
X11071651Y-14032714D01*
X11062127Y-14013667D01*
X11043080Y-14004143D01*
X11014508Y-14004143D01*
X10995461Y-14013667D01*
X10985937Y-14023190D01*
X11195460Y-14137476D02*
X11176413Y-14127952D01*
X11166889Y-14118428D01*
X11157365Y-14099381D01*
X11157365Y-14042238D01*
X11166889Y-14023190D01*
X11176413Y-14013667D01*
X11195460Y-14004143D01*
X11224032Y-14004143D01*
X11243080Y-14013667D01*
X11252603Y-14023190D01*
X11262127Y-14042238D01*
X11262127Y-14099381D01*
X11252603Y-14118428D01*
X11243080Y-14127952D01*
X11224032Y-14137476D01*
X11195460Y-14137476D01*
X11376413Y-14137476D02*
X11357365Y-14127952D01*
X11347841Y-14108905D01*
X11347841Y-13937476D01*
X11528794Y-14127952D02*
X11509746Y-14137476D01*
X11471651Y-14137476D01*
X11452603Y-14127952D01*
X11443080Y-14108905D01*
X11443080Y-14032714D01*
X11452603Y-14013667D01*
X11471651Y-14004143D01*
X11509746Y-14004143D01*
X11528794Y-14013667D01*
X11538318Y-14032714D01*
X11538318Y-14051762D01*
X11443080Y-14070809D01*
X11614508Y-14127952D02*
X11633556Y-14137476D01*
X11671651Y-14137476D01*
X11690699Y-14127952D01*
X11700222Y-14108905D01*
X11700222Y-14099381D01*
X11690699Y-14080333D01*
X11671651Y-14070809D01*
X11643080Y-14070809D01*
X11624032Y-14061286D01*
X11614508Y-14042238D01*
X11614508Y-14032714D01*
X11624032Y-14013667D01*
X11643080Y-14004143D01*
X11671651Y-14004143D01*
X11690699Y-14013667D01*
X11766889Y-14213667D02*
X11776413Y-14204143D01*
X11795460Y-14175571D01*
X11804984Y-14156524D01*
X11814508Y-14127952D01*
X11824032Y-14080333D01*
X11824032Y-14042238D01*
X11814508Y-13994619D01*
X11804984Y-13966048D01*
X11795460Y-13947000D01*
X11776413Y-13918428D01*
X11766889Y-13908905D01*
X12128794Y-14213667D02*
X12119270Y-14204143D01*
X12100222Y-14175571D01*
X12090699Y-14156524D01*
X12081175Y-14127952D01*
X12071651Y-14080333D01*
X12071651Y-14042238D01*
X12081175Y-13994619D01*
X12090699Y-13966048D01*
X12100222Y-13947000D01*
X12119270Y-13918428D01*
X12128794Y-13908905D01*
X12204984Y-14004143D02*
X12204984Y-14137476D01*
X12204984Y-14023190D02*
X12214508Y-14013667D01*
X12233556Y-14004143D01*
X12262127Y-14004143D01*
X12281175Y-14013667D01*
X12290699Y-14032714D01*
X12290699Y-14137476D01*
X12414508Y-14137476D02*
X12395460Y-14127952D01*
X12385937Y-14118428D01*
X12376413Y-14099381D01*
X12376413Y-14042238D01*
X12385937Y-14023190D01*
X12395460Y-14013667D01*
X12414508Y-14004143D01*
X12443080Y-14004143D01*
X12462127Y-14013667D01*
X12471651Y-14023190D01*
X12481175Y-14042238D01*
X12481175Y-14099381D01*
X12471651Y-14118428D01*
X12462127Y-14127952D01*
X12443080Y-14137476D01*
X12414508Y-14137476D01*
X12538318Y-14004143D02*
X12614508Y-14004143D01*
X12566889Y-13937476D02*
X12566889Y-14108905D01*
X12576413Y-14127952D01*
X12595460Y-14137476D01*
X12614508Y-14137476D01*
X12833556Y-14004143D02*
X12833556Y-14204143D01*
X12833556Y-14013667D02*
X12852603Y-14004143D01*
X12890699Y-14004143D01*
X12909746Y-14013667D01*
X12919270Y-14023190D01*
X12928794Y-14042238D01*
X12928794Y-14099381D01*
X12919270Y-14118428D01*
X12909746Y-14127952D01*
X12890699Y-14137476D01*
X12852603Y-14137476D01*
X12833556Y-14127952D01*
X13043080Y-14137476D02*
X13024032Y-14127952D01*
X13014508Y-14108905D01*
X13014508Y-13937476D01*
X13204984Y-14137476D02*
X13204984Y-14032714D01*
X13195460Y-14013667D01*
X13176413Y-14004143D01*
X13138318Y-14004143D01*
X13119270Y-14013667D01*
X13204984Y-14127952D02*
X13185937Y-14137476D01*
X13138318Y-14137476D01*
X13119270Y-14127952D01*
X13109746Y-14108905D01*
X13109746Y-14089857D01*
X13119270Y-14070809D01*
X13138318Y-14061286D01*
X13185937Y-14061286D01*
X13204984Y-14051762D01*
X13271651Y-14004143D02*
X13347841Y-14004143D01*
X13300222Y-13937476D02*
X13300222Y-14108905D01*
X13309746Y-14127952D01*
X13328794Y-14137476D01*
X13347841Y-14137476D01*
X13490699Y-14127952D02*
X13471651Y-14137476D01*
X13433556Y-14137476D01*
X13414508Y-14127952D01*
X13404984Y-14108905D01*
X13404984Y-14032714D01*
X13414508Y-14013667D01*
X13433556Y-14004143D01*
X13471651Y-14004143D01*
X13490699Y-14013667D01*
X13500222Y-14032714D01*
X13500222Y-14051762D01*
X13404984Y-14070809D01*
X13671651Y-14137476D02*
X13671651Y-13937476D01*
X13671651Y-14127952D02*
X13652603Y-14137476D01*
X13614508Y-14137476D01*
X13595460Y-14127952D01*
X13585937Y-14118428D01*
X13576413Y-14099381D01*
X13576413Y-14042238D01*
X13585937Y-14023190D01*
X13595460Y-14013667D01*
X13614508Y-14004143D01*
X13652603Y-14004143D01*
X13671651Y-14013667D01*
X13747841Y-14213667D02*
X13757365Y-14204143D01*
X13776413Y-14175571D01*
X13785937Y-14156524D01*
X13795460Y-14127952D01*
X13804984Y-14080333D01*
X13804984Y-14042238D01*
X13795460Y-13994619D01*
X13785937Y-13966048D01*
X13776413Y-13947000D01*
X13757365Y-13918428D01*
X13747841Y-13908905D01*
M02*
