G04 #@! TF.GenerationSoftware,KiCad,Pcbnew,(6.0.1)*
G04 #@! TF.CreationDate,2022-07-12T15:15:51+02:00*
G04 #@! TF.ProjectId,flightController,666c6967-6874-4436-9f6e-74726f6c6c65,1.0*
G04 #@! TF.SameCoordinates,Original*
G04 #@! TF.FileFunction,Legend,Bot*
G04 #@! TF.FilePolarity,Positive*
%FSLAX46Y46*%
G04 Gerber Fmt 4.6, Leading zero omitted, Abs format (unit mm)*
G04 Created by KiCad (PCBNEW (6.0.1)) date 2022-07-12 15:15:51*
%MOMM*%
%LPD*%
G01*
G04 APERTURE LIST*
G04 Aperture macros list*
%AMRoundRect*
0 Rectangle with rounded corners*
0 $1 Rounding radius*
0 $2 $3 $4 $5 $6 $7 $8 $9 X,Y pos of 4 corners*
0 Add a 4 corners polygon primitive as box body*
4,1,4,$2,$3,$4,$5,$6,$7,$8,$9,$2,$3,0*
0 Add four circle primitives for the rounded corners*
1,1,$1+$1,$2,$3*
1,1,$1+$1,$4,$5*
1,1,$1+$1,$6,$7*
1,1,$1+$1,$8,$9*
0 Add four rect primitives between the rounded corners*
20,1,$1+$1,$2,$3,$4,$5,0*
20,1,$1+$1,$4,$5,$6,$7,0*
20,1,$1+$1,$6,$7,$8,$9,0*
20,1,$1+$1,$8,$9,$2,$3,0*%
G04 Aperture macros list end*
%ADD10C,0.150000*%
%ADD11C,0.153000*%
%ADD12C,0.300000*%
%ADD13C,0.120000*%
%ADD14C,5.500000*%
%ADD15RoundRect,0.250000X-0.675000X0.600000X-0.675000X-0.600000X0.675000X-0.600000X0.675000X0.600000X0*%
%ADD16O,1.850000X1.700000*%
%ADD17R,1.700000X1.700000*%
%ADD18O,1.700000X1.700000*%
%ADD19C,0.900000*%
%ADD20C,1.700000*%
%ADD21C,1.000000*%
%ADD22R,0.700000X1.300000*%
%ADD23R,1.200000X1.400000*%
%ADD24R,1.200000X2.000000*%
%ADD25C,1.100000*%
%ADD26R,2.000000X1.500000*%
%ADD27R,2.000000X3.800000*%
G04 APERTURE END LIST*
D10*
X85200000Y-131900000D02*
X85200000Y-133800000D01*
X103125000Y-79125000D02*
X98125000Y-79125000D01*
X111597500Y-128920000D02*
X88697500Y-128920000D01*
X111950000Y-131950000D02*
X116950000Y-131950000D01*
X92697500Y-126320000D02*
X92197500Y-125920000D01*
X92197500Y-125920000D02*
X92197500Y-125520000D01*
X92197500Y-125520000D02*
X92697500Y-125120000D01*
X92697500Y-125120000D02*
X92697500Y-126320000D01*
G36*
X92697500Y-126320000D02*
G01*
X92197500Y-125920000D01*
X92197500Y-125520000D01*
X92697500Y-125120000D01*
X92697500Y-126320000D01*
G37*
X92697500Y-126320000D02*
X92197500Y-125920000D01*
X92197500Y-125520000D01*
X92697500Y-125120000D01*
X92697500Y-126320000D01*
X88162500Y-127862500D02*
X88162500Y-127037500D01*
X124925000Y-123150000D02*
X124925000Y-118150000D01*
X124902500Y-88705000D02*
X126802500Y-88705000D01*
X109200000Y-133825000D02*
X109197500Y-124720000D01*
X111597500Y-131320000D02*
X88697500Y-131320000D01*
X111950000Y-133850000D02*
X111950000Y-131950000D01*
X83450000Y-88425000D02*
X82550000Y-89325000D01*
X81750000Y-85825000D02*
X80850000Y-86725000D01*
X124900000Y-103000000D02*
X126800000Y-103000000D01*
X87925000Y-127862500D02*
X88400000Y-127862500D01*
X88400000Y-127862500D02*
X88400000Y-128237500D01*
X88400000Y-128237500D02*
X87925000Y-128237500D01*
X87925000Y-128237500D02*
X87925000Y-127862500D01*
X86000000Y-123400000D02*
X86300000Y-123100000D01*
X83225000Y-79075000D02*
X83225000Y-77175000D01*
X92997500Y-126020000D02*
X93397500Y-126220000D01*
X87464331Y-127524458D02*
G75*
G03*
X87268033Y-127114473I-443068J39848D01*
G01*
X77150000Y-112225000D02*
X70250000Y-112225000D01*
X87802500Y-127542500D02*
G75*
G03*
X87512500Y-126842500I-862703J52666D01*
G01*
X77200000Y-107225000D02*
X70300000Y-107225000D01*
X99931826Y-101110000D02*
G75*
G03*
X99931826Y-101110000I-806226J0D01*
G01*
X99181502Y-101110000D02*
G75*
G03*
X99181502Y-101110000I-55902J0D01*
G01*
X84350000Y-85825000D02*
X83450000Y-86725000D01*
X86000000Y-123400000D02*
X85700000Y-123100000D01*
X97700600Y-101685000D02*
X98550600Y-101685000D01*
X98550600Y-101685000D02*
X98550600Y-102535000D01*
X98550600Y-102535000D02*
X97700600Y-102535000D01*
X97700600Y-102535000D02*
X97700600Y-101685000D01*
X99181502Y-103110000D02*
G75*
G03*
X99181502Y-103110000I-55902J0D01*
G01*
X77150000Y-117225000D02*
X70250000Y-117225000D01*
X88262500Y-127037500D02*
G75*
G03*
X88262500Y-127037500I-100000J0D01*
G01*
X124925000Y-118150000D02*
X126825000Y-118150000D01*
X103125000Y-77225000D02*
X103125000Y-79125000D01*
X98550600Y-102535000D02*
X99125600Y-103110000D01*
X97931826Y-101110000D02*
G75*
G03*
X97931826Y-101110000I-806226J0D01*
G01*
X80850000Y-85825000D02*
X84350000Y-85825000D01*
X84350000Y-85825000D02*
X84350000Y-89325000D01*
X84350000Y-89325000D02*
X80850000Y-89325000D01*
X80850000Y-89325000D02*
X80850000Y-85825000D01*
X77200000Y-99725000D02*
X70300000Y-99725000D01*
X92997500Y-125720000D02*
X93497500Y-125720000D01*
X81750000Y-88425000D02*
X80850000Y-89325000D01*
X86000000Y-121900000D02*
X86000000Y-123400000D01*
X82575000Y-88425000D02*
X81675000Y-89325000D01*
X98125000Y-79125000D02*
X98125000Y-77225000D01*
X124902500Y-95405000D02*
X124902500Y-88705000D01*
X126800000Y-109700000D02*
X124900000Y-109700000D01*
X97700600Y-102535000D02*
X97125600Y-103110000D01*
X87104255Y-127452500D02*
G75*
G03*
X87104255Y-127452500I-51755J0D01*
G01*
X97125600Y-101110000D02*
X97700600Y-101685000D01*
X82000000Y-133800000D02*
X82000000Y-131900000D01*
X82000000Y-131900000D02*
X85200000Y-131900000D01*
X91797500Y-125520000D02*
X92197500Y-125520000D01*
X92197500Y-125520000D02*
X92197500Y-125920000D01*
X92197500Y-125920000D02*
X91797500Y-125920000D01*
X91797500Y-125920000D02*
X91797500Y-125520000D01*
X97181502Y-101110000D02*
G75*
G03*
X97181502Y-101110000I-55902J0D01*
G01*
X126825000Y-123150000D02*
X124925000Y-123150000D01*
X83425000Y-85825000D02*
X82525000Y-86725000D01*
X99974128Y-103110000D02*
G75*
G03*
X99974128Y-103110000I-848528J0D01*
G01*
X84350000Y-88425000D02*
X83450000Y-89325000D01*
X77200000Y-104725000D02*
X70300000Y-104725000D01*
X82550000Y-85825000D02*
X81650000Y-86725000D01*
X126802500Y-95405000D02*
X124902500Y-95405000D01*
X97980000Y-103110000D02*
G75*
G03*
X97980000Y-103110000I-854400J0D01*
G01*
X91300000Y-133800000D02*
X91297500Y-124850000D01*
X77200000Y-102225000D02*
X70300000Y-102225000D01*
X116950000Y-131950000D02*
X116950000Y-133850000D01*
X77150000Y-109725000D02*
X70250000Y-109725000D01*
X77150000Y-114725000D02*
X70250000Y-114725000D01*
X91225000Y-79075000D02*
X83225000Y-79075000D01*
X92997500Y-125420000D02*
X93397500Y-125220000D01*
X99125600Y-101110000D02*
X98550600Y-101685000D01*
X91225000Y-77175000D02*
X91225000Y-79075000D01*
X93897500Y-133800000D02*
X93897500Y-124820000D01*
X97181502Y-103110000D02*
G75*
G03*
X97181502Y-103110000I-55902J0D01*
G01*
X124900000Y-109700000D02*
X124900000Y-103000000D01*
D11*
X102402261Y-126272380D02*
X102402261Y-125272380D01*
X102021309Y-125272380D01*
X101926071Y-125320000D01*
X101878452Y-125367619D01*
X101830833Y-125462857D01*
X101830833Y-125605714D01*
X101878452Y-125700952D01*
X101926071Y-125748571D01*
X102021309Y-125796190D01*
X102402261Y-125796190D01*
X101497500Y-125272380D02*
X101259404Y-126272380D01*
X101068928Y-125558095D01*
X100878452Y-126272380D01*
X100640357Y-125272380D01*
X100259404Y-126272380D02*
X100259404Y-125272380D01*
X99926071Y-125986666D01*
X99592738Y-125272380D01*
X99592738Y-126272380D01*
X120815476Y-119702380D02*
X120196428Y-119702380D01*
X120529761Y-120083333D01*
X120386904Y-120083333D01*
X120291666Y-120130952D01*
X120244047Y-120178571D01*
X120196428Y-120273809D01*
X120196428Y-120511904D01*
X120244047Y-120607142D01*
X120291666Y-120654761D01*
X120386904Y-120702380D01*
X120672619Y-120702380D01*
X120767857Y-120654761D01*
X120815476Y-120607142D01*
X119910714Y-119702380D02*
X119339285Y-119702380D01*
X119625000Y-120702380D02*
X119625000Y-119702380D01*
X119101190Y-119702380D02*
X118434523Y-120702380D01*
X118434523Y-119702380D02*
X119101190Y-120702380D01*
X86177619Y-129947380D02*
X86177619Y-129280714D01*
X86177619Y-129375952D02*
X86130000Y-129328333D01*
X86034761Y-129280714D01*
X85891904Y-129280714D01*
X85796666Y-129328333D01*
X85749047Y-129423571D01*
X85749047Y-129947380D01*
X85749047Y-129423571D02*
X85701428Y-129328333D01*
X85606190Y-129280714D01*
X85463333Y-129280714D01*
X85368095Y-129328333D01*
X85320476Y-129423571D01*
X85320476Y-129947380D01*
X84415714Y-129947380D02*
X84415714Y-129423571D01*
X84463333Y-129328333D01*
X84558571Y-129280714D01*
X84749047Y-129280714D01*
X84844285Y-129328333D01*
X84415714Y-129899761D02*
X84510952Y-129947380D01*
X84749047Y-129947380D01*
X84844285Y-129899761D01*
X84891904Y-129804523D01*
X84891904Y-129709285D01*
X84844285Y-129614047D01*
X84749047Y-129566428D01*
X84510952Y-129566428D01*
X84415714Y-129518809D01*
X84034761Y-129947380D02*
X83510952Y-129280714D01*
X84034761Y-129280714D02*
X83510952Y-129947380D01*
X81939523Y-129280714D02*
X81939523Y-129947380D01*
X82177619Y-128899761D02*
X82415714Y-129614047D01*
X81796666Y-129614047D01*
X81463333Y-129899761D02*
X81368095Y-129947380D01*
X81177619Y-129947380D01*
X81082380Y-129899761D01*
X81034761Y-129804523D01*
X81034761Y-129756904D01*
X81082380Y-129661666D01*
X81177619Y-129614047D01*
X81320476Y-129614047D01*
X81415714Y-129566428D01*
X81463333Y-129471190D01*
X81463333Y-129423571D01*
X81415714Y-129328333D01*
X81320476Y-129280714D01*
X81177619Y-129280714D01*
X81082380Y-129328333D01*
X84510952Y-131557380D02*
X84987142Y-131557380D01*
X84987142Y-130557380D01*
X84177619Y-131557380D02*
X84177619Y-130890714D01*
X84177619Y-130557380D02*
X84225238Y-130605000D01*
X84177619Y-130652619D01*
X84130000Y-130605000D01*
X84177619Y-130557380D01*
X84177619Y-130652619D01*
X83701428Y-131557380D02*
X83701428Y-130557380D01*
X83320476Y-130557380D01*
X83225238Y-130605000D01*
X83177619Y-130652619D01*
X83130000Y-130747857D01*
X83130000Y-130890714D01*
X83177619Y-130985952D01*
X83225238Y-131033571D01*
X83320476Y-131081190D01*
X83701428Y-131081190D01*
X82558571Y-131557380D02*
X82653809Y-131509761D01*
X82701428Y-131462142D01*
X82749047Y-131366904D01*
X82749047Y-131081190D01*
X82701428Y-130985952D01*
X82653809Y-130938333D01*
X82558571Y-130890714D01*
X82415714Y-130890714D01*
X82320476Y-130938333D01*
X82272857Y-130985952D01*
X82225238Y-131081190D01*
X82225238Y-131366904D01*
X82272857Y-131462142D01*
X82320476Y-131509761D01*
X82415714Y-131557380D01*
X82558571Y-131557380D01*
X86788095Y-120578571D02*
X86645238Y-120626190D01*
X86597619Y-120673809D01*
X86550000Y-120769047D01*
X86550000Y-120911904D01*
X86597619Y-121007142D01*
X86645238Y-121054761D01*
X86740476Y-121102380D01*
X87121428Y-121102380D01*
X87121428Y-120102380D01*
X86788095Y-120102380D01*
X86692857Y-120150000D01*
X86645238Y-120197619D01*
X86597619Y-120292857D01*
X86597619Y-120388095D01*
X86645238Y-120483333D01*
X86692857Y-120530952D01*
X86788095Y-120578571D01*
X87121428Y-120578571D01*
X86169047Y-120816666D02*
X85692857Y-120816666D01*
X86264285Y-121102380D02*
X85930952Y-120102380D01*
X85597619Y-121102380D01*
X85407142Y-120102380D02*
X84835714Y-120102380D01*
X85121428Y-121102380D02*
X85121428Y-120102380D01*
X120236904Y-115650000D02*
X120332142Y-115602380D01*
X120475000Y-115602380D01*
X120617857Y-115650000D01*
X120713095Y-115745238D01*
X120760714Y-115840476D01*
X120808333Y-116030952D01*
X120808333Y-116173809D01*
X120760714Y-116364285D01*
X120713095Y-116459523D01*
X120617857Y-116554761D01*
X120475000Y-116602380D01*
X120379761Y-116602380D01*
X120236904Y-116554761D01*
X120189285Y-116507142D01*
X120189285Y-116173809D01*
X120379761Y-116173809D01*
X119760714Y-116602380D02*
X119760714Y-115602380D01*
X119189285Y-116602380D01*
X119189285Y-115602380D01*
X118713095Y-116602380D02*
X118713095Y-115602380D01*
X118475000Y-115602380D01*
X118332142Y-115650000D01*
X118236904Y-115745238D01*
X118189285Y-115840476D01*
X118141666Y-116030952D01*
X118141666Y-116173809D01*
X118189285Y-116364285D01*
X118236904Y-116459523D01*
X118332142Y-116554761D01*
X118475000Y-116602380D01*
X118713095Y-116602380D01*
X90558214Y-78098571D02*
X90224880Y-78098571D01*
X90082023Y-78622380D02*
X90558214Y-78622380D01*
X90558214Y-77622380D01*
X90082023Y-77622380D01*
X89748690Y-77622380D02*
X89082023Y-78622380D01*
X89082023Y-77622380D02*
X89748690Y-78622380D01*
X88843928Y-77622380D02*
X88272500Y-77622380D01*
X88558214Y-78622380D02*
X88558214Y-77622380D01*
X86701071Y-78622380D02*
X87177261Y-78622380D01*
X87177261Y-77622380D01*
X86367738Y-78098571D02*
X86034404Y-78098571D01*
X85891547Y-78622380D02*
X86367738Y-78622380D01*
X86367738Y-77622380D01*
X85891547Y-77622380D01*
X85462976Y-78622380D02*
X85462976Y-77622380D01*
X85224880Y-77622380D01*
X85082023Y-77670000D01*
X84986785Y-77765238D01*
X84939166Y-77860476D01*
X84891547Y-78050952D01*
X84891547Y-78193809D01*
X84939166Y-78384285D01*
X84986785Y-78479523D01*
X85082023Y-78574761D01*
X85224880Y-78622380D01*
X85462976Y-78622380D01*
X84510595Y-78574761D02*
X84367738Y-78622380D01*
X84129642Y-78622380D01*
X84034404Y-78574761D01*
X83986785Y-78527142D01*
X83939166Y-78431904D01*
X83939166Y-78336666D01*
X83986785Y-78241428D01*
X84034404Y-78193809D01*
X84129642Y-78146190D01*
X84320119Y-78098571D01*
X84415357Y-78050952D01*
X84462976Y-78003333D01*
X84510595Y-77908095D01*
X84510595Y-77812857D01*
X84462976Y-77717619D01*
X84415357Y-77670000D01*
X84320119Y-77622380D01*
X84082023Y-77622380D01*
X83939166Y-77670000D01*
X72111904Y-102977380D02*
X71540476Y-102977380D01*
X71826190Y-103977380D02*
X71826190Y-102977380D01*
X71302380Y-102977380D02*
X70635714Y-103977380D01*
X70635714Y-102977380D02*
X71302380Y-103977380D01*
X75636904Y-97597380D02*
X75970238Y-97121190D01*
X76208333Y-97597380D02*
X76208333Y-96597380D01*
X75827380Y-96597380D01*
X75732142Y-96645000D01*
X75684523Y-96692619D01*
X75636904Y-96787857D01*
X75636904Y-96930714D01*
X75684523Y-97025952D01*
X75732142Y-97073571D01*
X75827380Y-97121190D01*
X76208333Y-97121190D01*
X75208333Y-97597380D02*
X75208333Y-96597380D01*
X74827380Y-96597380D01*
X74732142Y-96645000D01*
X74684523Y-96692619D01*
X74636904Y-96787857D01*
X74636904Y-96930714D01*
X74684523Y-97025952D01*
X74732142Y-97073571D01*
X74827380Y-97121190D01*
X75208333Y-97121190D01*
X73732142Y-97597380D02*
X74208333Y-97597380D01*
X74208333Y-96597380D01*
X73398809Y-97597380D02*
X73398809Y-96597380D01*
X72922619Y-97597380D02*
X72922619Y-96597380D01*
X72684523Y-96597380D01*
X72541666Y-96645000D01*
X72446428Y-96740238D01*
X72398809Y-96835476D01*
X72351190Y-97025952D01*
X72351190Y-97168809D01*
X72398809Y-97359285D01*
X72446428Y-97454523D01*
X72541666Y-97549761D01*
X72684523Y-97597380D01*
X72922619Y-97597380D01*
X71970238Y-97311666D02*
X71494047Y-97311666D01*
X72065476Y-97597380D02*
X71732142Y-96597380D01*
X71398809Y-97597380D01*
X70494047Y-97597380D02*
X70827380Y-97121190D01*
X71065476Y-97597380D02*
X71065476Y-96597380D01*
X70684523Y-96597380D01*
X70589285Y-96645000D01*
X70541666Y-96692619D01*
X70494047Y-96787857D01*
X70494047Y-96930714D01*
X70541666Y-97025952D01*
X70589285Y-97073571D01*
X70684523Y-97121190D01*
X71065476Y-97121190D01*
X75136904Y-98921666D02*
X74660714Y-98921666D01*
X75232142Y-99207380D02*
X74898809Y-98207380D01*
X74565476Y-99207380D01*
X73708333Y-99207380D02*
X74279761Y-99207380D01*
X73994047Y-99207380D02*
X73994047Y-98207380D01*
X74089285Y-98350238D01*
X74184523Y-98445476D01*
X74279761Y-98493095D01*
X73279761Y-99207380D02*
X73279761Y-98207380D01*
X72946428Y-98921666D01*
X72613095Y-98207380D01*
X72613095Y-99207380D01*
X71994047Y-98635952D02*
X72089285Y-98588333D01*
X72136904Y-98540714D01*
X72184523Y-98445476D01*
X72184523Y-98397857D01*
X72136904Y-98302619D01*
X72089285Y-98255000D01*
X71994047Y-98207380D01*
X71803571Y-98207380D01*
X71708333Y-98255000D01*
X71660714Y-98302619D01*
X71613095Y-98397857D01*
X71613095Y-98445476D01*
X71660714Y-98540714D01*
X71708333Y-98588333D01*
X71803571Y-98635952D01*
X71994047Y-98635952D01*
X72089285Y-98683571D01*
X72136904Y-98731190D01*
X72184523Y-98826428D01*
X72184523Y-99016904D01*
X72136904Y-99112142D01*
X72089285Y-99159761D01*
X71994047Y-99207380D01*
X71803571Y-99207380D01*
X71708333Y-99159761D01*
X71660714Y-99112142D01*
X71613095Y-99016904D01*
X71613095Y-98826428D01*
X71660714Y-98731190D01*
X71708333Y-98683571D01*
X71803571Y-98635952D01*
X75815476Y-119852380D02*
X76291666Y-119852380D01*
X76339285Y-120328571D01*
X76291666Y-120280952D01*
X76196428Y-120233333D01*
X75958333Y-120233333D01*
X75863095Y-120280952D01*
X75815476Y-120328571D01*
X75767857Y-120423809D01*
X75767857Y-120661904D01*
X75815476Y-120757142D01*
X75863095Y-120804761D01*
X75958333Y-120852380D01*
X76196428Y-120852380D01*
X76291666Y-120804761D01*
X76339285Y-120757142D01*
X75482142Y-119852380D02*
X75148809Y-120852380D01*
X74815476Y-119852380D01*
X116552380Y-125936904D02*
X116552380Y-125460714D01*
X117028571Y-125413095D01*
X116980952Y-125460714D01*
X116933333Y-125555952D01*
X116933333Y-125794047D01*
X116980952Y-125889285D01*
X117028571Y-125936904D01*
X117123809Y-125984523D01*
X117361904Y-125984523D01*
X117457142Y-125936904D01*
X117504761Y-125889285D01*
X117552380Y-125794047D01*
X117552380Y-125555952D01*
X117504761Y-125460714D01*
X117457142Y-125413095D01*
X117552380Y-126984523D02*
X117076190Y-126651190D01*
X117552380Y-126413095D02*
X116552380Y-126413095D01*
X116552380Y-126794047D01*
X116600000Y-126889285D01*
X116647619Y-126936904D01*
X116742857Y-126984523D01*
X116885714Y-126984523D01*
X116980952Y-126936904D01*
X117028571Y-126889285D01*
X117076190Y-126794047D01*
X117076190Y-126413095D01*
X116552380Y-127317857D02*
X117552380Y-127984523D01*
X116552380Y-127984523D02*
X117552380Y-127317857D01*
D12*
X106025000Y-106794047D02*
X106025000Y-105094047D01*
X105525000Y-106308333D01*
X105025000Y-105094047D01*
X105025000Y-106794047D01*
X103667857Y-105660714D02*
X103667857Y-106794047D01*
X104310714Y-105660714D02*
X104310714Y-106551190D01*
X104239285Y-106713095D01*
X104096428Y-106794047D01*
X103882142Y-106794047D01*
X103739285Y-106713095D01*
X103667857Y-106632142D01*
X102739285Y-106794047D02*
X102882142Y-106713095D01*
X102953571Y-106551190D01*
X102953571Y-105094047D01*
X102382142Y-105660714D02*
X101810714Y-105660714D01*
X102167857Y-105094047D02*
X102167857Y-106551190D01*
X102096428Y-106713095D01*
X101953571Y-106794047D01*
X101810714Y-106794047D01*
X101310714Y-106794047D02*
X101310714Y-105660714D01*
X101310714Y-105094047D02*
X101382142Y-105175000D01*
X101310714Y-105255952D01*
X101239285Y-105175000D01*
X101310714Y-105094047D01*
X101310714Y-105255952D01*
X99953571Y-106713095D02*
X100096428Y-106794047D01*
X100382142Y-106794047D01*
X100525000Y-106713095D01*
X100596428Y-106632142D01*
X100667857Y-106470238D01*
X100667857Y-105984523D01*
X100596428Y-105822619D01*
X100525000Y-105741666D01*
X100382142Y-105660714D01*
X100096428Y-105660714D01*
X99953571Y-105741666D01*
X99096428Y-106794047D02*
X99239285Y-106713095D01*
X99310714Y-106632142D01*
X99382142Y-106470238D01*
X99382142Y-105984523D01*
X99310714Y-105822619D01*
X99239285Y-105741666D01*
X99096428Y-105660714D01*
X98882142Y-105660714D01*
X98739285Y-105741666D01*
X98667857Y-105822619D01*
X98596428Y-105984523D01*
X98596428Y-106470238D01*
X98667857Y-106632142D01*
X98739285Y-106713095D01*
X98882142Y-106794047D01*
X99096428Y-106794047D01*
X97953571Y-105660714D02*
X97953571Y-107360714D01*
X97953571Y-105741666D02*
X97810714Y-105660714D01*
X97525000Y-105660714D01*
X97382142Y-105741666D01*
X97310714Y-105822619D01*
X97239285Y-105984523D01*
X97239285Y-106470238D01*
X97310714Y-106632142D01*
X97382142Y-106713095D01*
X97525000Y-106794047D01*
X97810714Y-106794047D01*
X97953571Y-106713095D01*
X96810714Y-105660714D02*
X96239285Y-105660714D01*
X96596428Y-105094047D02*
X96596428Y-106551190D01*
X96525000Y-106713095D01*
X96382142Y-106794047D01*
X96239285Y-106794047D01*
X95167857Y-106713095D02*
X95310714Y-106794047D01*
X95596428Y-106794047D01*
X95739285Y-106713095D01*
X95810714Y-106551190D01*
X95810714Y-105903571D01*
X95739285Y-105741666D01*
X95596428Y-105660714D01*
X95310714Y-105660714D01*
X95167857Y-105741666D01*
X95096428Y-105903571D01*
X95096428Y-106065476D01*
X95810714Y-106227380D01*
X94453571Y-106794047D02*
X94453571Y-105660714D01*
X94453571Y-105984523D02*
X94382142Y-105822619D01*
X94310714Y-105741666D01*
X94167857Y-105660714D01*
X94025000Y-105660714D01*
X93025000Y-105903571D02*
X93525000Y-105903571D01*
X93525000Y-106794047D02*
X93525000Y-105094047D01*
X92810714Y-105094047D01*
X91382142Y-106632142D02*
X91453571Y-106713095D01*
X91667857Y-106794047D01*
X91810714Y-106794047D01*
X92025000Y-106713095D01*
X92167857Y-106551190D01*
X92239285Y-106389285D01*
X92310714Y-106065476D01*
X92310714Y-105822619D01*
X92239285Y-105498809D01*
X92167857Y-105336904D01*
X92025000Y-105175000D01*
X91810714Y-105094047D01*
X91667857Y-105094047D01*
X91453571Y-105175000D01*
X91382142Y-105255952D01*
X90810714Y-106713095D02*
X90596428Y-106794047D01*
X90239285Y-106794047D01*
X90096428Y-106713095D01*
X90025000Y-106632142D01*
X89953571Y-106470238D01*
X89953571Y-106308333D01*
X90025000Y-106146428D01*
X90096428Y-106065476D01*
X90239285Y-105984523D01*
X90525000Y-105903571D01*
X90667857Y-105822619D01*
X90739285Y-105741666D01*
X90810714Y-105579761D01*
X90810714Y-105417857D01*
X90739285Y-105255952D01*
X90667857Y-105175000D01*
X90525000Y-105094047D01*
X90167857Y-105094047D01*
X89953571Y-105175000D01*
D11*
X72736904Y-100525000D02*
X72832142Y-100477380D01*
X72975000Y-100477380D01*
X73117857Y-100525000D01*
X73213095Y-100620238D01*
X73260714Y-100715476D01*
X73308333Y-100905952D01*
X73308333Y-101048809D01*
X73260714Y-101239285D01*
X73213095Y-101334523D01*
X73117857Y-101429761D01*
X72975000Y-101477380D01*
X72879761Y-101477380D01*
X72736904Y-101429761D01*
X72689285Y-101382142D01*
X72689285Y-101048809D01*
X72879761Y-101048809D01*
X72260714Y-101477380D02*
X72260714Y-100477380D01*
X71689285Y-101477380D01*
X71689285Y-100477380D01*
X71213095Y-101477380D02*
X71213095Y-100477380D01*
X70975000Y-100477380D01*
X70832142Y-100525000D01*
X70736904Y-100620238D01*
X70689285Y-100715476D01*
X70641666Y-100905952D01*
X70641666Y-101048809D01*
X70689285Y-101239285D01*
X70736904Y-101334523D01*
X70832142Y-101429761D01*
X70975000Y-101477380D01*
X71213095Y-101477380D01*
X92340476Y-90885714D02*
X92340476Y-91552380D01*
X92578571Y-90504761D02*
X92816666Y-91219047D01*
X92197619Y-91219047D01*
X91864285Y-91504761D02*
X91721428Y-91552380D01*
X91483333Y-91552380D01*
X91388095Y-91504761D01*
X91340476Y-91457142D01*
X91292857Y-91361904D01*
X91292857Y-91266666D01*
X91340476Y-91171428D01*
X91388095Y-91123809D01*
X91483333Y-91076190D01*
X91673809Y-91028571D01*
X91769047Y-90980952D01*
X91816666Y-90933333D01*
X91864285Y-90838095D01*
X91864285Y-90742857D01*
X91816666Y-90647619D01*
X91769047Y-90600000D01*
X91673809Y-90552380D01*
X91435714Y-90552380D01*
X91292857Y-90600000D01*
X90292857Y-91457142D02*
X90340476Y-91504761D01*
X90483333Y-91552380D01*
X90578571Y-91552380D01*
X90721428Y-91504761D01*
X90816666Y-91409523D01*
X90864285Y-91314285D01*
X90911904Y-91123809D01*
X90911904Y-90980952D01*
X90864285Y-90790476D01*
X90816666Y-90695238D01*
X90721428Y-90600000D01*
X90578571Y-90552380D01*
X90483333Y-90552380D01*
X90340476Y-90600000D01*
X90292857Y-90647619D01*
X89388095Y-91552380D02*
X89864285Y-91552380D01*
X89864285Y-90552380D01*
X114502380Y-126155952D02*
X114502380Y-125679761D01*
X114978571Y-125632142D01*
X114930952Y-125679761D01*
X114883333Y-125775000D01*
X114883333Y-126013095D01*
X114930952Y-126108333D01*
X114978571Y-126155952D01*
X115073809Y-126203571D01*
X115311904Y-126203571D01*
X115407142Y-126155952D01*
X115454761Y-126108333D01*
X115502380Y-126013095D01*
X115502380Y-125775000D01*
X115454761Y-125679761D01*
X115407142Y-125632142D01*
X114502380Y-126489285D02*
X114502380Y-127060714D01*
X115502380Y-126775000D02*
X114502380Y-126775000D01*
X114502380Y-127298809D02*
X115502380Y-127965476D01*
X114502380Y-127965476D02*
X115502380Y-127298809D01*
X110540476Y-129647380D02*
X111016666Y-129647380D01*
X111064285Y-130123571D01*
X111016666Y-130075952D01*
X110921428Y-130028333D01*
X110683333Y-130028333D01*
X110588095Y-130075952D01*
X110540476Y-130123571D01*
X110492857Y-130218809D01*
X110492857Y-130456904D01*
X110540476Y-130552142D01*
X110588095Y-130599761D01*
X110683333Y-130647380D01*
X110921428Y-130647380D01*
X111016666Y-130599761D01*
X111064285Y-130552142D01*
X110207142Y-129647380D02*
X109873809Y-130647380D01*
X109540476Y-129647380D01*
X126372619Y-93938095D02*
X125563095Y-93938095D01*
X125467857Y-93890476D01*
X125420238Y-93842857D01*
X125372619Y-93747619D01*
X125372619Y-93557142D01*
X125420238Y-93461904D01*
X125467857Y-93414285D01*
X125563095Y-93366666D01*
X126372619Y-93366666D01*
X125420238Y-92938095D02*
X125372619Y-92795238D01*
X125372619Y-92557142D01*
X125420238Y-92461904D01*
X125467857Y-92414285D01*
X125563095Y-92366666D01*
X125658333Y-92366666D01*
X125753571Y-92414285D01*
X125801190Y-92461904D01*
X125848809Y-92557142D01*
X125896428Y-92747619D01*
X125944047Y-92842857D01*
X125991666Y-92890476D01*
X126086904Y-92938095D01*
X126182142Y-92938095D01*
X126277380Y-92890476D01*
X126325000Y-92842857D01*
X126372619Y-92747619D01*
X126372619Y-92509523D01*
X126325000Y-92366666D01*
X125896428Y-91604761D02*
X125848809Y-91461904D01*
X125801190Y-91414285D01*
X125705952Y-91366666D01*
X125563095Y-91366666D01*
X125467857Y-91414285D01*
X125420238Y-91461904D01*
X125372619Y-91557142D01*
X125372619Y-91938095D01*
X126372619Y-91938095D01*
X126372619Y-91604761D01*
X126325000Y-91509523D01*
X126277380Y-91461904D01*
X126182142Y-91414285D01*
X126086904Y-91414285D01*
X125991666Y-91461904D01*
X125944047Y-91509523D01*
X125896428Y-91604761D01*
X125896428Y-91938095D01*
X125372619Y-90414285D02*
X125372619Y-90985714D01*
X125372619Y-90700000D02*
X126372619Y-90700000D01*
X126229761Y-90795238D01*
X126134523Y-90890476D01*
X126086904Y-90985714D01*
X76392857Y-121952380D02*
X76059523Y-122952380D01*
X75726190Y-121952380D01*
X75059523Y-122428571D02*
X74916666Y-122476190D01*
X74869047Y-122523809D01*
X74821428Y-122619047D01*
X74821428Y-122761904D01*
X74869047Y-122857142D01*
X74916666Y-122904761D01*
X75011904Y-122952380D01*
X75392857Y-122952380D01*
X75392857Y-121952380D01*
X75059523Y-121952380D01*
X74964285Y-122000000D01*
X74916666Y-122047619D01*
X74869047Y-122142857D01*
X74869047Y-122238095D01*
X74916666Y-122333333D01*
X74964285Y-122380952D01*
X75059523Y-122428571D01*
X75392857Y-122428571D01*
X74440476Y-122666666D02*
X73964285Y-122666666D01*
X74535714Y-122952380D02*
X74202380Y-121952380D01*
X73869047Y-122952380D01*
X73678571Y-121952380D02*
X73107142Y-121952380D01*
X73392857Y-122952380D02*
X73392857Y-121952380D01*
X95758809Y-109867380D02*
X95425476Y-110867380D01*
X95092142Y-109867380D01*
X94235000Y-110867380D02*
X94806428Y-110867380D01*
X94520714Y-110867380D02*
X94520714Y-109867380D01*
X94615952Y-110010238D01*
X94711190Y-110105476D01*
X94806428Y-110153095D01*
X93806428Y-110772142D02*
X93758809Y-110819761D01*
X93806428Y-110867380D01*
X93854047Y-110819761D01*
X93806428Y-110772142D01*
X93806428Y-110867380D01*
X93139761Y-109867380D02*
X93044523Y-109867380D01*
X92949285Y-109915000D01*
X92901666Y-109962619D01*
X92854047Y-110057857D01*
X92806428Y-110248333D01*
X92806428Y-110486428D01*
X92854047Y-110676904D01*
X92901666Y-110772142D01*
X92949285Y-110819761D01*
X93044523Y-110867380D01*
X93139761Y-110867380D01*
X93235000Y-110819761D01*
X93282619Y-110772142D01*
X93330238Y-110676904D01*
X93377857Y-110486428D01*
X93377857Y-110248333D01*
X93330238Y-110057857D01*
X93282619Y-109962619D01*
X93235000Y-109915000D01*
X93139761Y-109867380D01*
X112970476Y-123407619D02*
X112922857Y-123360000D01*
X112827619Y-123312380D01*
X112589523Y-123312380D01*
X112494285Y-123360000D01*
X112446666Y-123407619D01*
X112399047Y-123502857D01*
X112399047Y-123598095D01*
X112446666Y-123740952D01*
X113018095Y-124312380D01*
X112399047Y-124312380D01*
X112018095Y-124264761D02*
X111875238Y-124312380D01*
X111637142Y-124312380D01*
X111541904Y-124264761D01*
X111494285Y-124217142D01*
X111446666Y-124121904D01*
X111446666Y-124026666D01*
X111494285Y-123931428D01*
X111541904Y-123883809D01*
X111637142Y-123836190D01*
X111827619Y-123788571D01*
X111922857Y-123740952D01*
X111970476Y-123693333D01*
X112018095Y-123598095D01*
X112018095Y-123502857D01*
X111970476Y-123407619D01*
X111922857Y-123360000D01*
X111827619Y-123312380D01*
X111589523Y-123312380D01*
X111446666Y-123360000D01*
X111018095Y-124312380D02*
X111018095Y-123312380D01*
X110780000Y-123312380D01*
X110637142Y-123360000D01*
X110541904Y-123455238D01*
X110494285Y-123550476D01*
X110446666Y-123740952D01*
X110446666Y-123883809D01*
X110494285Y-124074285D01*
X110541904Y-124169523D01*
X110637142Y-124264761D01*
X110780000Y-124312380D01*
X111018095Y-124312380D01*
X110065714Y-124026666D02*
X109589523Y-124026666D01*
X110160952Y-124312380D02*
X109827619Y-123312380D01*
X109494285Y-124312380D01*
X84385595Y-133023571D02*
X84242738Y-133071190D01*
X84195119Y-133118809D01*
X84147500Y-133214047D01*
X84147500Y-133356904D01*
X84195119Y-133452142D01*
X84242738Y-133499761D01*
X84337976Y-133547380D01*
X84718928Y-133547380D01*
X84718928Y-132547380D01*
X84385595Y-132547380D01*
X84290357Y-132595000D01*
X84242738Y-132642619D01*
X84195119Y-132737857D01*
X84195119Y-132833095D01*
X84242738Y-132928333D01*
X84290357Y-132975952D01*
X84385595Y-133023571D01*
X84718928Y-133023571D01*
X83766547Y-133261666D02*
X83290357Y-133261666D01*
X83861785Y-133547380D02*
X83528452Y-132547380D01*
X83195119Y-133547380D01*
X83004642Y-132547380D02*
X82433214Y-132547380D01*
X82718928Y-133547380D02*
X82718928Y-132547380D01*
X120809523Y-117702380D02*
X120190476Y-117702380D01*
X120523809Y-118083333D01*
X120380952Y-118083333D01*
X120285714Y-118130952D01*
X120238095Y-118178571D01*
X120190476Y-118273809D01*
X120190476Y-118511904D01*
X120238095Y-118607142D01*
X120285714Y-118654761D01*
X120380952Y-118702380D01*
X120666666Y-118702380D01*
X120761904Y-118654761D01*
X120809523Y-118607142D01*
X119190476Y-118702380D02*
X119523809Y-118226190D01*
X119761904Y-118702380D02*
X119761904Y-117702380D01*
X119380952Y-117702380D01*
X119285714Y-117750000D01*
X119238095Y-117797619D01*
X119190476Y-117892857D01*
X119190476Y-118035714D01*
X119238095Y-118130952D01*
X119285714Y-118178571D01*
X119380952Y-118226190D01*
X119761904Y-118226190D01*
X118857142Y-117702380D02*
X118190476Y-118702380D01*
X118190476Y-117702380D02*
X118857142Y-118702380D01*
X87157142Y-101902380D02*
X87157142Y-100902380D01*
X86823809Y-101616666D01*
X86490476Y-100902380D01*
X86490476Y-101902380D01*
X85823809Y-100902380D02*
X85633333Y-100902380D01*
X85538095Y-100950000D01*
X85442857Y-101045238D01*
X85395238Y-101235714D01*
X85395238Y-101569047D01*
X85442857Y-101759523D01*
X85538095Y-101854761D01*
X85633333Y-101902380D01*
X85823809Y-101902380D01*
X85919047Y-101854761D01*
X86014285Y-101759523D01*
X86061904Y-101569047D01*
X86061904Y-101235714D01*
X86014285Y-101045238D01*
X85919047Y-100950000D01*
X85823809Y-100902380D01*
X102077380Y-78622380D02*
X102077380Y-77622380D01*
X101648809Y-77717619D02*
X101601190Y-77670000D01*
X101505952Y-77622380D01*
X101267857Y-77622380D01*
X101172619Y-77670000D01*
X101125000Y-77717619D01*
X101077380Y-77812857D01*
X101077380Y-77908095D01*
X101125000Y-78050952D01*
X101696428Y-78622380D01*
X101077380Y-78622380D01*
X100077380Y-78527142D02*
X100125000Y-78574761D01*
X100267857Y-78622380D01*
X100363095Y-78622380D01*
X100505952Y-78574761D01*
X100601190Y-78479523D01*
X100648809Y-78384285D01*
X100696428Y-78193809D01*
X100696428Y-78050952D01*
X100648809Y-77860476D01*
X100601190Y-77765238D01*
X100505952Y-77670000D01*
X100363095Y-77622380D01*
X100267857Y-77622380D01*
X100125000Y-77670000D01*
X100077380Y-77717619D01*
X99125000Y-78622380D02*
X99696428Y-78622380D01*
X99410714Y-78622380D02*
X99410714Y-77622380D01*
X99505952Y-77765238D01*
X99601190Y-77860476D01*
X99696428Y-77908095D01*
X103363095Y-109922619D02*
X103315476Y-109875000D01*
X103220238Y-109827380D01*
X102982142Y-109827380D01*
X102886904Y-109875000D01*
X102839285Y-109922619D01*
X102791666Y-110017857D01*
X102791666Y-110113095D01*
X102839285Y-110255952D01*
X103410714Y-110827380D01*
X102791666Y-110827380D01*
X102410714Y-109922619D02*
X102363095Y-109875000D01*
X102267857Y-109827380D01*
X102029761Y-109827380D01*
X101934523Y-109875000D01*
X101886904Y-109922619D01*
X101839285Y-110017857D01*
X101839285Y-110113095D01*
X101886904Y-110255952D01*
X102458333Y-110827380D01*
X101839285Y-110827380D01*
X100696428Y-109779761D02*
X101553571Y-111065476D01*
X100458333Y-109827380D02*
X99839285Y-109827380D01*
X100172619Y-110208333D01*
X100029761Y-110208333D01*
X99934523Y-110255952D01*
X99886904Y-110303571D01*
X99839285Y-110398809D01*
X99839285Y-110636904D01*
X99886904Y-110732142D01*
X99934523Y-110779761D01*
X100029761Y-110827380D01*
X100315476Y-110827380D01*
X100410714Y-110779761D01*
X100458333Y-110732142D01*
X98696428Y-109779761D02*
X99553571Y-111065476D01*
X98410714Y-109922619D02*
X98363095Y-109875000D01*
X98267857Y-109827380D01*
X98029761Y-109827380D01*
X97934523Y-109875000D01*
X97886904Y-109922619D01*
X97839285Y-110017857D01*
X97839285Y-110113095D01*
X97886904Y-110255952D01*
X98458333Y-110827380D01*
X97839285Y-110827380D01*
X97458333Y-109922619D02*
X97410714Y-109875000D01*
X97315476Y-109827380D01*
X97077380Y-109827380D01*
X96982142Y-109875000D01*
X96934523Y-109922619D01*
X96886904Y-110017857D01*
X96886904Y-110113095D01*
X96934523Y-110255952D01*
X97505952Y-110827380D01*
X96886904Y-110827380D01*
X102439523Y-108982380D02*
X102439523Y-107982380D01*
X102439523Y-108363333D02*
X102344285Y-108315714D01*
X102153809Y-108315714D01*
X102058571Y-108363333D01*
X102010952Y-108410952D01*
X101963333Y-108506190D01*
X101963333Y-108791904D01*
X102010952Y-108887142D01*
X102058571Y-108934761D01*
X102153809Y-108982380D01*
X102344285Y-108982380D01*
X102439523Y-108934761D01*
X101630000Y-108315714D02*
X101391904Y-108982380D01*
X101153809Y-108315714D02*
X101391904Y-108982380D01*
X101487142Y-109220476D01*
X101534761Y-109268095D01*
X101630000Y-109315714D01*
X100010952Y-108982380D02*
X100010952Y-107982380D01*
X99677619Y-108696666D01*
X99344285Y-107982380D01*
X99344285Y-108982380D01*
X98439523Y-108982380D02*
X98439523Y-108458571D01*
X98487142Y-108363333D01*
X98582380Y-108315714D01*
X98772857Y-108315714D01*
X98868095Y-108363333D01*
X98439523Y-108934761D02*
X98534761Y-108982380D01*
X98772857Y-108982380D01*
X98868095Y-108934761D01*
X98915714Y-108839523D01*
X98915714Y-108744285D01*
X98868095Y-108649047D01*
X98772857Y-108601428D01*
X98534761Y-108601428D01*
X98439523Y-108553809D01*
X98106190Y-108315714D02*
X97725238Y-108315714D01*
X97963333Y-107982380D02*
X97963333Y-108839523D01*
X97915714Y-108934761D01*
X97820476Y-108982380D01*
X97725238Y-108982380D01*
X97487142Y-108315714D02*
X97249047Y-108982380D01*
X97010952Y-108315714D01*
X96296666Y-108458571D02*
X96153809Y-108506190D01*
X96106190Y-108553809D01*
X96058571Y-108649047D01*
X96058571Y-108791904D01*
X96106190Y-108887142D01*
X96153809Y-108934761D01*
X96249047Y-108982380D01*
X96630000Y-108982380D01*
X96630000Y-107982380D01*
X96296666Y-107982380D01*
X96201428Y-108030000D01*
X96153809Y-108077619D01*
X96106190Y-108172857D01*
X96106190Y-108268095D01*
X96153809Y-108363333D01*
X96201428Y-108410952D01*
X96296666Y-108458571D01*
X96630000Y-108458571D01*
X95630000Y-108982380D02*
X95630000Y-108315714D01*
X95630000Y-107982380D02*
X95677619Y-108030000D01*
X95630000Y-108077619D01*
X95582380Y-108030000D01*
X95630000Y-107982380D01*
X95630000Y-108077619D01*
X95153809Y-108315714D02*
X95153809Y-108982380D01*
X95153809Y-108410952D02*
X95106190Y-108363333D01*
X95010952Y-108315714D01*
X94868095Y-108315714D01*
X94772857Y-108363333D01*
X94725238Y-108458571D01*
X94725238Y-108982380D01*
X94249047Y-108315714D02*
X94249047Y-108982380D01*
X94249047Y-108410952D02*
X94201428Y-108363333D01*
X94106190Y-108315714D01*
X93963333Y-108315714D01*
X93868095Y-108363333D01*
X93820476Y-108458571D01*
X93820476Y-108982380D01*
X71465476Y-115527380D02*
X71941666Y-115527380D01*
X71989285Y-116003571D01*
X71941666Y-115955952D01*
X71846428Y-115908333D01*
X71608333Y-115908333D01*
X71513095Y-115955952D01*
X71465476Y-116003571D01*
X71417857Y-116098809D01*
X71417857Y-116336904D01*
X71465476Y-116432142D01*
X71513095Y-116479761D01*
X71608333Y-116527380D01*
X71846428Y-116527380D01*
X71941666Y-116479761D01*
X71989285Y-116432142D01*
X71132142Y-115527380D02*
X70798809Y-116527380D01*
X70465476Y-115527380D01*
X83886904Y-88127380D02*
X83886904Y-87127380D01*
X83553571Y-87841666D01*
X83220238Y-87127380D01*
X83220238Y-88127380D01*
X82791666Y-87841666D02*
X82315476Y-87841666D01*
X82886904Y-88127380D02*
X82553571Y-87127380D01*
X82220238Y-88127380D01*
X81363095Y-87175000D02*
X81458333Y-87127380D01*
X81601190Y-87127380D01*
X81744047Y-87175000D01*
X81839285Y-87270238D01*
X81886904Y-87365476D01*
X81934523Y-87555952D01*
X81934523Y-87698809D01*
X81886904Y-87889285D01*
X81839285Y-87984523D01*
X81744047Y-88079761D01*
X81601190Y-88127380D01*
X81505952Y-88127380D01*
X81363095Y-88079761D01*
X81315476Y-88032142D01*
X81315476Y-87698809D01*
X81505952Y-87698809D01*
X112856666Y-121337619D02*
X112809047Y-121290000D01*
X112713809Y-121242380D01*
X112475714Y-121242380D01*
X112380476Y-121290000D01*
X112332857Y-121337619D01*
X112285238Y-121432857D01*
X112285238Y-121528095D01*
X112332857Y-121670952D01*
X112904285Y-122242380D01*
X112285238Y-122242380D01*
X111904285Y-122194761D02*
X111761428Y-122242380D01*
X111523333Y-122242380D01*
X111428095Y-122194761D01*
X111380476Y-122147142D01*
X111332857Y-122051904D01*
X111332857Y-121956666D01*
X111380476Y-121861428D01*
X111428095Y-121813809D01*
X111523333Y-121766190D01*
X111713809Y-121718571D01*
X111809047Y-121670952D01*
X111856666Y-121623333D01*
X111904285Y-121528095D01*
X111904285Y-121432857D01*
X111856666Y-121337619D01*
X111809047Y-121290000D01*
X111713809Y-121242380D01*
X111475714Y-121242380D01*
X111332857Y-121290000D01*
X110332857Y-122147142D02*
X110380476Y-122194761D01*
X110523333Y-122242380D01*
X110618571Y-122242380D01*
X110761428Y-122194761D01*
X110856666Y-122099523D01*
X110904285Y-122004285D01*
X110951904Y-121813809D01*
X110951904Y-121670952D01*
X110904285Y-121480476D01*
X110856666Y-121385238D01*
X110761428Y-121290000D01*
X110618571Y-121242380D01*
X110523333Y-121242380D01*
X110380476Y-121290000D01*
X110332857Y-121337619D01*
X109428095Y-122242380D02*
X109904285Y-122242380D01*
X109904285Y-121242380D01*
X126422619Y-122721428D02*
X125613095Y-122721428D01*
X125517857Y-122673809D01*
X125470238Y-122626190D01*
X125422619Y-122530952D01*
X125422619Y-122340476D01*
X125470238Y-122245238D01*
X125517857Y-122197619D01*
X125613095Y-122150000D01*
X126422619Y-122150000D01*
X125708333Y-121721428D02*
X125708333Y-121245238D01*
X125422619Y-121816666D02*
X126422619Y-121483333D01*
X125422619Y-121150000D01*
X125422619Y-120245238D02*
X125898809Y-120578571D01*
X125422619Y-120816666D02*
X126422619Y-120816666D01*
X126422619Y-120435714D01*
X126375000Y-120340476D01*
X126327380Y-120292857D01*
X126232142Y-120245238D01*
X126089285Y-120245238D01*
X125994047Y-120292857D01*
X125946428Y-120340476D01*
X125898809Y-120435714D01*
X125898809Y-120816666D01*
X126422619Y-119959523D02*
X126422619Y-119388095D01*
X125422619Y-119673809D02*
X126422619Y-119673809D01*
X126422619Y-119150000D02*
X126422619Y-118530952D01*
X126041666Y-118864285D01*
X126041666Y-118721428D01*
X125994047Y-118626190D01*
X125946428Y-118578571D01*
X125851190Y-118530952D01*
X125613095Y-118530952D01*
X125517857Y-118578571D01*
X125470238Y-118626190D01*
X125422619Y-118721428D01*
X125422619Y-119007142D01*
X125470238Y-119102380D01*
X125517857Y-119150000D01*
X116471428Y-132402380D02*
X116471428Y-133211904D01*
X116423809Y-133307142D01*
X116376190Y-133354761D01*
X116280952Y-133402380D01*
X116090476Y-133402380D01*
X115995238Y-133354761D01*
X115947619Y-133307142D01*
X115900000Y-133211904D01*
X115900000Y-132402380D01*
X115471428Y-133116666D02*
X114995238Y-133116666D01*
X115566666Y-133402380D02*
X115233333Y-132402380D01*
X114900000Y-133402380D01*
X113995238Y-133402380D02*
X114328571Y-132926190D01*
X114566666Y-133402380D02*
X114566666Y-132402380D01*
X114185714Y-132402380D01*
X114090476Y-132450000D01*
X114042857Y-132497619D01*
X113995238Y-132592857D01*
X113995238Y-132735714D01*
X114042857Y-132830952D01*
X114090476Y-132878571D01*
X114185714Y-132926190D01*
X114566666Y-132926190D01*
X113709523Y-132402380D02*
X113138095Y-132402380D01*
X113423809Y-133402380D02*
X113423809Y-132402380D01*
X112328571Y-132402380D02*
X112804761Y-132402380D01*
X112852380Y-132878571D01*
X112804761Y-132830952D01*
X112709523Y-132783333D01*
X112471428Y-132783333D01*
X112376190Y-132830952D01*
X112328571Y-132878571D01*
X112280952Y-132973809D01*
X112280952Y-133211904D01*
X112328571Y-133307142D01*
X112376190Y-133354761D01*
X112471428Y-133402380D01*
X112709523Y-133402380D01*
X112804761Y-133354761D01*
X112852380Y-133307142D01*
X94859404Y-125272380D02*
X95335595Y-125272380D01*
X95383214Y-125748571D01*
X95335595Y-125700952D01*
X95240357Y-125653333D01*
X95002261Y-125653333D01*
X94907023Y-125700952D01*
X94859404Y-125748571D01*
X94811785Y-125843809D01*
X94811785Y-126081904D01*
X94859404Y-126177142D01*
X94907023Y-126224761D01*
X95002261Y-126272380D01*
X95240357Y-126272380D01*
X95335595Y-126224761D01*
X95383214Y-126177142D01*
X71666666Y-106477380D02*
X72000000Y-106001190D01*
X72238095Y-106477380D02*
X72238095Y-105477380D01*
X71857142Y-105477380D01*
X71761904Y-105525000D01*
X71714285Y-105572619D01*
X71666666Y-105667857D01*
X71666666Y-105810714D01*
X71714285Y-105905952D01*
X71761904Y-105953571D01*
X71857142Y-106001190D01*
X72238095Y-106001190D01*
X71333333Y-105477380D02*
X70666666Y-106477380D01*
X70666666Y-105477380D02*
X71333333Y-106477380D01*
X75186904Y-114002380D02*
X75186904Y-113002380D01*
X74853571Y-113716666D01*
X74520238Y-113002380D01*
X74520238Y-114002380D01*
X73853571Y-113002380D02*
X73663095Y-113002380D01*
X73567857Y-113050000D01*
X73472619Y-113145238D01*
X73425000Y-113335714D01*
X73425000Y-113669047D01*
X73472619Y-113859523D01*
X73567857Y-113954761D01*
X73663095Y-114002380D01*
X73853571Y-114002380D01*
X73948809Y-113954761D01*
X74044047Y-113859523D01*
X74091666Y-113669047D01*
X74091666Y-113335714D01*
X74044047Y-113145238D01*
X73948809Y-113050000D01*
X73853571Y-113002380D01*
X73139285Y-113002380D02*
X72567857Y-113002380D01*
X72853571Y-114002380D02*
X72853571Y-113002380D01*
X72044047Y-113002380D02*
X71853571Y-113002380D01*
X71758333Y-113050000D01*
X71663095Y-113145238D01*
X71615476Y-113335714D01*
X71615476Y-113669047D01*
X71663095Y-113859523D01*
X71758333Y-113954761D01*
X71853571Y-114002380D01*
X72044047Y-114002380D01*
X72139285Y-113954761D01*
X72234523Y-113859523D01*
X72282142Y-113669047D01*
X72282142Y-113335714D01*
X72234523Y-113145238D01*
X72139285Y-113050000D01*
X72044047Y-113002380D01*
X70615476Y-114002380D02*
X70948809Y-113526190D01*
X71186904Y-114002380D02*
X71186904Y-113002380D01*
X70805952Y-113002380D01*
X70710714Y-113050000D01*
X70663095Y-113097619D01*
X70615476Y-113192857D01*
X70615476Y-113335714D01*
X70663095Y-113430952D01*
X70710714Y-113478571D01*
X70805952Y-113526190D01*
X71186904Y-113526190D01*
X86971428Y-96452380D02*
X86971428Y-95452380D01*
X86638095Y-96166666D01*
X86304761Y-95452380D01*
X86304761Y-96452380D01*
X85828571Y-96452380D02*
X85828571Y-95452380D01*
X71590476Y-108002380D02*
X72066666Y-108002380D01*
X72114285Y-108478571D01*
X72066666Y-108430952D01*
X71971428Y-108383333D01*
X71733333Y-108383333D01*
X71638095Y-108430952D01*
X71590476Y-108478571D01*
X71542857Y-108573809D01*
X71542857Y-108811904D01*
X71590476Y-108907142D01*
X71638095Y-108954761D01*
X71733333Y-109002380D01*
X71971428Y-109002380D01*
X72066666Y-108954761D01*
X72114285Y-108907142D01*
X71257142Y-108002380D02*
X70923809Y-109002380D01*
X70590476Y-108002380D01*
X109598809Y-88777380D02*
X109598809Y-87777380D01*
X109027380Y-88777380D01*
X109027380Y-87777380D01*
X107979761Y-88777380D02*
X108313095Y-88301190D01*
X108551190Y-88777380D02*
X108551190Y-87777380D01*
X108170238Y-87777380D01*
X108075000Y-87825000D01*
X108027380Y-87872619D01*
X107979761Y-87967857D01*
X107979761Y-88110714D01*
X108027380Y-88205952D01*
X108075000Y-88253571D01*
X108170238Y-88301190D01*
X108551190Y-88301190D01*
X107551190Y-88682142D02*
X107503571Y-88729761D01*
X107551190Y-88777380D01*
X107598809Y-88729761D01*
X107551190Y-88682142D01*
X107551190Y-88777380D01*
X107551190Y-88158333D02*
X107503571Y-88205952D01*
X107551190Y-88253571D01*
X107598809Y-88205952D01*
X107551190Y-88158333D01*
X107551190Y-88253571D01*
X86190476Y-124302380D02*
X86666666Y-124302380D01*
X86714285Y-124778571D01*
X86666666Y-124730952D01*
X86571428Y-124683333D01*
X86333333Y-124683333D01*
X86238095Y-124730952D01*
X86190476Y-124778571D01*
X86142857Y-124873809D01*
X86142857Y-125111904D01*
X86190476Y-125207142D01*
X86238095Y-125254761D01*
X86333333Y-125302380D01*
X86571428Y-125302380D01*
X86666666Y-125254761D01*
X86714285Y-125207142D01*
X85857142Y-124302380D02*
X85523809Y-125302380D01*
X85190476Y-124302380D01*
X107945119Y-125272380D02*
X107849880Y-125272380D01*
X107754642Y-125320000D01*
X107707023Y-125367619D01*
X107659404Y-125462857D01*
X107611785Y-125653333D01*
X107611785Y-125891428D01*
X107659404Y-126081904D01*
X107707023Y-126177142D01*
X107754642Y-126224761D01*
X107849880Y-126272380D01*
X107945119Y-126272380D01*
X108040357Y-126224761D01*
X108087976Y-126177142D01*
X108135595Y-126081904D01*
X108183214Y-125891428D01*
X108183214Y-125653333D01*
X108135595Y-125462857D01*
X108087976Y-125367619D01*
X108040357Y-125320000D01*
X107945119Y-125272380D01*
X126397619Y-107988095D02*
X125588095Y-107988095D01*
X125492857Y-107940476D01*
X125445238Y-107892857D01*
X125397619Y-107797619D01*
X125397619Y-107607142D01*
X125445238Y-107511904D01*
X125492857Y-107464285D01*
X125588095Y-107416666D01*
X126397619Y-107416666D01*
X125445238Y-106988095D02*
X125397619Y-106845238D01*
X125397619Y-106607142D01*
X125445238Y-106511904D01*
X125492857Y-106464285D01*
X125588095Y-106416666D01*
X125683333Y-106416666D01*
X125778571Y-106464285D01*
X125826190Y-106511904D01*
X125873809Y-106607142D01*
X125921428Y-106797619D01*
X125969047Y-106892857D01*
X126016666Y-106940476D01*
X126111904Y-106988095D01*
X126207142Y-106988095D01*
X126302380Y-106940476D01*
X126350000Y-106892857D01*
X126397619Y-106797619D01*
X126397619Y-106559523D01*
X126350000Y-106416666D01*
X125921428Y-105654761D02*
X125873809Y-105511904D01*
X125826190Y-105464285D01*
X125730952Y-105416666D01*
X125588095Y-105416666D01*
X125492857Y-105464285D01*
X125445238Y-105511904D01*
X125397619Y-105607142D01*
X125397619Y-105988095D01*
X126397619Y-105988095D01*
X126397619Y-105654761D01*
X126350000Y-105559523D01*
X126302380Y-105511904D01*
X126207142Y-105464285D01*
X126111904Y-105464285D01*
X126016666Y-105511904D01*
X125969047Y-105559523D01*
X125921428Y-105654761D01*
X125921428Y-105988095D01*
X126302380Y-105035714D02*
X126350000Y-104988095D01*
X126397619Y-104892857D01*
X126397619Y-104654761D01*
X126350000Y-104559523D01*
X126302380Y-104511904D01*
X126207142Y-104464285D01*
X126111904Y-104464285D01*
X125969047Y-104511904D01*
X125397619Y-105083333D01*
X125397619Y-104464285D01*
X110826190Y-132102380D02*
X110730952Y-132102380D01*
X110635714Y-132150000D01*
X110588095Y-132197619D01*
X110540476Y-132292857D01*
X110492857Y-132483333D01*
X110492857Y-132721428D01*
X110540476Y-132911904D01*
X110588095Y-133007142D01*
X110635714Y-133054761D01*
X110730952Y-133102380D01*
X110826190Y-133102380D01*
X110921428Y-133054761D01*
X110969047Y-133007142D01*
X111016666Y-132911904D01*
X111064285Y-132721428D01*
X111064285Y-132483333D01*
X111016666Y-132292857D01*
X110969047Y-132197619D01*
X110921428Y-132150000D01*
X110826190Y-132102380D01*
X110207142Y-132102380D02*
X109873809Y-133102380D01*
X109540476Y-132102380D01*
X76413095Y-117827380D02*
X75794047Y-117827380D01*
X76127380Y-118208333D01*
X75984523Y-118208333D01*
X75889285Y-118255952D01*
X75841666Y-118303571D01*
X75794047Y-118398809D01*
X75794047Y-118636904D01*
X75841666Y-118732142D01*
X75889285Y-118779761D01*
X75984523Y-118827380D01*
X76270238Y-118827380D01*
X76365476Y-118779761D01*
X76413095Y-118732142D01*
X75508333Y-117827380D02*
X75175000Y-118827380D01*
X74841666Y-117827380D01*
X74603571Y-117827380D02*
X73984523Y-117827380D01*
X74317857Y-118208333D01*
X74175000Y-118208333D01*
X74079761Y-118255952D01*
X74032142Y-118303571D01*
X73984523Y-118398809D01*
X73984523Y-118636904D01*
X74032142Y-118732142D01*
X74079761Y-118779761D01*
X74175000Y-118827380D01*
X74460714Y-118827380D01*
X74555952Y-118779761D01*
X74603571Y-118732142D01*
X119536904Y-131000000D02*
X119632142Y-130952380D01*
X119775000Y-130952380D01*
X119917857Y-131000000D01*
X120013095Y-131095238D01*
X120060714Y-131190476D01*
X120108333Y-131380952D01*
X120108333Y-131523809D01*
X120060714Y-131714285D01*
X120013095Y-131809523D01*
X119917857Y-131904761D01*
X119775000Y-131952380D01*
X119679761Y-131952380D01*
X119536904Y-131904761D01*
X119489285Y-131857142D01*
X119489285Y-131523809D01*
X119679761Y-131523809D01*
X119060714Y-131952380D02*
X119060714Y-130952380D01*
X118489285Y-131952380D01*
X118489285Y-130952380D01*
X118013095Y-131952380D02*
X118013095Y-130952380D01*
X117775000Y-130952380D01*
X117632142Y-131000000D01*
X117536904Y-131095238D01*
X117489285Y-131190476D01*
X117441666Y-131380952D01*
X117441666Y-131523809D01*
X117489285Y-131714285D01*
X117536904Y-131809523D01*
X117632142Y-131904761D01*
X117775000Y-131952380D01*
X118013095Y-131952380D01*
X89911904Y-85750000D02*
X90007142Y-85702380D01*
X90150000Y-85702380D01*
X90292857Y-85750000D01*
X90388095Y-85845238D01*
X90435714Y-85940476D01*
X90483333Y-86130952D01*
X90483333Y-86273809D01*
X90435714Y-86464285D01*
X90388095Y-86559523D01*
X90292857Y-86654761D01*
X90150000Y-86702380D01*
X90054761Y-86702380D01*
X89911904Y-86654761D01*
X89864285Y-86607142D01*
X89864285Y-86273809D01*
X90054761Y-86273809D01*
X89435714Y-86702380D02*
X89435714Y-85702380D01*
X88864285Y-86702380D01*
X88864285Y-85702380D01*
X88388095Y-86702380D02*
X88388095Y-85702380D01*
X88150000Y-85702380D01*
X88007142Y-85750000D01*
X87911904Y-85845238D01*
X87864285Y-85940476D01*
X87816666Y-86130952D01*
X87816666Y-86273809D01*
X87864285Y-86464285D01*
X87911904Y-86559523D01*
X88007142Y-86654761D01*
X88150000Y-86702380D01*
X88388095Y-86702380D01*
X106144047Y-87802380D02*
X106144047Y-88516666D01*
X106191666Y-88659523D01*
X106286904Y-88754761D01*
X106429761Y-88802380D01*
X106525000Y-88802380D01*
X105191666Y-88802380D02*
X105667857Y-88802380D01*
X105667857Y-87802380D01*
X104286904Y-88707142D02*
X104334523Y-88754761D01*
X104477380Y-88802380D01*
X104572619Y-88802380D01*
X104715476Y-88754761D01*
X104810714Y-88659523D01*
X104858333Y-88564285D01*
X104905952Y-88373809D01*
X104905952Y-88230952D01*
X104858333Y-88040476D01*
X104810714Y-87945238D01*
X104715476Y-87850000D01*
X104572619Y-87802380D01*
X104477380Y-87802380D01*
X104334523Y-87850000D01*
X104286904Y-87897619D01*
X103572619Y-87802380D02*
X103572619Y-88516666D01*
X103620238Y-88659523D01*
X103715476Y-88754761D01*
X103858333Y-88802380D01*
X103953571Y-88802380D01*
X102620238Y-88802380D02*
X103096428Y-88802380D01*
X103096428Y-87802380D01*
X101715476Y-88707142D02*
X101763095Y-88754761D01*
X101905952Y-88802380D01*
X102001190Y-88802380D01*
X102144047Y-88754761D01*
X102239285Y-88659523D01*
X102286904Y-88564285D01*
X102334523Y-88373809D01*
X102334523Y-88230952D01*
X102286904Y-88040476D01*
X102239285Y-87945238D01*
X102144047Y-87850000D01*
X102001190Y-87802380D01*
X101905952Y-87802380D01*
X101763095Y-87850000D01*
X101715476Y-87897619D01*
X101001190Y-87802380D02*
X101001190Y-88516666D01*
X101048809Y-88659523D01*
X101144047Y-88754761D01*
X101286904Y-88802380D01*
X101382142Y-88802380D01*
X100048809Y-88802380D02*
X100525000Y-88802380D01*
X100525000Y-87802380D01*
X99144047Y-88707142D02*
X99191666Y-88754761D01*
X99334523Y-88802380D01*
X99429761Y-88802380D01*
X99572619Y-88754761D01*
X99667857Y-88659523D01*
X99715476Y-88564285D01*
X99763095Y-88373809D01*
X99763095Y-88230952D01*
X99715476Y-88040476D01*
X99667857Y-87945238D01*
X99572619Y-87850000D01*
X99429761Y-87802380D01*
X99334523Y-87802380D01*
X99191666Y-87850000D01*
X99144047Y-87897619D01*
X98429761Y-87802380D02*
X98429761Y-88516666D01*
X98477380Y-88659523D01*
X98572619Y-88754761D01*
X98715476Y-88802380D01*
X98810714Y-88802380D01*
X97477380Y-88802380D02*
X97953571Y-88802380D01*
X97953571Y-87802380D01*
X96572619Y-88707142D02*
X96620238Y-88754761D01*
X96763095Y-88802380D01*
X96858333Y-88802380D01*
X97001190Y-88754761D01*
X97096428Y-88659523D01*
X97144047Y-88564285D01*
X97191666Y-88373809D01*
X97191666Y-88230952D01*
X97144047Y-88040476D01*
X97096428Y-87945238D01*
X97001190Y-87850000D01*
X96858333Y-87802380D01*
X96763095Y-87802380D01*
X96620238Y-87850000D01*
X96572619Y-87897619D01*
X84120238Y-101807142D02*
X84167857Y-101854761D01*
X84310714Y-101902380D01*
X84405952Y-101902380D01*
X84548809Y-101854761D01*
X84644047Y-101759523D01*
X84691666Y-101664285D01*
X84739285Y-101473809D01*
X84739285Y-101330952D01*
X84691666Y-101140476D01*
X84644047Y-101045238D01*
X84548809Y-100950000D01*
X84405952Y-100902380D01*
X84310714Y-100902380D01*
X84167857Y-100950000D01*
X84120238Y-100997619D01*
X83215476Y-101902380D02*
X83691666Y-101902380D01*
X83691666Y-100902380D01*
X84661904Y-95500000D02*
X84757142Y-95452380D01*
X84900000Y-95452380D01*
X85042857Y-95500000D01*
X85138095Y-95595238D01*
X85185714Y-95690476D01*
X85233333Y-95880952D01*
X85233333Y-96023809D01*
X85185714Y-96214285D01*
X85138095Y-96309523D01*
X85042857Y-96404761D01*
X84900000Y-96452380D01*
X84804761Y-96452380D01*
X84661904Y-96404761D01*
X84614285Y-96357142D01*
X84614285Y-96023809D01*
X84804761Y-96023809D01*
X84185714Y-96452380D02*
X84185714Y-95452380D01*
X83614285Y-96452380D01*
X83614285Y-95452380D01*
X83138095Y-96452380D02*
X83138095Y-95452380D01*
X82900000Y-95452380D01*
X82757142Y-95500000D01*
X82661904Y-95595238D01*
X82614285Y-95690476D01*
X82566666Y-95880952D01*
X82566666Y-96023809D01*
X82614285Y-96214285D01*
X82661904Y-96309523D01*
X82757142Y-96404761D01*
X82900000Y-96452380D01*
X83138095Y-96452380D01*
X88239285Y-90885714D02*
X88239285Y-91552380D01*
X88477380Y-90504761D02*
X88715476Y-91219047D01*
X88096428Y-91219047D01*
X87763095Y-91504761D02*
X87620238Y-91552380D01*
X87382142Y-91552380D01*
X87286904Y-91504761D01*
X87239285Y-91457142D01*
X87191666Y-91361904D01*
X87191666Y-91266666D01*
X87239285Y-91171428D01*
X87286904Y-91123809D01*
X87382142Y-91076190D01*
X87572619Y-91028571D01*
X87667857Y-90980952D01*
X87715476Y-90933333D01*
X87763095Y-90838095D01*
X87763095Y-90742857D01*
X87715476Y-90647619D01*
X87667857Y-90600000D01*
X87572619Y-90552380D01*
X87334523Y-90552380D01*
X87191666Y-90600000D01*
X86763095Y-91552380D02*
X86763095Y-90552380D01*
X86525000Y-90552380D01*
X86382142Y-90600000D01*
X86286904Y-90695238D01*
X86239285Y-90790476D01*
X86191666Y-90980952D01*
X86191666Y-91123809D01*
X86239285Y-91314285D01*
X86286904Y-91409523D01*
X86382142Y-91504761D01*
X86525000Y-91552380D01*
X86763095Y-91552380D01*
X85810714Y-91266666D02*
X85334523Y-91266666D01*
X85905952Y-91552380D02*
X85572619Y-90552380D01*
X85239285Y-91552380D01*
X72561904Y-110500000D02*
X72657142Y-110452380D01*
X72800000Y-110452380D01*
X72942857Y-110500000D01*
X73038095Y-110595238D01*
X73085714Y-110690476D01*
X73133333Y-110880952D01*
X73133333Y-111023809D01*
X73085714Y-111214285D01*
X73038095Y-111309523D01*
X72942857Y-111404761D01*
X72800000Y-111452380D01*
X72704761Y-111452380D01*
X72561904Y-111404761D01*
X72514285Y-111357142D01*
X72514285Y-111023809D01*
X72704761Y-111023809D01*
X72085714Y-111452380D02*
X72085714Y-110452380D01*
X71514285Y-111452380D01*
X71514285Y-110452380D01*
X71038095Y-111452380D02*
X71038095Y-110452380D01*
X70800000Y-110452380D01*
X70657142Y-110500000D01*
X70561904Y-110595238D01*
X70514285Y-110690476D01*
X70466666Y-110880952D01*
X70466666Y-111023809D01*
X70514285Y-111214285D01*
X70561904Y-111309523D01*
X70657142Y-111404761D01*
X70800000Y-111452380D01*
X71038095Y-111452380D01*
X110285714Y-128029761D02*
X110142857Y-128077380D01*
X109904761Y-128077380D01*
X109809523Y-128029761D01*
X109761904Y-127982142D01*
X109714285Y-127886904D01*
X109714285Y-127791666D01*
X109761904Y-127696428D01*
X109809523Y-127648809D01*
X109904761Y-127601190D01*
X110095238Y-127553571D01*
X110190476Y-127505952D01*
X110238095Y-127458333D01*
X110285714Y-127363095D01*
X110285714Y-127267857D01*
X110238095Y-127172619D01*
X110190476Y-127125000D01*
X110095238Y-127077380D01*
X109857142Y-127077380D01*
X109714285Y-127125000D01*
D10*
X105957142Y-94350000D02*
X106004761Y-94397619D01*
X106052380Y-94350000D01*
X106004761Y-94302380D01*
X105957142Y-94350000D01*
X106052380Y-94350000D01*
D13*
X122502500Y-118150000D02*
G75*
G03*
X122502500Y-118150000I-700000J0D01*
G01*
X119490000Y-132880000D02*
G75*
G03*
X119490000Y-132880000I-700000J0D01*
G01*
X84702500Y-97370000D02*
G75*
G03*
X84702500Y-97370000I-700000J0D01*
G01*
X89800000Y-87600000D02*
G75*
G03*
X89800000Y-87600000I-700000J0D01*
G01*
X78075000Y-122400000D02*
G75*
G03*
X78075000Y-122400000I-700000J0D01*
G01*
X88700000Y-89620000D02*
G75*
G03*
X88700000Y-89620000I-700000J0D01*
G01*
X109230000Y-121820000D02*
G75*
G03*
X109230000Y-121820000I-700000J0D01*
G01*
X117750000Y-128820000D02*
G75*
G03*
X117750000Y-128820000I-700000J0D01*
G01*
X122510000Y-116100000D02*
G75*
G03*
X122510000Y-116100000I-700000J0D01*
G01*
X109230000Y-123830000D02*
G75*
G03*
X109230000Y-123830000I-700000J0D01*
G01*
X122477500Y-120200000D02*
G75*
G03*
X122477500Y-120200000I-700000J0D01*
G01*
X86902500Y-97400000D02*
G75*
G03*
X86902500Y-97400000I-700000J0D01*
G01*
X115727500Y-128795000D02*
G75*
G03*
X115727500Y-128795000I-700000J0D01*
G01*
X110840000Y-91750000D02*
X110840000Y-84100000D01*
X110840000Y-81800000D02*
X110840000Y-78625000D01*
X104090000Y-79340000D02*
X107140000Y-78630000D01*
X95490000Y-79340000D02*
X104090000Y-79340000D01*
X106015000Y-93125000D02*
X109440000Y-93125000D01*
X95490000Y-84090000D02*
X95490000Y-91725000D01*
X95490000Y-79340000D02*
X95490000Y-81775000D01*
X110840000Y-78630000D02*
X107140000Y-78630000D01*
X86850000Y-100020000D02*
G75*
G03*
X86850000Y-100020000I-700000J0D01*
G01*
X90950000Y-89670000D02*
G75*
G03*
X90950000Y-89670000I-700000J0D01*
G01*
X84800000Y-100020000D02*
G75*
G03*
X84800000Y-100020000I-700000J0D01*
G01*
X84140000Y-119310000D02*
X84140000Y-120570000D01*
X87900000Y-126130000D02*
X84140000Y-126130000D01*
X84140000Y-126130000D02*
X84140000Y-124870000D01*
X90150000Y-119310000D02*
X84140000Y-119310000D01*
X78125000Y-118225000D02*
G75*
G03*
X78125000Y-118225000I-700000J0D01*
G01*
X78100000Y-120320000D02*
G75*
G03*
X78100000Y-120320000I-700000J0D01*
G01*
%LPC*%
D14*
X76000000Y-128020000D03*
D15*
X77200000Y-100930000D03*
D16*
X77200000Y-103430000D03*
X77200000Y-105930000D03*
X77200000Y-108430000D03*
X77200000Y-110930000D03*
X77200000Y-113430000D03*
X77200000Y-115930000D03*
D14*
X121000000Y-128020000D03*
D17*
X107835000Y-127600000D03*
D18*
X105295000Y-127600000D03*
X102755000Y-127600000D03*
X100215000Y-127600000D03*
X97675000Y-127600000D03*
X95135000Y-127600000D03*
X92595000Y-127600000D03*
X90055000Y-127600000D03*
D19*
X120625000Y-104200000D03*
X120625000Y-108600000D03*
D20*
X107845000Y-130110000D03*
D18*
X107845000Y-132650000D03*
X105305000Y-130110000D03*
X105305000Y-132650000D03*
X102765000Y-130110000D03*
X102765000Y-132650000D03*
X100225000Y-130110000D03*
X100225000Y-132650000D03*
X97685000Y-130110000D03*
X97685000Y-132650000D03*
X95145000Y-130110000D03*
X95145000Y-132650000D03*
X92605000Y-130110000D03*
X92605000Y-132650000D03*
X90065000Y-130110000D03*
X90065000Y-132650000D03*
D19*
X120565000Y-89830000D03*
X120565000Y-94230000D03*
X73070000Y-94190000D03*
X73070000Y-91190000D03*
D14*
X76000000Y-83020000D03*
X121000000Y-83020000D03*
D21*
X121802500Y-118150000D03*
X118790000Y-132880000D03*
X84002500Y-97370000D03*
X89100000Y-87600000D03*
X77375000Y-122400000D03*
X88000000Y-89620000D03*
X108530000Y-121820000D03*
X117050000Y-128820000D03*
X121810000Y-116100000D03*
X108530000Y-123830000D03*
X121777500Y-120200000D03*
X86202500Y-97400000D03*
X115027500Y-128795000D03*
D22*
X105390000Y-93480000D03*
X104290000Y-93480000D03*
X103190000Y-93480000D03*
X102090000Y-93480000D03*
X100990000Y-93480000D03*
X99890000Y-93480000D03*
X98790000Y-93480000D03*
X97690000Y-93480000D03*
X96590000Y-93480000D03*
D23*
X95390000Y-92630000D03*
D24*
X95390000Y-82930000D03*
X111010000Y-82930000D03*
D23*
X110170000Y-92630000D03*
D25*
X98300000Y-82930000D03*
X106300000Y-82930000D03*
D21*
X86150000Y-100020000D03*
X90250000Y-89670000D03*
X84100000Y-100020000D03*
D26*
X89200000Y-120420000D03*
X89200000Y-122720000D03*
D27*
X82900000Y-122720000D03*
D26*
X89200000Y-125020000D03*
D21*
X77425000Y-118225000D03*
X77400000Y-120320000D03*
M02*
